%
M48
M72
T01C0.0200
T02C0.0310
T03C0.0350
T04C0.0390
T05C0.0400
T06C0.0510
T07C0.1969
%
T01
X19380Y23230
X19380Y26430
T02
X22040Y25571
X22040Y24784
X22040Y23996
X22040Y23209
X22040Y22421
X22040Y21634
X22040Y20847
X22040Y20059
X22040Y19272
X22040Y18484
X22040Y17697
X22040Y16910
X9760Y16910
X9760Y17697
X9760Y18484
X9760Y19272
X9760Y20059
X9760Y20847
X9760Y21634
X9760Y22421
X9760Y23209
X9760Y23996
X9760Y24784
X9760Y25571
T03
X11360Y28430
X12360Y28430
X13360Y28430
X18447Y28430
X19447Y28430
X20447Y28430
T04
X21810Y29410
X23580Y29410
T05
X25049Y27126
X26049Y27126
X26049Y26126
X26049Y25126
X25049Y25126
X25049Y26126
X25049Y24126
X26049Y24126
X26049Y23126
X26049Y22126
X25049Y22126
X25049Y23126
X25049Y21126
X25049Y20126
X26049Y20126
X26049Y21126
X26049Y19126
X26049Y18126
X25049Y18126
X25049Y19126
X25049Y17126
X25049Y16126
X26049Y16126
X26049Y17126
X26049Y15126
X26049Y14126
X25049Y14126
X25049Y15126
X25049Y13126
X26049Y13126
X26049Y12126
X26049Y11126
X25049Y11126
X25049Y12126
X25049Y10126
X25049Y9126
X26049Y9126
X26049Y10126
X26049Y8126
X25049Y8126
X21880Y8330
X21880Y9330
X20880Y9330
X20880Y8330
X20880Y7330
X20880Y6330
X21880Y6330
X21880Y7330
X19880Y7330
X19880Y6330
X18880Y6330
X18880Y7330
X17880Y7330
X17880Y6330
X16880Y6330
X16880Y7330
X15880Y7330
X15880Y6330
X14880Y6330
X14880Y7330
X13880Y7330
X13880Y6330
X12880Y6330
X12880Y7330
X11880Y7330
X11880Y6330
X10880Y6330
X10880Y7330
X9880Y7330
X9880Y6330
X8880Y6330
X8880Y7330
X8880Y8330
X8880Y9330
X9880Y9330
X9880Y8330
X10880Y8330
X10880Y9330
X11880Y9330
X11880Y8330
X12880Y8330
X12880Y9330
X13880Y9330
X13880Y8330
X14880Y8330
X14880Y9330
X15880Y9330
X15880Y8330
X16880Y8330
X16880Y9330
X17880Y9330
X17880Y8330
X18880Y8330
X18880Y9330
X19880Y9330
X19880Y8330
X19880Y10330
X19880Y11330
X20880Y11330
X20880Y10330
X21880Y10330
X21880Y11330
X21880Y12330
X21880Y13330
X20880Y13330
X20880Y12330
X19880Y12330
X19880Y13330
X18880Y13330
X18880Y12330
X18880Y11330
X18880Y10330
X17880Y10330
X17880Y11330
X16880Y11330
X16880Y10330
X15880Y10330
X15880Y11330
X14880Y11330
X14880Y10330
X13880Y10330
X13880Y11330
X12880Y11330
X12880Y10330
X11880Y10330
X11880Y11330
X10880Y11330
X10880Y10330
X9880Y10330
X9880Y11330
X8880Y11330
X8880Y10330
X8880Y12330
X8880Y13330
X9880Y13330
X9880Y12330
X10880Y12330
X10880Y13330
X11880Y13330
X11880Y12330
X12880Y12330
X12880Y13330
X13880Y13330
X13880Y12330
X14880Y12330
X14880Y13330
X15880Y13330
X15880Y12330
X16880Y12330
X16880Y13330
X17880Y13330
X17880Y12330
X17880Y14330
X18880Y14330
X19880Y14330
X20880Y14330
X19880Y15330
X18880Y15330
X17880Y15330
X16880Y15330
X16880Y14330
X15880Y14330
X14880Y14330
X13880Y14330
X12880Y14330
X11880Y14330
X10880Y14330
X9880Y14330
X8880Y14330
X8880Y15330
X9880Y15330
X10880Y15330
X11880Y15330
X12880Y15330
X13880Y15330
X14880Y15330
X15880Y15330
X7880Y17330
X6880Y17330
X5880Y17330
T06
X21215Y28430
X24175Y28430
T07
X6258Y6208
X25549Y6208
M30
