G75*
%MOIN*%
%OFA0B0*%
%FSLAX25Y25*%
%IPPOS*%
%LPD*%
%AMOC8*
5,1,8,0,0,1.08239X$1,22.5*
%
%ADD10C,0.00600*%
%ADD11C,0.00800*%
%ADD12C,0.00598*%
D10*
X0067333Y0141103D02*
X0066599Y0141837D01*
X0067333Y0141103D02*
X0068800Y0141103D01*
X0069534Y0141837D01*
X0069534Y0143305D01*
X0068800Y0144039D01*
X0068066Y0144039D01*
X0066599Y0143305D01*
X0066599Y0145507D01*
X0069534Y0145507D01*
X0071202Y0141837D02*
X0071936Y0141837D01*
X0071936Y0141103D01*
X0071202Y0141103D01*
X0071202Y0141837D01*
X0073504Y0141837D02*
X0074238Y0141103D01*
X0075706Y0141103D01*
X0076440Y0141837D01*
X0076440Y0144773D01*
X0073504Y0141837D01*
X0073504Y0144773D01*
X0074238Y0145507D01*
X0075706Y0145507D01*
X0076440Y0144773D01*
X0078108Y0145507D02*
X0078108Y0142571D01*
X0079576Y0141103D01*
X0081044Y0142571D01*
X0081044Y0145507D01*
X0079576Y0151103D02*
X0081044Y0152571D01*
X0081044Y0155507D01*
X0078108Y0155507D02*
X0078108Y0152571D01*
X0079576Y0151103D01*
X0076440Y0151837D02*
X0075706Y0151103D01*
X0074238Y0151103D01*
X0073504Y0151837D01*
X0071936Y0151837D02*
X0071936Y0151103D01*
X0071202Y0151103D01*
X0071202Y0151837D01*
X0071936Y0151837D01*
X0069534Y0151837D02*
X0068800Y0151103D01*
X0067333Y0151103D01*
X0066599Y0151837D01*
X0068066Y0153305D02*
X0068800Y0153305D01*
X0069534Y0152571D01*
X0069534Y0151837D01*
X0068800Y0153305D02*
X0069534Y0154039D01*
X0069534Y0154773D01*
X0068800Y0155507D01*
X0067333Y0155507D01*
X0066599Y0154773D01*
X0073504Y0154773D02*
X0074238Y0155507D01*
X0075706Y0155507D01*
X0076440Y0154773D01*
X0076440Y0154039D01*
X0075706Y0153305D01*
X0076440Y0152571D01*
X0076440Y0151837D01*
X0075706Y0153305D02*
X0074972Y0153305D01*
X0084891Y0166103D02*
X0087827Y0166103D01*
X0086359Y0166103D02*
X0086359Y0170507D01*
X0084891Y0169039D01*
X0089495Y0169773D02*
X0090229Y0170507D01*
X0091696Y0170507D01*
X0092430Y0169773D01*
X0092430Y0169039D01*
X0089495Y0166103D01*
X0092430Y0166103D01*
X0080799Y0179771D02*
X0076395Y0179771D01*
X0076395Y0178303D02*
X0076395Y0181239D01*
X0076395Y0182907D02*
X0076395Y0185109D01*
X0077129Y0185843D01*
X0078597Y0185843D01*
X0079331Y0185109D01*
X0079331Y0182907D01*
X0080799Y0182907D02*
X0076395Y0182907D01*
X0077129Y0187511D02*
X0076395Y0188245D01*
X0076395Y0189713D01*
X0077129Y0190447D01*
X0077863Y0190447D01*
X0078597Y0189713D01*
X0079331Y0190447D01*
X0080065Y0190447D01*
X0080799Y0189713D01*
X0080799Y0188245D01*
X0080065Y0187511D01*
X0078597Y0188979D02*
X0078597Y0189713D01*
X0070799Y0190447D02*
X0070799Y0187511D01*
X0070799Y0188979D02*
X0066395Y0188979D01*
X0067863Y0187511D01*
X0068597Y0185843D02*
X0069331Y0185109D01*
X0069331Y0182907D01*
X0070799Y0182907D02*
X0066395Y0182907D01*
X0066395Y0185109D01*
X0067129Y0185843D01*
X0068597Y0185843D01*
X0066395Y0181239D02*
X0066395Y0178303D01*
X0066395Y0179771D02*
X0070799Y0179771D01*
X0060799Y0179771D02*
X0056395Y0179771D01*
X0056395Y0178303D02*
X0056395Y0181239D01*
X0056395Y0182907D02*
X0056395Y0185109D01*
X0057129Y0185843D01*
X0058597Y0185843D01*
X0059331Y0185109D01*
X0059331Y0182907D01*
X0060799Y0182907D02*
X0056395Y0182907D01*
X0057129Y0187511D02*
X0056395Y0188245D01*
X0056395Y0189713D01*
X0057129Y0190447D01*
X0057863Y0190447D01*
X0060799Y0187511D01*
X0060799Y0190447D01*
X0089495Y0253603D02*
X0092430Y0253603D01*
X0090963Y0253603D02*
X0090963Y0258007D01*
X0089495Y0256539D01*
X0110595Y0271103D02*
X0110595Y0273305D01*
X0111329Y0274039D01*
X0112797Y0274039D01*
X0113531Y0273305D01*
X0113531Y0271103D01*
X0114999Y0271103D02*
X0110595Y0271103D01*
X0113531Y0272571D02*
X0114999Y0274039D01*
X0114999Y0275707D02*
X0114999Y0278643D01*
X0114999Y0277175D02*
X0110595Y0277175D01*
X0112063Y0275707D01*
X0131595Y0276441D02*
X0132329Y0275707D01*
X0131595Y0276441D02*
X0131595Y0277909D01*
X0132329Y0278643D01*
X0133063Y0278643D01*
X0135999Y0275707D01*
X0135999Y0278643D01*
X0135999Y0274039D02*
X0134531Y0272571D01*
X0134531Y0273305D02*
X0134531Y0271103D01*
X0135999Y0271103D02*
X0131595Y0271103D01*
X0131595Y0273305D01*
X0132329Y0274039D01*
X0133797Y0274039D01*
X0134531Y0273305D01*
X0181595Y0273305D02*
X0182329Y0274039D01*
X0183797Y0274039D01*
X0184531Y0273305D01*
X0184531Y0271103D01*
X0185999Y0271103D02*
X0181595Y0271103D01*
X0181595Y0273305D01*
X0182329Y0275707D02*
X0181595Y0276441D01*
X0181595Y0277909D01*
X0182329Y0278643D01*
X0183063Y0278643D01*
X0183797Y0277909D01*
X0184531Y0278643D01*
X0185265Y0278643D01*
X0185999Y0277909D01*
X0185999Y0276441D01*
X0185265Y0275707D01*
X0185999Y0274039D02*
X0184531Y0272571D01*
X0183797Y0277175D02*
X0183797Y0277909D01*
X0201595Y0277909D02*
X0203797Y0275707D01*
X0203797Y0278643D01*
X0205999Y0277909D02*
X0201595Y0277909D01*
X0202329Y0274039D02*
X0203797Y0274039D01*
X0204531Y0273305D01*
X0204531Y0271103D01*
X0205999Y0271103D02*
X0201595Y0271103D01*
X0201595Y0273305D01*
X0202329Y0274039D01*
X0204531Y0272571D02*
X0205999Y0274039D01*
X0224891Y0257273D02*
X0225625Y0258007D01*
X0227093Y0258007D01*
X0227827Y0257273D01*
X0227827Y0256539D01*
X0224891Y0253603D01*
X0227827Y0253603D01*
X0229495Y0255805D02*
X0232430Y0255805D01*
X0231696Y0253603D02*
X0231696Y0258007D01*
X0229495Y0255805D01*
X0241599Y0268603D02*
X0244534Y0268603D01*
X0243066Y0268603D02*
X0243066Y0273007D01*
X0241599Y0271539D01*
X0190409Y0198007D02*
X0188941Y0198007D01*
X0188207Y0197273D01*
X0189675Y0195805D02*
X0190409Y0195805D01*
X0191143Y0195071D01*
X0191143Y0194337D01*
X0190409Y0193603D01*
X0188941Y0193603D01*
X0188207Y0194337D01*
X0186606Y0193603D02*
X0185138Y0193603D01*
X0185872Y0193603D02*
X0185872Y0196539D01*
X0185138Y0196539D01*
X0185872Y0198007D02*
X0185872Y0198741D01*
X0183470Y0197273D02*
X0183470Y0195805D01*
X0182736Y0195071D01*
X0180534Y0195071D01*
X0180534Y0193603D02*
X0180534Y0198007D01*
X0182736Y0198007D01*
X0183470Y0197273D01*
X0178866Y0197273D02*
X0178866Y0195805D01*
X0178132Y0195071D01*
X0175930Y0195071D01*
X0175930Y0193603D02*
X0175930Y0198007D01*
X0178132Y0198007D01*
X0178866Y0197273D01*
X0177398Y0195071D02*
X0178866Y0193603D01*
X0169658Y0195071D02*
X0166722Y0195071D01*
X0166722Y0194337D02*
X0166722Y0195805D01*
X0167456Y0196539D01*
X0168924Y0196539D01*
X0169658Y0195805D01*
X0169658Y0195071D01*
X0168924Y0193603D02*
X0167456Y0193603D01*
X0166722Y0194337D01*
X0165054Y0194337D02*
X0164320Y0195071D01*
X0162852Y0195071D01*
X0162118Y0195805D01*
X0162852Y0196539D01*
X0165054Y0196539D01*
X0165054Y0194337D02*
X0164320Y0193603D01*
X0162118Y0193603D01*
X0160450Y0194337D02*
X0159716Y0193603D01*
X0157514Y0193603D01*
X0157514Y0192135D02*
X0157514Y0196539D01*
X0159716Y0196539D01*
X0160450Y0195805D01*
X0160450Y0194337D01*
X0158248Y0189773D02*
X0158248Y0186837D01*
X0158982Y0186103D01*
X0160584Y0186837D02*
X0160584Y0188305D01*
X0161317Y0189039D01*
X0162785Y0189039D01*
X0163519Y0188305D01*
X0163519Y0187571D01*
X0160584Y0187571D01*
X0160584Y0186837D02*
X0161317Y0186103D01*
X0162785Y0186103D01*
X0165187Y0186103D02*
X0165187Y0189039D01*
X0165187Y0187571D02*
X0166655Y0189039D01*
X0167389Y0189039D01*
X0160450Y0181539D02*
X0160450Y0178603D01*
X0160450Y0180805D02*
X0157514Y0180805D01*
X0157514Y0181539D02*
X0158982Y0183007D01*
X0160450Y0181539D01*
X0157514Y0181539D02*
X0157514Y0178603D01*
X0151242Y0181539D02*
X0149774Y0178603D01*
X0148306Y0181539D01*
X0146638Y0180805D02*
X0146638Y0180071D01*
X0143702Y0180071D01*
X0143702Y0179337D02*
X0143702Y0180805D01*
X0144436Y0181539D01*
X0145904Y0181539D01*
X0146638Y0180805D01*
X0145904Y0178603D02*
X0144436Y0178603D01*
X0143702Y0179337D01*
X0142034Y0178603D02*
X0140566Y0180071D01*
X0141300Y0180071D02*
X0139099Y0180071D01*
X0139099Y0178603D02*
X0139099Y0183007D01*
X0141300Y0183007D01*
X0142034Y0182273D01*
X0142034Y0180805D01*
X0141300Y0180071D01*
X0142034Y0186103D02*
X0142034Y0189039D01*
X0140566Y0190507D01*
X0139099Y0189039D01*
X0139099Y0186103D01*
X0139099Y0188305D02*
X0142034Y0188305D01*
X0143702Y0188305D02*
X0144436Y0189039D01*
X0146638Y0189039D01*
X0146638Y0190507D02*
X0146638Y0186103D01*
X0144436Y0186103D01*
X0143702Y0186837D01*
X0143702Y0188305D01*
X0145170Y0192135D02*
X0145904Y0192135D01*
X0146638Y0192869D01*
X0146638Y0196539D01*
X0148306Y0196539D02*
X0148306Y0193603D01*
X0146638Y0193603D02*
X0144436Y0193603D01*
X0143702Y0194337D01*
X0143702Y0196539D01*
X0142034Y0197273D02*
X0141300Y0198007D01*
X0139833Y0198007D01*
X0139099Y0197273D01*
X0139099Y0196539D01*
X0139833Y0195805D01*
X0141300Y0195805D01*
X0142034Y0195071D01*
X0142034Y0194337D01*
X0141300Y0193603D01*
X0139833Y0193603D01*
X0139099Y0194337D01*
X0148306Y0196539D02*
X0150508Y0196539D01*
X0151242Y0195805D01*
X0151242Y0193603D01*
X0152910Y0194337D02*
X0153644Y0195071D01*
X0155846Y0195071D01*
X0155846Y0195805D02*
X0155846Y0193603D01*
X0153644Y0193603D01*
X0152910Y0194337D01*
X0153644Y0196539D02*
X0155112Y0196539D01*
X0155846Y0195805D01*
X0155112Y0189039D02*
X0152910Y0189039D01*
X0152910Y0184635D01*
X0152910Y0186103D02*
X0155112Y0186103D01*
X0155846Y0186837D01*
X0155846Y0188305D01*
X0155112Y0189039D01*
X0157514Y0189039D02*
X0158982Y0189039D01*
X0151242Y0188305D02*
X0151242Y0186103D01*
X0149040Y0186103D01*
X0148306Y0186837D01*
X0149040Y0187571D01*
X0151242Y0187571D01*
X0151242Y0188305D02*
X0150508Y0189039D01*
X0149040Y0189039D01*
X0190409Y0195805D02*
X0191143Y0196539D01*
X0191143Y0197273D01*
X0190409Y0198007D01*
X0224891Y0169039D02*
X0226359Y0170507D01*
X0226359Y0166103D01*
X0224891Y0166103D02*
X0227827Y0166103D01*
X0229495Y0166837D02*
X0230229Y0166103D01*
X0231696Y0166103D01*
X0232430Y0166837D01*
X0232430Y0167571D01*
X0231696Y0168305D01*
X0230963Y0168305D01*
X0231696Y0168305D02*
X0232430Y0169039D01*
X0232430Y0169773D01*
X0231696Y0170507D01*
X0230229Y0170507D01*
X0229495Y0169773D01*
X0238125Y0083007D02*
X0239593Y0083007D01*
X0240327Y0082273D01*
X0240327Y0081539D01*
X0239593Y0080805D01*
X0240327Y0080071D01*
X0240327Y0079337D01*
X0239593Y0078603D01*
X0238125Y0078603D01*
X0237391Y0079337D01*
X0238859Y0080805D02*
X0239593Y0080805D01*
X0241995Y0081539D02*
X0242729Y0080805D01*
X0244930Y0080805D01*
X0244930Y0079337D02*
X0244930Y0082273D01*
X0244196Y0083007D01*
X0242729Y0083007D01*
X0241995Y0082273D01*
X0241995Y0081539D01*
X0241995Y0079337D02*
X0242729Y0078603D01*
X0244196Y0078603D01*
X0244930Y0079337D01*
X0238125Y0083007D02*
X0237391Y0082273D01*
X0238008Y0065507D02*
X0235806Y0065507D01*
X0235806Y0061103D01*
X0238008Y0061103D01*
X0238742Y0061837D01*
X0238742Y0064773D01*
X0238008Y0065507D01*
X0234138Y0065507D02*
X0234138Y0061103D01*
X0231202Y0065507D01*
X0231202Y0061103D01*
X0229534Y0061837D02*
X0229534Y0063305D01*
X0228066Y0063305D01*
X0226599Y0061837D02*
X0227333Y0061103D01*
X0228800Y0061103D01*
X0229534Y0061837D01*
X0226599Y0061837D02*
X0226599Y0064773D01*
X0227333Y0065507D01*
X0228800Y0065507D01*
X0229534Y0064773D01*
D11*
X0231342Y0068303D02*
X0235602Y0068303D01*
X0239539Y0068303D02*
X0243799Y0068303D01*
X0243799Y0065272D01*
X0243799Y0061335D02*
X0243799Y0058303D01*
X0239539Y0058303D01*
X0235602Y0058303D02*
X0231342Y0058303D01*
X0227405Y0058303D02*
X0223145Y0058303D01*
X0219208Y0058303D02*
X0214948Y0058303D01*
X0211011Y0058303D02*
X0206751Y0058303D01*
X0202814Y0058303D02*
X0198554Y0058303D01*
X0194617Y0058303D02*
X0190358Y0058303D01*
X0186421Y0058303D02*
X0182161Y0058303D01*
X0178224Y0058303D02*
X0173964Y0058303D01*
X0170027Y0058303D02*
X0165767Y0058303D01*
X0161830Y0058303D02*
X0157570Y0058303D01*
X0153633Y0058303D02*
X0149373Y0058303D01*
X0145436Y0058303D02*
X0141177Y0058303D01*
X0137239Y0058303D02*
X0132980Y0058303D01*
X0129043Y0058303D02*
X0124783Y0058303D01*
X0120846Y0058303D02*
X0116586Y0058303D01*
X0112649Y0058303D02*
X0108389Y0058303D01*
X0104452Y0058303D02*
X0100192Y0058303D01*
X0096255Y0058303D02*
X0091995Y0058303D01*
X0088058Y0058303D02*
X0083799Y0058303D01*
X0083799Y0061335D01*
X0083799Y0065272D02*
X0083799Y0068303D01*
X0088058Y0068303D01*
X0091995Y0068303D02*
X0096255Y0068303D01*
X0100192Y0068303D02*
X0104452Y0068303D01*
X0108389Y0068303D02*
X0112649Y0068303D01*
X0116586Y0068303D02*
X0120846Y0068303D01*
X0124783Y0068303D02*
X0129043Y0068303D01*
X0132980Y0068303D02*
X0137239Y0068303D01*
X0141177Y0068303D02*
X0145436Y0068303D01*
X0149373Y0068303D02*
X0153633Y0068303D01*
X0157570Y0068303D02*
X0161830Y0068303D01*
X0165767Y0068303D02*
X0170027Y0068303D01*
X0173964Y0068303D02*
X0178224Y0068303D01*
X0182161Y0068303D02*
X0186421Y0068303D01*
X0190358Y0068303D02*
X0194617Y0068303D01*
X0198554Y0068303D02*
X0202814Y0068303D01*
X0206751Y0068303D02*
X0211011Y0068303D01*
X0214948Y0068303D02*
X0219208Y0068303D01*
X0223145Y0068303D02*
X0227405Y0068303D01*
X0213799Y0138303D02*
X0209634Y0138303D01*
X0205697Y0138303D02*
X0201532Y0138303D01*
X0197595Y0138303D02*
X0193430Y0138303D01*
X0189493Y0138303D02*
X0185328Y0138303D01*
X0181391Y0138303D02*
X0177226Y0138303D01*
X0173289Y0138303D02*
X0169124Y0138303D01*
X0165187Y0138303D02*
X0161022Y0138303D01*
X0157085Y0138303D02*
X0152920Y0138303D01*
X0148983Y0138303D02*
X0144818Y0138303D01*
X0140881Y0138303D02*
X0136716Y0138303D01*
X0132779Y0138303D02*
X0128614Y0138303D01*
X0124677Y0138303D02*
X0120512Y0138303D01*
X0116575Y0138303D02*
X0112410Y0138303D01*
X0108473Y0138303D02*
X0104308Y0138303D01*
X0100371Y0138303D02*
X0096206Y0138303D01*
X0092269Y0138303D02*
X0088104Y0138303D01*
X0084167Y0138303D02*
X0080002Y0138303D01*
X0076065Y0138303D02*
X0071900Y0138303D01*
X0067963Y0138303D02*
X0063799Y0138303D01*
X0063799Y0141335D01*
X0063799Y0145272D02*
X0063799Y0148303D01*
X0063799Y0151335D01*
X0063799Y0148303D02*
X0067858Y0148303D01*
X0071795Y0148303D02*
X0075855Y0148303D01*
X0079792Y0148303D02*
X0083851Y0148303D01*
X0087788Y0148303D02*
X0091848Y0148303D01*
X0095785Y0148303D02*
X0099844Y0148303D01*
X0103781Y0148303D02*
X0107841Y0148303D01*
X0111778Y0148303D02*
X0115837Y0148303D01*
X0119774Y0148303D02*
X0123834Y0148303D01*
X0127771Y0148303D02*
X0131830Y0148303D01*
X0135767Y0148303D02*
X0139827Y0148303D01*
X0143764Y0148303D02*
X0147823Y0148303D01*
X0151760Y0148303D02*
X0155820Y0148303D01*
X0159757Y0148303D02*
X0163816Y0148303D01*
X0167753Y0148303D02*
X0171813Y0148303D01*
X0175750Y0148303D02*
X0179809Y0148303D01*
X0183746Y0148303D02*
X0187806Y0148303D01*
X0191743Y0148303D02*
X0195802Y0148303D01*
X0199739Y0148303D02*
X0203799Y0148303D01*
X0203799Y0151335D01*
X0203799Y0148303D02*
X0206830Y0148303D01*
X0210767Y0148303D02*
X0213799Y0148303D01*
X0213799Y0145272D01*
X0213799Y0141335D02*
X0213799Y0138303D01*
X0203799Y0155272D02*
X0203799Y0158303D01*
X0199739Y0158303D01*
X0195802Y0158303D02*
X0191743Y0158303D01*
X0187806Y0158303D02*
X0183746Y0158303D01*
X0179809Y0158303D02*
X0175750Y0158303D01*
X0171813Y0158303D02*
X0167753Y0158303D01*
X0163816Y0158303D02*
X0159757Y0158303D01*
X0155820Y0158303D02*
X0151760Y0158303D01*
X0147823Y0158303D02*
X0143764Y0158303D01*
X0139827Y0158303D02*
X0135767Y0158303D01*
X0131830Y0158303D02*
X0127771Y0158303D01*
X0123834Y0158303D02*
X0119774Y0158303D01*
X0115837Y0158303D02*
X0111778Y0158303D01*
X0107841Y0158303D02*
X0103781Y0158303D01*
X0099844Y0158303D02*
X0095785Y0158303D01*
X0091848Y0158303D02*
X0087788Y0158303D01*
X0083851Y0158303D02*
X0079792Y0158303D01*
X0075855Y0158303D02*
X0071795Y0158303D01*
X0067858Y0158303D02*
X0063799Y0158303D01*
X0063799Y0155272D01*
D12*
X0170810Y0232511D02*
X0169084Y0235546D01*
X0173598Y0213846D02*
X0173351Y0213767D01*
X0173017Y0213601D02*
X0173001Y0213568D01*
X0172989Y0213533D01*
X0172980Y0213497D01*
X0172975Y0213460D01*
X0173017Y0213601D02*
X0173038Y0213624D01*
X0173060Y0213644D01*
X0173085Y0213662D01*
X0173112Y0213677D01*
X0173140Y0213689D01*
X0173017Y0212800D02*
X0173044Y0212793D01*
X0173071Y0212789D01*
X0173098Y0212788D01*
X0173125Y0212789D01*
X0173017Y0212800D02*
X0173006Y0212826D01*
X0172998Y0212854D01*
X0172994Y0212882D01*
X0173847Y0212810D02*
X0173874Y0212811D01*
X0173901Y0212810D01*
X0173928Y0212806D01*
X0173955Y0212799D01*
X0172963Y0213261D02*
X0172964Y0213327D01*
X0172968Y0213394D01*
X0172975Y0213460D01*
X0173990Y0214049D02*
X0174017Y0214090D01*
X0174040Y0214132D01*
X0174060Y0214176D01*
X0174077Y0214221D01*
X0174091Y0214267D01*
X0173989Y0214050D02*
X0173960Y0214022D01*
X0173930Y0213997D01*
X0173897Y0213974D01*
X0173863Y0213954D01*
X0173828Y0213937D01*
X0174391Y0215439D02*
X0174423Y0215453D01*
X0174457Y0215464D01*
X0174491Y0215471D01*
X0174526Y0215475D01*
X0175309Y0215438D02*
X0175316Y0215397D01*
X0175320Y0215356D01*
X0175321Y0215314D01*
X0175319Y0215273D01*
X0175309Y0215438D02*
X0175285Y0215447D01*
X0175260Y0215453D01*
X0175236Y0215458D01*
X0175210Y0215460D01*
X0174391Y0215439D02*
X0174372Y0215411D01*
X0174355Y0215381D01*
X0174342Y0215349D01*
X0174331Y0215316D01*
X0174324Y0215282D01*
X0167620Y0212458D02*
X0167561Y0212591D01*
X0167505Y0212726D01*
X0167452Y0212862D01*
X0167402Y0212999D01*
X0167354Y0213137D01*
X0167309Y0213276D01*
X0167282Y0213407D02*
X0167300Y0213425D01*
X0167320Y0213440D01*
X0167341Y0213454D01*
X0167363Y0213465D01*
X0167282Y0213407D02*
X0167285Y0213374D01*
X0167290Y0213341D01*
X0167298Y0213308D01*
X0167309Y0213277D01*
X0167685Y0212342D02*
X0167718Y0212346D01*
X0167750Y0212352D01*
X0167782Y0212362D01*
X0167812Y0212374D01*
X0167685Y0212342D02*
X0167665Y0212368D01*
X0167647Y0212397D01*
X0167632Y0212426D01*
X0167619Y0212457D01*
X0177201Y0212929D02*
X0177208Y0213107D01*
X0177212Y0213284D01*
X0177212Y0213462D01*
X0177208Y0213639D01*
X0177201Y0213817D01*
X0177184Y0212800D02*
X0177133Y0212793D01*
X0177082Y0212789D01*
X0177031Y0212788D01*
X0176979Y0212790D01*
X0176979Y0213955D02*
X0177031Y0213957D01*
X0177082Y0213956D01*
X0177133Y0213952D01*
X0177184Y0213945D01*
X0177184Y0213946D02*
X0177192Y0213914D01*
X0177197Y0213882D01*
X0177200Y0213849D01*
X0177201Y0213816D01*
X0177201Y0212929D02*
X0177200Y0212896D01*
X0177197Y0212863D01*
X0177192Y0212831D01*
X0177184Y0212799D01*
X0175309Y0212800D02*
X0175301Y0212725D01*
X0175295Y0212650D01*
X0175292Y0212574D01*
X0175293Y0212499D01*
X0175309Y0212800D02*
X0175360Y0212807D01*
X0175411Y0212811D01*
X0175463Y0212812D01*
X0175514Y0212810D01*
X0172994Y0212882D02*
X0172981Y0212976D01*
X0172971Y0213071D01*
X0172965Y0213166D01*
X0172963Y0213261D01*
X0173955Y0212800D02*
X0173961Y0212722D01*
X0173964Y0212644D01*
X0173965Y0212567D01*
X0173962Y0212489D01*
X0173351Y0213767D02*
X0173279Y0213744D01*
X0173209Y0213718D01*
X0173140Y0213689D01*
X0172067Y0207016D02*
X0171929Y0207007D01*
X0171791Y0207001D01*
X0171652Y0206998D01*
X0171514Y0206997D01*
X0171113Y0207036D02*
X0171099Y0207058D01*
X0171087Y0207083D01*
X0171079Y0207108D01*
X0171075Y0207134D01*
X0171113Y0207036D02*
X0171146Y0207023D01*
X0171181Y0207014D01*
X0171216Y0207009D01*
X0171251Y0207007D01*
X0170931Y0207718D02*
X0170945Y0207730D01*
X0170960Y0207739D01*
X0170977Y0207746D01*
X0170994Y0207750D01*
X0171004Y0207733D01*
X0171012Y0207715D01*
X0171016Y0207695D01*
X0171017Y0207676D01*
X0177276Y0208107D02*
X0177287Y0207971D01*
X0177295Y0207836D01*
X0177300Y0207701D01*
X0177301Y0207565D01*
X0177254Y0207150D02*
X0177235Y0207130D01*
X0177214Y0207113D01*
X0177191Y0207099D01*
X0177167Y0207087D01*
X0177253Y0207150D02*
X0177265Y0207178D01*
X0177275Y0207208D01*
X0177282Y0207239D01*
X0177287Y0207269D01*
X0177289Y0207301D01*
X0177253Y0208220D02*
X0177228Y0208224D01*
X0177204Y0208225D01*
X0177179Y0208223D01*
X0177154Y0208219D01*
X0177253Y0208221D02*
X0177263Y0208193D01*
X0177270Y0208165D01*
X0177274Y0208136D01*
X0177276Y0208107D01*
X0177167Y0207086D02*
X0177120Y0207065D01*
X0177072Y0207047D01*
X0177024Y0207031D01*
X0178191Y0207036D02*
X0178228Y0207028D01*
X0178265Y0207023D01*
X0178303Y0207020D01*
X0178342Y0207019D01*
X0179394Y0207019D02*
X0179433Y0207020D01*
X0179471Y0207023D01*
X0179508Y0207028D01*
X0179545Y0207036D01*
X0179476Y0224363D02*
X0179830Y0224393D01*
X0180184Y0224416D01*
X0180107Y0226533D02*
X0180174Y0226541D01*
X0180242Y0226547D01*
X0180309Y0226550D01*
X0181685Y0220984D02*
X0181803Y0221005D01*
X0181919Y0221028D01*
X0182035Y0221055D01*
X0182150Y0221085D01*
X0182265Y0221117D01*
X0182265Y0221118D02*
X0182284Y0221123D01*
X0182302Y0221131D01*
X0182319Y0221141D01*
X0182336Y0221152D01*
X0182335Y0221151D02*
X0182337Y0221177D01*
X0182336Y0221202D01*
X0182333Y0221227D01*
X0182327Y0221252D01*
X0181641Y0222751D02*
X0181577Y0222768D01*
X0181513Y0222781D01*
X0181448Y0222791D01*
X0181382Y0222797D01*
X0181316Y0222800D01*
X0181444Y0226582D02*
X0181537Y0226578D01*
X0181631Y0226572D01*
X0181724Y0226564D01*
X0181817Y0226554D01*
X0182275Y0226424D02*
X0182293Y0226402D01*
X0182308Y0226378D01*
X0182322Y0226354D01*
X0182334Y0226328D01*
X0182274Y0226424D02*
X0182255Y0226442D01*
X0182233Y0226458D01*
X0182209Y0226471D01*
X0182184Y0226480D01*
X0182333Y0226327D02*
X0182348Y0226288D01*
X0182360Y0226247D01*
X0182371Y0226207D01*
X0182563Y0224538D02*
X0182515Y0224525D01*
X0182465Y0224516D01*
X0182416Y0224509D01*
X0182366Y0224506D01*
X0182316Y0224505D01*
X0182564Y0224538D02*
X0182574Y0224552D01*
X0182583Y0224567D01*
X0182589Y0224583D01*
X0182594Y0224600D01*
X0182601Y0224632D01*
X0182606Y0224665D01*
X0182610Y0224699D01*
X0182184Y0226480D02*
X0182094Y0226503D01*
X0182002Y0226523D01*
X0181910Y0226540D01*
X0181818Y0226553D01*
X0174312Y0225928D02*
X0174298Y0225766D01*
X0174288Y0225604D01*
X0174490Y0226410D02*
X0174537Y0226432D01*
X0174584Y0226451D01*
X0174632Y0226468D01*
X0174682Y0226481D01*
X0174732Y0226491D01*
X0174406Y0226341D02*
X0174390Y0226313D01*
X0174376Y0226283D01*
X0174364Y0226253D01*
X0174355Y0226222D01*
X0174349Y0226190D01*
X0174407Y0226341D02*
X0174425Y0226361D01*
X0174446Y0226380D01*
X0174468Y0226396D01*
X0174491Y0226411D01*
X0176936Y0208188D02*
X0176640Y0208141D01*
X0176344Y0208099D01*
X0176073Y0208077D02*
X0176027Y0208078D01*
X0175981Y0208083D01*
X0175936Y0208091D01*
X0175891Y0208102D01*
X0175848Y0208117D01*
X0175805Y0208135D01*
X0175765Y0208157D01*
X0175726Y0208181D01*
X0174559Y0207349D02*
X0174504Y0207396D01*
X0174452Y0207447D01*
X0174402Y0207500D01*
X0174355Y0207555D01*
X0174311Y0207613D01*
X0174270Y0207673D01*
X0174233Y0207735D01*
X0174198Y0207799D01*
X0177301Y0207565D02*
X0177300Y0207477D01*
X0177296Y0207389D01*
X0177290Y0207301D01*
X0174198Y0207800D02*
X0174157Y0207882D01*
X0174120Y0207965D01*
X0174087Y0208049D01*
X0174057Y0208135D01*
X0174030Y0208222D01*
X0174007Y0208310D01*
X0173988Y0208399D01*
X0173973Y0208488D01*
X0134907Y0230334D02*
X0135311Y0231075D01*
X0135730Y0231808D01*
X0135768Y0217317D02*
X0135508Y0217280D01*
X0135248Y0217248D01*
X0134987Y0217221D01*
X0134725Y0217200D01*
X0136247Y0226307D02*
X0136468Y0226268D01*
X0136689Y0226224D01*
X0136909Y0226175D01*
X0137128Y0226120D01*
X0137345Y0226060D01*
X0137560Y0225995D01*
X0137774Y0225925D01*
X0138289Y0222419D02*
X0138194Y0222375D01*
X0138098Y0222335D01*
X0137493Y0221999D02*
X0137491Y0221977D01*
X0137492Y0221954D01*
X0137497Y0221932D01*
X0137506Y0221911D01*
X0137506Y0221910D02*
X0137512Y0221899D01*
X0137521Y0221888D01*
X0137531Y0221880D01*
X0137494Y0222000D02*
X0137497Y0222016D01*
X0137502Y0222032D01*
X0137510Y0222047D01*
X0137520Y0222060D01*
X0137532Y0222072D01*
X0137531Y0222072D02*
X0137589Y0222109D01*
X0137649Y0222144D01*
X0137711Y0222175D01*
X0138289Y0222420D02*
X0138351Y0222452D01*
X0138412Y0222487D01*
X0138471Y0222525D01*
X0138528Y0222567D01*
X0138582Y0222611D01*
X0138635Y0222658D01*
X0138684Y0222708D01*
X0139047Y0223186D02*
X0139070Y0223232D01*
X0139090Y0223278D01*
X0139106Y0223326D01*
X0139119Y0223375D01*
X0139128Y0223425D01*
X0137760Y0221746D02*
X0137682Y0221788D01*
X0137606Y0221833D01*
X0137531Y0221880D01*
X0139365Y0219043D02*
X0139306Y0218970D01*
X0139244Y0218900D01*
X0139179Y0218832D01*
X0139476Y0219223D02*
X0139490Y0219263D01*
X0139502Y0219304D01*
X0139511Y0219346D01*
X0139518Y0219388D01*
X0137902Y0222258D02*
X0137806Y0222218D01*
X0137711Y0222175D01*
X0138203Y0225719D02*
X0138121Y0225767D01*
X0138037Y0225811D01*
X0137951Y0225853D01*
X0137863Y0225890D01*
X0137774Y0225925D01*
X0129838Y0225609D02*
X0129826Y0225449D01*
X0129818Y0225290D01*
X0129814Y0225130D01*
X0129838Y0225609D02*
X0129842Y0225666D01*
X0129850Y0225723D01*
X0129861Y0225779D01*
X0129875Y0225835D01*
X0129893Y0225890D01*
X0130248Y0226324D02*
X0130291Y0226356D01*
X0130337Y0226385D01*
X0130384Y0226411D01*
X0130433Y0226434D01*
X0130483Y0226453D01*
X0130534Y0226469D01*
X0130587Y0226481D01*
X0130248Y0226323D02*
X0130199Y0226283D01*
X0130152Y0226242D01*
X0130108Y0226197D01*
X0130065Y0226151D01*
X0130025Y0226102D01*
X0129988Y0226052D01*
X0129953Y0225999D01*
X0129921Y0225945D01*
X0129892Y0225890D01*
X0157913Y0226307D02*
X0157950Y0225756D01*
X0157975Y0225204D01*
X0153577Y0226158D02*
X0153544Y0226047D01*
X0153513Y0225935D01*
X0153485Y0225822D01*
X0153460Y0225709D01*
X0153438Y0225595D01*
X0153418Y0225480D01*
X0153691Y0226414D02*
X0153709Y0226440D01*
X0153729Y0226463D01*
X0153752Y0226486D01*
X0153776Y0226506D01*
X0153775Y0226506D02*
X0153795Y0226519D01*
X0153817Y0226530D01*
X0153839Y0226539D01*
X0153862Y0226546D01*
X0153885Y0226550D01*
X0153690Y0226414D02*
X0153666Y0226375D01*
X0153645Y0226334D01*
X0153626Y0226292D01*
X0153600Y0226226D01*
X0153577Y0226158D01*
X0167872Y0221186D02*
X0167831Y0220907D01*
X0167785Y0220629D01*
X0167733Y0220352D01*
X0168226Y0217348D02*
X0168318Y0217353D01*
X0168409Y0217360D01*
X0168500Y0217370D01*
X0182071Y0219026D02*
X0182126Y0218734D01*
X0182175Y0218441D01*
X0182219Y0218147D01*
X0181960Y0219364D02*
X0181892Y0219373D01*
X0181824Y0219378D01*
X0181756Y0219380D01*
X0181687Y0219379D01*
X0181619Y0219374D01*
X0181960Y0219365D02*
X0181979Y0219339D01*
X0181994Y0219311D01*
X0182006Y0219282D01*
X0182014Y0219252D01*
X0174476Y0218181D02*
X0174442Y0218342D01*
X0174412Y0218503D01*
X0174385Y0218665D01*
X0174362Y0218828D01*
X0174343Y0218991D01*
X0174327Y0219154D01*
X0174316Y0219318D01*
X0173352Y0212794D02*
X0173239Y0212791D01*
X0173125Y0212789D01*
X0174527Y0215475D02*
X0174641Y0215482D01*
X0174755Y0215485D01*
X0174869Y0215484D01*
X0174984Y0215480D01*
X0175097Y0215472D01*
X0175211Y0215461D01*
X0175309Y0213946D02*
X0175360Y0213939D01*
X0175411Y0213935D01*
X0175462Y0213934D01*
X0175514Y0213936D01*
X0175309Y0213946D02*
X0175302Y0213987D01*
X0175298Y0214028D01*
X0175297Y0214070D01*
X0175299Y0214111D01*
X0173828Y0213937D02*
X0173753Y0213903D01*
X0173676Y0213873D01*
X0173598Y0213846D01*
X0171964Y0212947D02*
X0171934Y0213010D01*
X0171902Y0213072D01*
X0171866Y0213133D01*
X0171828Y0213191D01*
X0171787Y0213248D01*
X0171744Y0213302D01*
X0171697Y0213355D01*
X0171004Y0213842D02*
X0170938Y0213871D01*
X0170871Y0213897D01*
X0170803Y0213919D01*
X0170734Y0213939D01*
X0170664Y0213956D01*
X0170594Y0213970D01*
X0174091Y0214267D02*
X0174123Y0214379D01*
X0174152Y0214492D01*
X0174178Y0214606D01*
X0174838Y0217348D02*
X0174812Y0217368D01*
X0174789Y0217391D01*
X0174768Y0217416D01*
X0174749Y0217443D01*
X0174749Y0217444D02*
X0174718Y0217494D01*
X0174690Y0217546D01*
X0174665Y0217599D01*
X0174838Y0217348D02*
X0174934Y0217334D01*
X0175031Y0217323D01*
X0175128Y0217315D01*
X0175225Y0217311D01*
X0175322Y0217310D01*
X0175420Y0217312D01*
X0174665Y0217598D02*
X0174627Y0217693D01*
X0174591Y0217789D01*
X0174558Y0217886D01*
X0174528Y0217984D01*
X0174500Y0218082D01*
X0174475Y0218181D01*
X0182281Y0221470D02*
X0182228Y0221682D01*
X0182171Y0221894D01*
X0182110Y0222104D01*
X0182045Y0222313D01*
X0181946Y0222543D02*
X0181928Y0222570D01*
X0181908Y0222595D01*
X0181886Y0222619D01*
X0181862Y0222641D01*
X0181836Y0222661D01*
X0181837Y0222660D02*
X0181800Y0222683D01*
X0181762Y0222704D01*
X0181722Y0222722D01*
X0181682Y0222737D01*
X0181640Y0222750D01*
X0145656Y0218806D02*
X0145602Y0219333D01*
X0145555Y0219860D01*
X0160854Y0219346D02*
X0160852Y0219064D01*
X0160846Y0218783D01*
X0160834Y0218501D01*
X0160816Y0218220D01*
X0160680Y0217528D02*
X0160637Y0217500D01*
X0160592Y0217474D01*
X0160545Y0217452D01*
X0160497Y0217433D01*
X0160448Y0217418D01*
X0160680Y0217529D02*
X0160699Y0217547D01*
X0160717Y0217566D01*
X0160732Y0217588D01*
X0160744Y0217611D01*
X0160753Y0217636D01*
X0160760Y0217661D01*
X0162393Y0217487D02*
X0162396Y0217469D01*
X0162402Y0217451D01*
X0162409Y0217435D01*
X0162425Y0217410D01*
X0162444Y0217387D01*
X0162466Y0217367D01*
X0162489Y0217349D01*
X0162515Y0217335D01*
X0162543Y0217324D01*
X0162572Y0217317D01*
X0162601Y0217313D01*
X0161061Y0207019D02*
X0160798Y0207011D01*
X0160535Y0207008D01*
X0160272Y0207011D01*
X0160009Y0207019D01*
X0159970Y0207020D01*
X0159932Y0207023D01*
X0159895Y0207028D01*
X0159858Y0207036D01*
X0161212Y0207036D02*
X0161219Y0207116D01*
X0161223Y0207195D01*
X0161224Y0207275D01*
X0161222Y0207355D01*
X0161211Y0207036D02*
X0161174Y0207028D01*
X0161137Y0207023D01*
X0161099Y0207020D01*
X0161060Y0207019D01*
X0160163Y0220648D02*
X0159917Y0220638D01*
X0159670Y0220624D01*
X0145554Y0219860D02*
X0145534Y0220124D01*
X0145520Y0220388D01*
X0145510Y0220653D01*
X0145505Y0220917D01*
X0149890Y0225739D02*
X0149772Y0225846D01*
X0149651Y0225950D01*
X0149528Y0226051D01*
X0142568Y0217697D02*
X0142393Y0217834D01*
X0143229Y0212789D02*
X0143343Y0212791D01*
X0143456Y0212794D01*
X0143122Y0212799D02*
X0143111Y0212825D01*
X0143103Y0212851D01*
X0143098Y0212879D01*
X0143121Y0212800D02*
X0143148Y0212793D01*
X0143175Y0212789D01*
X0143202Y0212788D01*
X0143229Y0212789D01*
X0143121Y0213581D02*
X0143142Y0213604D01*
X0143165Y0213625D01*
X0143190Y0213644D01*
X0143216Y0213659D01*
X0143244Y0213672D01*
X0143122Y0213581D02*
X0143106Y0213548D01*
X0143094Y0213513D01*
X0143085Y0213477D01*
X0143079Y0213441D01*
X0140891Y0213649D02*
X0140889Y0213723D01*
X0140890Y0213798D01*
X0140893Y0213872D01*
X0140900Y0213946D01*
X0140900Y0213945D02*
X0140937Y0213953D01*
X0140974Y0213958D01*
X0141012Y0213961D01*
X0141051Y0213962D01*
X0141223Y0207008D02*
X0141403Y0207001D01*
X0141583Y0206998D01*
X0141763Y0207000D01*
X0141944Y0207005D01*
X0142124Y0207016D01*
X0142125Y0207016D02*
X0142157Y0207017D01*
X0142190Y0207021D01*
X0142222Y0207027D01*
X0142254Y0207036D01*
X0141046Y0207120D02*
X0141040Y0207170D01*
X0141035Y0207220D01*
X0141031Y0207270D01*
X0140913Y0207603D02*
X0140932Y0207617D01*
X0140952Y0207629D01*
X0140974Y0207637D01*
X0140997Y0207643D01*
X0140996Y0207642D02*
X0141005Y0207627D01*
X0141011Y0207611D01*
X0141014Y0207594D01*
X0141015Y0207577D01*
X0141077Y0207036D02*
X0141113Y0207024D01*
X0141149Y0207015D01*
X0141186Y0207010D01*
X0141223Y0207009D01*
X0141077Y0207036D02*
X0141065Y0207055D01*
X0141056Y0207076D01*
X0141049Y0207098D01*
X0141046Y0207121D01*
X0147405Y0207565D02*
X0147404Y0207700D01*
X0147399Y0207835D01*
X0147391Y0207971D01*
X0147380Y0208106D01*
X0147357Y0208218D02*
X0147330Y0208223D01*
X0147302Y0208224D01*
X0147274Y0208223D01*
X0147246Y0208219D01*
X0147358Y0208219D02*
X0147367Y0208191D01*
X0147374Y0208163D01*
X0147378Y0208134D01*
X0147380Y0208105D01*
X0147271Y0207087D02*
X0147224Y0207067D01*
X0147177Y0207049D01*
X0147128Y0207034D01*
X0147271Y0207088D02*
X0147295Y0207100D01*
X0147317Y0207114D01*
X0147338Y0207131D01*
X0147357Y0207150D01*
X0147369Y0207179D01*
X0147379Y0207208D01*
X0147386Y0207239D01*
X0147391Y0207270D01*
X0147393Y0207301D01*
X0146464Y0226848D02*
X0146011Y0226859D01*
X0145557Y0226859D01*
X0145103Y0226848D01*
X0144649Y0226828D01*
X0144649Y0226826D02*
X0144582Y0226822D01*
X0144515Y0226814D01*
X0144449Y0226804D01*
X0144369Y0226789D01*
X0144290Y0226771D01*
X0144211Y0226750D01*
X0144133Y0226726D01*
X0144056Y0226700D01*
X0143309Y0226374D02*
X0143233Y0226332D01*
X0143158Y0226288D01*
X0143085Y0226241D01*
X0143013Y0226191D01*
X0142943Y0226140D01*
X0142875Y0226085D01*
X0142809Y0226029D01*
X0138000Y0221631D02*
X0137879Y0221686D01*
X0137760Y0221745D01*
X0138701Y0218414D02*
X0138619Y0218352D01*
X0138534Y0218294D01*
X0138448Y0218239D01*
X0138359Y0218187D01*
X0138269Y0218138D01*
X0138176Y0218093D01*
X0139518Y0219387D02*
X0139523Y0219446D01*
X0139526Y0219505D01*
X0139525Y0219563D01*
X0139522Y0219622D01*
X0139516Y0219681D01*
X0139506Y0219739D01*
X0188915Y0217764D02*
X0188944Y0218541D01*
X0188883Y0217419D02*
X0188812Y0217404D01*
X0188740Y0217394D01*
X0188668Y0217387D01*
X0188596Y0217384D01*
X0188884Y0217419D02*
X0188896Y0217488D01*
X0188904Y0217556D01*
X0188910Y0217625D01*
X0188914Y0217694D01*
X0188915Y0217764D01*
X0191975Y0226029D02*
X0192154Y0225978D01*
X0192332Y0225922D01*
X0192508Y0225863D01*
X0193801Y0224981D02*
X0193832Y0224927D01*
X0193860Y0224871D01*
X0193885Y0224814D01*
X0193801Y0224980D02*
X0193761Y0225040D01*
X0193719Y0225098D01*
X0193675Y0225154D01*
X0193628Y0225208D01*
X0193578Y0225260D01*
X0193526Y0225309D01*
X0193471Y0225355D01*
X0193415Y0225399D01*
X0194093Y0223459D02*
X0194086Y0223375D01*
X0194076Y0223291D01*
X0194062Y0223208D01*
X0194043Y0223125D01*
X0194022Y0223044D01*
X0158018Y0221890D02*
X0158031Y0221338D01*
X0158052Y0220786D01*
X0158107Y0220628D02*
X0158119Y0220612D01*
X0158134Y0220599D01*
X0158152Y0220588D01*
X0158171Y0220581D01*
X0158191Y0220577D01*
X0158107Y0220629D02*
X0158092Y0220653D01*
X0158079Y0220678D01*
X0158068Y0220704D01*
X0158060Y0220731D01*
X0158055Y0220758D01*
X0158052Y0220786D01*
X0145506Y0220918D02*
X0145510Y0221201D01*
X0145520Y0221483D01*
X0145536Y0221766D01*
X0145558Y0222048D01*
X0151530Y0222483D02*
X0151544Y0222330D01*
X0151555Y0222177D01*
X0151562Y0222023D01*
X0151565Y0221870D01*
X0151564Y0221716D01*
X0151559Y0221562D01*
X0151550Y0221409D01*
X0151537Y0221256D01*
X0151521Y0221103D01*
X0167947Y0222105D02*
X0167946Y0222500D01*
X0167936Y0222894D01*
X0167917Y0223288D01*
X0167890Y0223682D01*
X0167854Y0224075D01*
X0167809Y0224467D01*
X0167219Y0225230D02*
X0167171Y0225231D01*
X0167122Y0225228D01*
X0167075Y0225221D01*
X0167028Y0225211D01*
X0166981Y0225197D01*
X0166936Y0225180D01*
X0166867Y0225129D02*
X0166855Y0225113D01*
X0166846Y0225096D01*
X0166840Y0225077D01*
X0166836Y0225057D01*
X0166867Y0225129D02*
X0166888Y0225149D01*
X0166911Y0225166D01*
X0166936Y0225180D01*
X0167218Y0225230D02*
X0167263Y0225224D01*
X0167307Y0225215D01*
X0167349Y0225202D01*
X0167391Y0225185D01*
X0167431Y0225165D01*
X0167469Y0225142D01*
X0167506Y0225116D01*
X0167540Y0225087D01*
X0167571Y0225056D01*
X0167600Y0225022D01*
X0167601Y0225022D02*
X0167634Y0224972D01*
X0167665Y0224921D01*
X0167693Y0224868D01*
X0167718Y0224813D01*
X0167741Y0224758D01*
X0167760Y0224701D01*
X0167776Y0224643D01*
X0167790Y0224585D01*
X0167801Y0224526D01*
X0167809Y0224466D01*
X0172392Y0223946D02*
X0172423Y0223833D01*
X0172451Y0223720D01*
X0172476Y0223605D01*
X0172499Y0223490D01*
X0172518Y0223375D01*
X0172534Y0223259D01*
X0172548Y0223143D01*
X0171941Y0224952D02*
X0171898Y0225021D01*
X0171852Y0225089D01*
X0171804Y0225155D01*
X0171754Y0225219D01*
X0170720Y0211291D02*
X0170359Y0211276D01*
X0170875Y0211311D02*
X0170881Y0211334D01*
X0170884Y0211357D01*
X0170886Y0211380D01*
X0170885Y0211403D01*
X0170874Y0211311D02*
X0170837Y0211302D01*
X0170798Y0211295D01*
X0170760Y0211292D01*
X0170721Y0211291D01*
X0172184Y0212070D02*
X0172180Y0212149D01*
X0172172Y0212227D01*
X0172161Y0212304D01*
X0172146Y0212382D01*
X0171514Y0206997D02*
X0171427Y0206998D01*
X0171339Y0207001D01*
X0171252Y0207007D01*
X0172066Y0207016D02*
X0172096Y0207017D01*
X0172126Y0207021D01*
X0172155Y0207028D01*
X0172184Y0207036D01*
X0171075Y0207134D02*
X0171065Y0207193D01*
X0171057Y0207252D01*
X0171051Y0207311D01*
X0168057Y0213762D02*
X0167916Y0213709D01*
X0167775Y0213653D01*
X0167637Y0213593D01*
X0167499Y0213530D01*
X0167363Y0213465D01*
X0155691Y0213946D02*
X0155680Y0213703D01*
X0155674Y0213460D01*
X0155674Y0213217D01*
X0155691Y0213945D02*
X0155722Y0213954D01*
X0155753Y0213960D01*
X0155785Y0213964D01*
X0155817Y0213965D01*
X0156863Y0213861D02*
X0156869Y0213811D01*
X0156874Y0213761D01*
X0156878Y0213711D01*
X0156832Y0213945D02*
X0156798Y0213957D01*
X0156762Y0213966D01*
X0156726Y0213971D01*
X0156690Y0213972D01*
X0156833Y0213946D02*
X0156845Y0213927D01*
X0156854Y0213906D01*
X0156861Y0213884D01*
X0156864Y0213861D01*
X0156993Y0213373D02*
X0156975Y0213360D01*
X0156956Y0213350D01*
X0156935Y0213343D01*
X0156913Y0213339D01*
X0156904Y0213354D01*
X0156898Y0213370D01*
X0156895Y0213387D01*
X0156894Y0213404D01*
X0148115Y0209151D02*
X0148171Y0208977D01*
X0148232Y0208804D01*
X0148295Y0208633D01*
X0144372Y0207695D02*
X0144329Y0207776D01*
X0144289Y0207858D01*
X0144252Y0207941D01*
X0144217Y0208026D01*
X0144185Y0208111D01*
X0144157Y0208198D01*
X0144131Y0208285D01*
X0147404Y0207565D02*
X0147403Y0207477D01*
X0147399Y0207389D01*
X0147393Y0207301D01*
X0146004Y0208112D02*
X0145975Y0208115D01*
X0145947Y0208121D01*
X0145920Y0208129D01*
X0145893Y0208139D01*
X0145868Y0208152D01*
X0144858Y0207209D02*
X0144798Y0207245D01*
X0144741Y0207285D01*
X0144685Y0207327D01*
X0144632Y0207372D01*
X0144581Y0207420D01*
X0144533Y0207470D01*
X0144488Y0207523D01*
X0144445Y0207579D01*
X0144419Y0207617D01*
X0144394Y0207656D01*
X0144372Y0207696D01*
X0133654Y0207297D02*
X0133637Y0207484D01*
X0133502Y0207664D02*
X0133524Y0207680D01*
X0133548Y0207693D01*
X0133573Y0207703D01*
X0133599Y0207711D01*
X0133608Y0207694D01*
X0133615Y0207677D01*
X0133620Y0207658D01*
X0133621Y0207639D01*
X0133718Y0207036D02*
X0133751Y0207023D01*
X0133786Y0207013D01*
X0133821Y0207008D01*
X0133857Y0207006D01*
X0133718Y0207036D02*
X0133703Y0207058D01*
X0133691Y0207081D01*
X0133683Y0207105D01*
X0133678Y0207131D01*
X0134671Y0207016D02*
X0134701Y0207018D01*
X0134730Y0207021D01*
X0134759Y0207028D01*
X0134788Y0207036D01*
X0133679Y0207130D02*
X0133668Y0207185D01*
X0133660Y0207241D01*
X0133654Y0207297D01*
X0131038Y0209878D02*
X0130976Y0209825D01*
X0130916Y0209770D01*
X0130857Y0209713D01*
X0130801Y0209654D01*
X0130691Y0209536D02*
X0130668Y0209506D01*
X0130647Y0209475D01*
X0130629Y0209441D01*
X0130614Y0209407D01*
X0130602Y0209371D01*
X0130594Y0209334D01*
X0130589Y0209296D01*
X0130587Y0209258D01*
X0129198Y0209397D02*
X0129208Y0209468D01*
X0129222Y0209540D01*
X0129238Y0209610D01*
X0129258Y0209680D01*
X0129281Y0209749D01*
X0129308Y0209816D01*
X0129337Y0209883D01*
X0133399Y0209328D02*
X0133416Y0209436D01*
X0133431Y0209545D01*
X0133442Y0209654D01*
X0133451Y0209763D01*
X0133456Y0209873D01*
X0133458Y0209982D01*
X0133453Y0210152D02*
X0133452Y0210172D01*
X0133449Y0210192D01*
X0133444Y0210212D01*
X0133436Y0210231D01*
X0159885Y0210694D02*
X0159877Y0211244D01*
X0159857Y0211793D01*
X0157068Y0211466D02*
X0157057Y0211367D01*
X0157049Y0211268D01*
X0157045Y0211168D01*
X0160556Y0213486D02*
X0160620Y0213389D01*
X0160682Y0213291D01*
X0160738Y0213214D02*
X0160749Y0213202D01*
X0160761Y0213192D01*
X0160775Y0213184D01*
X0160791Y0213178D01*
X0160819Y0213185D01*
X0160847Y0213195D01*
X0160872Y0213208D01*
X0160896Y0213225D01*
X0160739Y0213215D02*
X0160709Y0213252D01*
X0160683Y0213292D01*
X0160656Y0220646D02*
X0160492Y0220650D01*
X0160328Y0220651D01*
X0160163Y0220647D01*
X0160656Y0220647D02*
X0160682Y0220642D01*
X0160707Y0220633D01*
X0160731Y0220621D01*
X0160754Y0220606D01*
X0160774Y0220588D01*
X0160791Y0220568D01*
X0160806Y0220546D01*
X0160818Y0220523D01*
X0160819Y0220523D02*
X0160824Y0220507D01*
X0160828Y0220491D01*
X0160830Y0220474D01*
X0167497Y0219466D02*
X0167545Y0219611D01*
X0167589Y0219758D01*
X0167630Y0219905D01*
X0167668Y0220053D01*
X0167702Y0220202D01*
X0167733Y0220352D01*
X0167288Y0219154D02*
X0167234Y0219134D01*
X0167180Y0219116D01*
X0167125Y0219102D01*
X0167069Y0219090D01*
X0167013Y0219081D01*
X0166756Y0219067D02*
X0166736Y0219068D01*
X0166716Y0219073D01*
X0166698Y0219081D01*
X0167288Y0219154D02*
X0167315Y0219169D01*
X0167339Y0219186D01*
X0167361Y0219207D01*
X0167381Y0219229D01*
X0167399Y0219253D01*
X0167399Y0219254D02*
X0167424Y0219293D01*
X0167447Y0219335D01*
X0167466Y0219378D01*
X0167483Y0219422D01*
X0167497Y0219467D01*
X0167014Y0219081D02*
X0166950Y0219072D01*
X0166885Y0219067D01*
X0166821Y0219065D01*
X0166756Y0219067D01*
X0165227Y0207019D02*
X0164964Y0207011D01*
X0164701Y0207008D01*
X0164438Y0207011D01*
X0164175Y0207019D01*
X0164176Y0207019D02*
X0164137Y0207020D01*
X0164099Y0207023D01*
X0164062Y0207028D01*
X0164025Y0207036D01*
X0165228Y0207019D02*
X0165266Y0207020D01*
X0165304Y0207023D01*
X0165341Y0207028D01*
X0165378Y0207036D01*
X0155691Y0207036D02*
X0155680Y0207279D01*
X0155674Y0207522D01*
X0155674Y0207765D01*
X0155691Y0207036D02*
X0155728Y0207028D01*
X0155765Y0207023D01*
X0155803Y0207020D01*
X0155842Y0207019D01*
X0157045Y0207036D02*
X0157052Y0207113D01*
X0157056Y0207191D01*
X0157057Y0207269D01*
X0157055Y0207347D01*
X0157045Y0207036D02*
X0157008Y0207028D01*
X0156971Y0207023D01*
X0156933Y0207020D01*
X0156894Y0207019D01*
X0156410Y0213983D02*
X0156212Y0213982D01*
X0156014Y0213976D01*
X0155816Y0213966D01*
X0155369Y0226606D02*
X0155121Y0226609D01*
X0154874Y0226608D01*
X0154626Y0226602D01*
X0157601Y0226480D02*
X0157641Y0226476D01*
X0157681Y0226470D01*
X0157721Y0226461D01*
X0157760Y0226450D01*
X0157889Y0226370D02*
X0157898Y0226356D01*
X0157906Y0226340D01*
X0157911Y0226324D01*
X0157914Y0226307D01*
X0157888Y0226370D02*
X0157872Y0226388D01*
X0157854Y0226404D01*
X0157833Y0226417D01*
X0157834Y0226417D02*
X0157810Y0226430D01*
X0157785Y0226441D01*
X0157760Y0226451D01*
X0158190Y0220577D02*
X0158314Y0220572D01*
X0158437Y0220570D01*
X0158560Y0220569D01*
X0158683Y0220571D01*
X0159233Y0217245D02*
X0159369Y0217248D01*
X0159506Y0217256D01*
X0159642Y0217268D01*
X0159778Y0217283D01*
X0159913Y0217303D01*
X0160048Y0217326D01*
X0160182Y0217353D01*
X0160315Y0217384D01*
X0160448Y0217418D01*
X0161087Y0213355D02*
X0160992Y0213289D01*
X0160895Y0213225D01*
X0160556Y0213486D02*
X0160534Y0213514D01*
X0160510Y0213540D01*
X0160483Y0213564D01*
X0145402Y0214111D02*
X0145407Y0214476D01*
X0145413Y0213946D02*
X0145464Y0213939D01*
X0145515Y0213935D01*
X0145566Y0213934D01*
X0145618Y0213936D01*
X0145414Y0213946D02*
X0145407Y0213987D01*
X0145403Y0214028D01*
X0145402Y0214070D01*
X0145404Y0214111D01*
X0143067Y0213245D02*
X0143069Y0213153D01*
X0143075Y0213061D01*
X0143085Y0212970D01*
X0143098Y0212878D01*
X0143951Y0212810D02*
X0143978Y0212811D01*
X0144005Y0212810D01*
X0144032Y0212806D01*
X0144059Y0212799D01*
X0143066Y0213246D02*
X0143067Y0213311D01*
X0143071Y0213376D01*
X0143078Y0213441D01*
X0142253Y0213945D02*
X0142216Y0213953D01*
X0142179Y0213958D01*
X0142141Y0213961D01*
X0142103Y0213962D01*
X0144060Y0212799D02*
X0144066Y0212722D01*
X0144069Y0212645D01*
X0144069Y0212568D01*
X0144066Y0212490D01*
X0143455Y0213755D02*
X0143384Y0213731D01*
X0143313Y0213703D01*
X0143244Y0213673D01*
X0144094Y0214049D02*
X0144120Y0214090D01*
X0144144Y0214133D01*
X0144164Y0214177D01*
X0144181Y0214222D01*
X0144195Y0214269D01*
X0144094Y0214049D02*
X0144065Y0214021D01*
X0144034Y0213995D01*
X0144002Y0213972D01*
X0143967Y0213951D01*
X0143932Y0213933D01*
X0144495Y0215439D02*
X0144527Y0215453D01*
X0144561Y0215464D01*
X0144595Y0215471D01*
X0144630Y0215475D01*
X0145413Y0215438D02*
X0145420Y0215397D01*
X0145424Y0215356D01*
X0145425Y0215314D01*
X0145423Y0215273D01*
X0145413Y0215438D02*
X0145389Y0215447D01*
X0145364Y0215453D01*
X0145340Y0215458D01*
X0145314Y0215460D01*
X0144495Y0215438D02*
X0144476Y0215410D01*
X0144459Y0215380D01*
X0144446Y0215348D01*
X0144435Y0215316D01*
X0144428Y0215282D01*
X0143932Y0213934D02*
X0143856Y0213899D01*
X0143779Y0213867D01*
X0143702Y0213839D01*
X0144631Y0215475D02*
X0144745Y0215482D01*
X0144859Y0215485D01*
X0144973Y0215484D01*
X0145088Y0215480D01*
X0145201Y0215472D01*
X0145315Y0215461D01*
X0171475Y0231306D02*
X0171149Y0231912D01*
X0170810Y0232511D01*
X0169758Y0217640D02*
X0169521Y0217577D01*
X0169282Y0217518D01*
X0169043Y0217463D01*
X0166697Y0219080D02*
X0166688Y0219191D01*
X0166682Y0219302D01*
X0166680Y0219413D01*
X0166681Y0219524D01*
X0171663Y0218841D02*
X0171736Y0218940D01*
X0171807Y0219040D01*
X0171874Y0219143D01*
X0171939Y0219247D01*
X0172000Y0219353D01*
X0172059Y0219461D01*
X0172114Y0219571D01*
X0171663Y0218842D02*
X0171606Y0218770D01*
X0171546Y0218701D01*
X0171484Y0218634D01*
X0171419Y0218569D01*
X0171352Y0218507D01*
X0171283Y0218447D01*
X0171211Y0218390D01*
X0172114Y0219570D02*
X0172165Y0219685D01*
X0172213Y0219802D01*
X0172257Y0219920D01*
X0172297Y0220039D01*
X0172334Y0220160D01*
X0172367Y0220281D01*
X0172395Y0220404D01*
X0172420Y0220527D01*
X0172441Y0220651D01*
X0171211Y0218390D02*
X0171111Y0218313D01*
X0171008Y0218239D01*
X0170904Y0218167D01*
X0170797Y0218099D01*
X0170688Y0218035D01*
X0170577Y0217973D01*
X0170465Y0217915D01*
X0170350Y0217860D01*
X0170235Y0217809D01*
X0170117Y0217761D01*
X0169999Y0217717D01*
X0169879Y0217677D01*
X0169758Y0217640D01*
X0170865Y0225994D02*
X0170757Y0226050D01*
X0170648Y0226104D01*
X0170537Y0226155D01*
X0170425Y0226203D01*
X0170312Y0226248D01*
X0170865Y0225994D02*
X0170951Y0225944D01*
X0171034Y0225890D01*
X0171116Y0225833D01*
X0171196Y0225773D01*
X0171273Y0225711D01*
X0171348Y0225645D01*
X0171421Y0225577D01*
X0171420Y0225577D02*
X0171490Y0225509D01*
X0171559Y0225439D01*
X0171626Y0225368D01*
X0171691Y0225294D01*
X0171753Y0225219D01*
X0174733Y0226492D02*
X0174798Y0226502D01*
X0174864Y0226509D01*
X0174931Y0226514D01*
X0174997Y0226516D01*
X0174350Y0226190D02*
X0174334Y0226103D01*
X0174321Y0226016D01*
X0174311Y0225928D01*
X0182427Y0225959D02*
X0182462Y0225832D01*
X0182494Y0225705D01*
X0182522Y0225576D01*
X0182547Y0225447D01*
X0182568Y0225317D01*
X0182586Y0225187D01*
X0182601Y0225056D01*
X0182427Y0225960D02*
X0182412Y0226019D01*
X0182399Y0226080D01*
X0182600Y0225057D02*
X0182608Y0224985D01*
X0182612Y0224914D01*
X0182614Y0224842D01*
X0182613Y0224770D01*
X0182609Y0224698D01*
X0179198Y0224189D02*
X0179171Y0224081D01*
X0179146Y0223973D01*
X0179125Y0223864D01*
X0179106Y0223754D01*
X0179091Y0223644D01*
X0179079Y0223534D01*
X0179070Y0223423D01*
X0179100Y0222824D02*
X0179118Y0222808D01*
X0179139Y0222794D01*
X0179161Y0222783D01*
X0179184Y0222774D01*
X0179208Y0222768D01*
X0179233Y0222765D01*
X0179099Y0222824D02*
X0179087Y0222837D01*
X0179076Y0222852D01*
X0179068Y0222868D01*
X0179062Y0222886D01*
X0179059Y0222904D01*
X0179277Y0224292D02*
X0179307Y0224311D01*
X0179339Y0224327D01*
X0179372Y0224341D01*
X0179405Y0224351D01*
X0179440Y0224358D01*
X0179475Y0224363D01*
X0179278Y0224292D02*
X0179256Y0224277D01*
X0179237Y0224258D01*
X0179221Y0224237D01*
X0179208Y0224214D01*
X0179198Y0224189D01*
X0182399Y0226079D02*
X0182386Y0226144D01*
X0182372Y0226208D01*
X0184371Y0226202D02*
X0184375Y0226221D01*
X0184382Y0226239D01*
X0184391Y0226256D01*
X0184403Y0226272D01*
X0184417Y0226286D01*
X0184432Y0226297D01*
X0184433Y0226296D02*
X0184472Y0226319D01*
X0184512Y0226338D01*
X0184554Y0226354D01*
X0184944Y0226463D02*
X0185000Y0226472D01*
X0185056Y0226477D01*
X0185113Y0226480D01*
X0185170Y0226481D01*
X0190224Y0223220D02*
X0190289Y0223287D01*
X0190352Y0223355D01*
X0190414Y0223425D01*
X0194093Y0223459D02*
X0194097Y0223570D01*
X0194097Y0223680D01*
X0194094Y0223791D01*
X0194087Y0223901D01*
X0194078Y0224011D01*
X0193227Y0221865D02*
X0193167Y0221836D01*
X0193106Y0221810D01*
X0192836Y0221644D02*
X0192829Y0221618D01*
X0192825Y0221591D01*
X0192826Y0221564D01*
X0192837Y0221644D02*
X0192847Y0221662D01*
X0192859Y0221679D01*
X0192874Y0221694D01*
X0192891Y0221706D01*
X0192922Y0221726D01*
X0192955Y0221743D01*
X0192988Y0221759D01*
X0192825Y0221564D02*
X0192833Y0221512D01*
X0192845Y0221461D01*
X0192860Y0221411D01*
X0192880Y0221363D01*
X0193227Y0221866D02*
X0193263Y0221885D01*
X0193297Y0221907D01*
X0193330Y0221932D01*
X0192880Y0221362D02*
X0192911Y0221296D01*
X0192945Y0221231D01*
X0192983Y0221168D01*
X0178989Y0220716D02*
X0178967Y0220449D01*
X0178951Y0220182D01*
X0178940Y0219914D01*
X0178935Y0219646D01*
X0179394Y0207019D02*
X0179131Y0207011D01*
X0178868Y0207008D01*
X0178605Y0207011D01*
X0178342Y0207019D01*
X0175726Y0208181D02*
X0175679Y0208212D01*
X0175635Y0208246D01*
X0175593Y0208282D01*
X0175552Y0208320D01*
X0175514Y0208361D01*
X0175478Y0208403D01*
X0175444Y0208447D01*
X0175413Y0208494D01*
X0174559Y0207349D02*
X0174621Y0207298D01*
X0174686Y0207251D01*
X0174752Y0207206D01*
X0174821Y0207164D01*
X0174891Y0207126D01*
X0174963Y0207091D01*
X0175037Y0207059D01*
X0175112Y0207030D01*
X0175188Y0207005D01*
X0175266Y0206984D01*
X0175344Y0206966D01*
X0173973Y0208488D02*
X0173965Y0208548D01*
X0173959Y0208608D01*
X0173955Y0208668D01*
X0189869Y0219622D02*
X0189720Y0219865D01*
X0189568Y0220107D01*
X0162299Y0218932D02*
X0162322Y0218450D01*
X0162353Y0217968D01*
X0162392Y0217488D01*
X0145558Y0222048D02*
X0145599Y0222448D01*
X0145649Y0222848D01*
X0145707Y0223246D01*
X0145774Y0223643D01*
X0145850Y0224038D01*
X0145934Y0224432D01*
X0146593Y0224848D02*
X0146628Y0224789D01*
X0146659Y0224727D01*
X0146687Y0224663D01*
X0146710Y0224598D01*
X0146730Y0224532D01*
X0146746Y0224464D01*
X0146759Y0224396D01*
X0146767Y0224328D01*
X0146156Y0224845D02*
X0146184Y0224879D01*
X0146214Y0224911D01*
X0146246Y0224942D01*
X0146316Y0224988D02*
X0146341Y0224991D01*
X0146365Y0224991D01*
X0146390Y0224988D01*
X0146414Y0224982D01*
X0146437Y0224974D01*
X0146316Y0224987D02*
X0146296Y0224979D01*
X0146278Y0224968D01*
X0146261Y0224956D01*
X0146245Y0224941D01*
X0146437Y0224973D02*
X0146467Y0224959D01*
X0146497Y0224942D01*
X0146524Y0224922D01*
X0146550Y0224900D01*
X0146573Y0224875D01*
X0146594Y0224848D01*
X0145984Y0224571D02*
X0145964Y0224526D01*
X0145947Y0224479D01*
X0145934Y0224431D01*
X0134390Y0223581D02*
X0134397Y0223433D01*
X0134406Y0223285D01*
X0134438Y0223226D02*
X0134446Y0223220D01*
X0134456Y0223217D01*
X0134466Y0223215D01*
X0134476Y0223216D01*
X0134438Y0223226D02*
X0134426Y0223238D01*
X0134416Y0223252D01*
X0134409Y0223268D01*
X0134406Y0223285D01*
X0134902Y0224392D02*
X0134961Y0224398D01*
X0135021Y0224402D01*
X0135081Y0224401D01*
X0135140Y0224398D01*
X0139129Y0224605D02*
X0139144Y0224488D01*
X0139156Y0224370D01*
X0139164Y0224252D01*
X0139168Y0224134D01*
X0139169Y0224016D01*
X0139166Y0223897D01*
X0139128Y0224606D02*
X0139121Y0224646D01*
X0139111Y0224686D01*
X0139098Y0224726D01*
X0139098Y0224725D02*
X0139076Y0224783D01*
X0139051Y0224841D01*
X0139022Y0224896D01*
X0138990Y0224950D01*
X0139048Y0223186D02*
X0139019Y0223137D01*
X0138988Y0223089D01*
X0138955Y0223043D01*
X0138851Y0225161D02*
X0138804Y0225223D01*
X0138755Y0225283D01*
X0138703Y0225340D01*
X0138648Y0225395D01*
X0138591Y0225447D01*
X0138531Y0225496D01*
X0138469Y0225543D01*
X0138955Y0223043D02*
X0138905Y0222972D01*
X0138853Y0222904D01*
X0138799Y0222837D01*
X0138742Y0222771D01*
X0138684Y0222708D01*
X0138991Y0224951D02*
X0138946Y0225022D01*
X0138900Y0225092D01*
X0138851Y0225161D01*
X0136201Y0223950D02*
X0136194Y0223941D01*
X0136186Y0223932D01*
X0136177Y0223925D01*
X0136213Y0224031D02*
X0136210Y0224050D01*
X0136202Y0224067D01*
X0136191Y0224082D01*
X0136177Y0224095D01*
X0136213Y0224032D02*
X0136215Y0224011D01*
X0136214Y0223990D01*
X0136209Y0223970D01*
X0136201Y0223951D01*
X0134405Y0223874D02*
X0134395Y0223801D01*
X0134390Y0223728D01*
X0134388Y0223654D01*
X0134390Y0223581D01*
X0134405Y0223874D02*
X0134413Y0223922D01*
X0134424Y0223968D01*
X0134439Y0224014D01*
X0134458Y0224058D01*
X0134480Y0224101D01*
X0134506Y0224142D01*
X0134535Y0224180D01*
X0134567Y0224216D01*
X0134601Y0224249D01*
X0134639Y0224280D01*
X0134678Y0224307D01*
X0134720Y0224331D01*
X0134763Y0224352D01*
X0134808Y0224369D01*
X0134854Y0224382D01*
X0134902Y0224391D01*
X0136766Y0217550D02*
X0136602Y0217502D01*
X0136437Y0217457D01*
X0136271Y0217416D01*
X0136104Y0217379D01*
X0135936Y0217346D01*
X0135767Y0217317D01*
X0136525Y0220501D02*
X0136423Y0220534D01*
X0136321Y0220565D01*
X0136218Y0220592D01*
X0136115Y0220617D01*
X0136010Y0220638D01*
X0135905Y0220657D01*
X0136557Y0220446D02*
X0136559Y0220427D01*
X0136558Y0220408D01*
X0136553Y0220390D01*
X0136546Y0220372D01*
X0136541Y0220363D01*
X0136533Y0220356D01*
X0136525Y0220350D01*
X0136558Y0220447D02*
X0136555Y0220460D01*
X0136551Y0220472D01*
X0136544Y0220483D01*
X0136535Y0220493D01*
X0136524Y0220501D01*
X0134198Y0220577D02*
X0134185Y0220463D01*
X0134176Y0220349D01*
X0134171Y0220235D01*
X0134170Y0220120D01*
X0134198Y0220578D02*
X0134205Y0220603D01*
X0134214Y0220628D01*
X0134226Y0220651D01*
X0134241Y0220673D01*
X0134259Y0220692D01*
X0134278Y0220710D01*
X0134300Y0220725D01*
X0134323Y0220737D01*
X0134339Y0220744D01*
X0134355Y0220748D01*
X0134371Y0220751D01*
X0135378Y0224362D02*
X0135473Y0224345D01*
X0135568Y0224324D01*
X0135661Y0224300D01*
X0135754Y0224272D01*
X0135846Y0224241D01*
X0135936Y0224207D01*
X0136025Y0224170D01*
X0136026Y0224170D02*
X0136103Y0224135D01*
X0136178Y0224096D01*
X0139179Y0218833D02*
X0139088Y0218744D01*
X0138994Y0218658D01*
X0138899Y0218574D01*
X0138801Y0218493D01*
X0138701Y0218415D01*
X0139365Y0219042D02*
X0139397Y0219085D01*
X0139426Y0219129D01*
X0139453Y0219175D01*
X0139476Y0219223D01*
X0139029Y0220962D02*
X0138983Y0221020D01*
X0138933Y0221075D01*
X0138881Y0221128D01*
X0138827Y0221179D01*
X0138771Y0221227D01*
X0138712Y0221272D01*
X0139029Y0220961D02*
X0139080Y0220898D01*
X0139128Y0220833D01*
X0139173Y0220766D01*
X0139216Y0220696D01*
X0139255Y0220625D01*
X0139291Y0220553D01*
X0139325Y0220479D01*
X0139354Y0220403D01*
X0139381Y0220327D01*
X0139405Y0220249D01*
X0139425Y0220170D01*
X0139441Y0220091D01*
X0138712Y0221271D02*
X0138638Y0221320D01*
X0138562Y0221366D01*
X0138485Y0221408D01*
X0138468Y0225543D02*
X0138381Y0225604D01*
X0138293Y0225662D01*
X0138203Y0225719D01*
X0135378Y0224362D02*
X0135299Y0224377D01*
X0135220Y0224389D01*
X0135140Y0224398D01*
X0139166Y0223897D02*
X0139157Y0223739D01*
X0139145Y0223582D01*
X0139129Y0223424D01*
X0134170Y0220121D02*
X0134172Y0219948D01*
X0134177Y0219776D01*
X0134186Y0219604D01*
X0134198Y0219432D01*
X0134230Y0219372D02*
X0134238Y0219366D01*
X0134247Y0219362D01*
X0134257Y0219361D01*
X0134267Y0219362D01*
X0134231Y0219373D02*
X0134218Y0219385D01*
X0134208Y0219399D01*
X0134202Y0219415D01*
X0134198Y0219432D01*
X0139442Y0220092D02*
X0139466Y0219974D01*
X0139487Y0219857D01*
X0139507Y0219739D01*
X0138485Y0221408D02*
X0138406Y0221448D01*
X0138326Y0221486D01*
X0138245Y0221523D01*
X0129994Y0213009D02*
X0130061Y0212821D01*
X0130132Y0212635D01*
X0130207Y0212450D01*
X0130269Y0212335D02*
X0130302Y0212339D01*
X0130334Y0212346D01*
X0130365Y0212356D01*
X0130395Y0212368D01*
X0130270Y0212336D02*
X0130251Y0212362D01*
X0130234Y0212390D01*
X0130219Y0212420D01*
X0130207Y0212450D01*
X0133026Y0207349D02*
X0132929Y0207287D01*
X0132832Y0207228D01*
X0132733Y0207170D01*
X0131316Y0211168D02*
X0131195Y0211146D01*
X0131076Y0211120D01*
X0130957Y0211090D01*
X0130840Y0211056D01*
X0130723Y0211018D01*
X0130608Y0210977D01*
X0133490Y0211397D02*
X0133491Y0211489D01*
X0133489Y0211582D01*
X0133483Y0211675D01*
X0133474Y0211767D01*
X0133462Y0211859D01*
X0133447Y0211951D01*
X0133429Y0212042D01*
X0133476Y0211312D02*
X0133434Y0211303D01*
X0133392Y0211297D01*
X0133350Y0211293D01*
X0133307Y0211293D01*
X0133476Y0211312D02*
X0133484Y0211339D01*
X0133488Y0211367D01*
X0133489Y0211396D01*
X0133924Y0213675D02*
X0133841Y0213724D01*
X0133756Y0213768D01*
X0133670Y0213810D01*
X0133582Y0213847D01*
X0133492Y0213881D01*
X0133401Y0213912D01*
X0133309Y0213938D01*
X0133216Y0213961D01*
X0133122Y0213980D01*
X0134120Y0206996D02*
X0134258Y0206997D01*
X0134396Y0207000D01*
X0134534Y0207007D01*
X0134671Y0207016D01*
X0130618Y0208794D02*
X0130605Y0208886D01*
X0130596Y0208979D01*
X0130590Y0209071D01*
X0130586Y0209165D01*
X0130586Y0209258D01*
X0129337Y0209883D02*
X0129370Y0209955D01*
X0129407Y0210025D01*
X0129446Y0210094D01*
X0129489Y0210162D01*
X0129535Y0210227D01*
X0129583Y0210290D01*
X0129635Y0210350D01*
X0129689Y0210409D01*
X0129745Y0210465D01*
X0129804Y0210518D01*
X0129866Y0210569D01*
X0129929Y0210617D01*
X0130638Y0206994D02*
X0130744Y0206970D01*
X0130850Y0206949D01*
X0130957Y0206931D01*
X0131065Y0206917D01*
X0131173Y0206906D01*
X0131281Y0206899D01*
X0131390Y0206896D01*
X0131498Y0206895D01*
X0131607Y0206899D01*
X0131715Y0206905D01*
X0134789Y0207036D02*
X0134798Y0207129D01*
X0134804Y0207222D01*
X0134807Y0207316D01*
X0134807Y0207409D01*
X0134607Y0226517D02*
X0134177Y0226556D01*
X0133746Y0226584D01*
X0136766Y0217550D02*
X0137006Y0217627D01*
X0137244Y0217710D01*
X0137481Y0217798D01*
X0137715Y0217891D01*
X0137947Y0217990D01*
X0138176Y0218094D01*
X0144282Y0214608D02*
X0144256Y0214495D01*
X0144227Y0214382D01*
X0144195Y0214270D01*
X0156878Y0213712D02*
X0156885Y0213544D01*
X0158219Y0214015D02*
X0158289Y0214029D01*
X0158360Y0214040D01*
X0158432Y0214047D01*
X0158504Y0214050D01*
X0156885Y0213544D02*
X0156888Y0213474D01*
X0156894Y0213404D01*
X0157705Y0212626D02*
X0157742Y0212656D01*
X0157781Y0212683D01*
X0157822Y0212707D01*
X0157865Y0212728D01*
X0157909Y0212746D01*
X0157599Y0213763D02*
X0157671Y0213805D01*
X0157745Y0213845D01*
X0157821Y0213881D01*
X0157898Y0213914D01*
X0157977Y0213944D01*
X0158057Y0213971D01*
X0158137Y0213994D01*
X0158219Y0214014D01*
X0159857Y0213910D02*
X0159926Y0213889D01*
X0159993Y0213864D01*
X0160059Y0213836D01*
X0160124Y0213805D01*
X0160187Y0213770D01*
X0160248Y0213732D01*
X0159373Y0212691D02*
X0159418Y0212663D01*
X0159462Y0212632D01*
X0159503Y0212599D01*
X0159542Y0212563D01*
X0159579Y0212524D01*
X0159612Y0212483D01*
X0159643Y0212439D01*
X0159671Y0212394D01*
X0159703Y0212339D01*
X0159732Y0212282D01*
X0159759Y0212224D01*
X0159782Y0212165D01*
X0159802Y0212105D01*
X0159819Y0212044D01*
X0159834Y0211982D01*
X0159845Y0211919D01*
X0159853Y0211856D01*
X0159857Y0211792D01*
X0157705Y0212626D02*
X0157640Y0212563D01*
X0157577Y0212498D01*
X0157517Y0212431D01*
X0157461Y0212361D01*
X0157407Y0212288D01*
X0157356Y0212214D01*
X0157308Y0212137D01*
X0157264Y0212058D01*
X0157909Y0212747D02*
X0157966Y0212768D01*
X0158024Y0212786D01*
X0158083Y0212801D01*
X0158142Y0212814D01*
X0158699Y0212870D02*
X0158770Y0212867D01*
X0158840Y0212860D01*
X0158909Y0212850D01*
X0158978Y0212837D01*
X0159047Y0212821D01*
X0159114Y0212801D01*
X0159181Y0212778D01*
X0159246Y0212752D01*
X0159310Y0212723D01*
X0159372Y0212691D01*
X0157264Y0212058D02*
X0157228Y0211989D01*
X0157194Y0211918D01*
X0157164Y0211846D01*
X0157138Y0211772D01*
X0157115Y0211697D01*
X0157096Y0211621D01*
X0157080Y0211544D01*
X0157068Y0211466D01*
X0149337Y0211064D02*
X0149326Y0210909D01*
X0149320Y0210755D01*
X0149316Y0210600D01*
X0149317Y0210445D01*
X0149320Y0210291D01*
X0149328Y0210136D01*
X0149339Y0209982D01*
X0149354Y0209828D01*
X0149372Y0209675D01*
X0148294Y0208632D02*
X0148322Y0208564D01*
X0148353Y0208498D01*
X0148386Y0208432D01*
X0148422Y0208368D01*
X0148461Y0208306D01*
X0148502Y0208245D01*
X0148841Y0207810D02*
X0148893Y0207754D01*
X0148948Y0207700D01*
X0149006Y0207650D01*
X0149066Y0207602D01*
X0149129Y0207557D01*
X0150031Y0208425D02*
X0149977Y0208467D01*
X0149926Y0208511D01*
X0149877Y0208559D01*
X0149830Y0208609D01*
X0149787Y0208661D01*
X0149746Y0208716D01*
X0149709Y0208773D01*
X0150240Y0207001D02*
X0150331Y0206974D01*
X0150423Y0206951D01*
X0150516Y0206931D01*
X0150609Y0206915D01*
X0150703Y0206903D01*
X0150798Y0206894D01*
X0150893Y0206889D01*
X0150988Y0206888D01*
X0151083Y0206891D01*
X0151177Y0206897D01*
X0152531Y0207175D02*
X0152605Y0207202D01*
X0152677Y0207233D01*
X0152748Y0207267D01*
X0152818Y0207304D01*
X0152885Y0207345D01*
X0152951Y0207388D01*
X0153014Y0207435D01*
X0153075Y0207484D01*
X0153134Y0207537D01*
X0153191Y0207591D01*
X0153989Y0208668D02*
X0154023Y0208729D01*
X0154053Y0208791D01*
X0147948Y0209953D02*
X0147937Y0210092D01*
X0147929Y0210232D01*
X0147925Y0210371D01*
X0147924Y0210511D01*
X0147926Y0210651D01*
X0147932Y0210791D01*
X0147941Y0210930D01*
X0147954Y0211069D01*
X0147969Y0211208D01*
X0147988Y0211347D01*
X0154302Y0210994D02*
X0154308Y0210860D01*
X0154311Y0210727D01*
X0154311Y0210593D01*
X0154307Y0210459D01*
X0154301Y0210326D01*
X0147988Y0211346D02*
X0148007Y0211461D01*
X0148028Y0211575D01*
X0148052Y0211688D01*
X0145397Y0212483D02*
X0145396Y0212562D01*
X0145398Y0212642D01*
X0145403Y0212721D01*
X0145411Y0212800D01*
X0145412Y0212800D02*
X0145463Y0212807D01*
X0145514Y0212811D01*
X0145565Y0212812D01*
X0145617Y0212810D01*
X0146464Y0226848D02*
X0146766Y0226834D01*
X0147068Y0226815D01*
X0147370Y0226789D01*
X0147670Y0226758D01*
X0149129Y0226306D02*
X0149212Y0226261D01*
X0149294Y0226213D01*
X0149374Y0226162D01*
X0149452Y0226108D01*
X0149528Y0226051D01*
X0146156Y0224844D02*
X0146117Y0224793D01*
X0146080Y0224740D01*
X0146046Y0224685D01*
X0146014Y0224629D01*
X0145984Y0224571D01*
X0146995Y0208191D02*
X0146655Y0208152D01*
X0146314Y0208120D01*
X0145867Y0208153D02*
X0145824Y0208178D01*
X0145784Y0208206D01*
X0145745Y0208238D01*
X0145533Y0208459D02*
X0145518Y0208485D01*
X0145505Y0208512D01*
X0145495Y0208540D01*
X0145487Y0208569D01*
X0145483Y0208599D01*
X0144858Y0207210D02*
X0144928Y0207169D01*
X0145001Y0207131D01*
X0145074Y0207095D01*
X0145149Y0207063D01*
X0145226Y0207033D01*
X0145303Y0207007D01*
X0145381Y0206984D01*
X0145461Y0206963D01*
X0145541Y0206946D01*
X0145621Y0206932D01*
X0144131Y0208286D02*
X0144109Y0208368D01*
X0144091Y0208450D01*
X0144077Y0208534D01*
X0144066Y0208618D01*
X0144059Y0208702D01*
X0194544Y0208269D02*
X0194530Y0207392D01*
X0194510Y0207035D02*
X0194473Y0207027D01*
X0194435Y0207022D01*
X0194397Y0207019D01*
X0194359Y0207018D01*
X0193309Y0207018D02*
X0193270Y0207019D01*
X0193232Y0207022D01*
X0193194Y0207027D01*
X0193157Y0207036D01*
X0194511Y0207035D02*
X0194520Y0207124D01*
X0194527Y0207213D01*
X0194530Y0207302D01*
X0194531Y0207392D01*
X0193143Y0207403D02*
X0193142Y0207311D01*
X0193144Y0207219D01*
X0193148Y0207127D01*
X0193156Y0207036D01*
X0190304Y0213585D02*
X0190403Y0213649D01*
X0190505Y0213711D01*
X0189880Y0213404D02*
X0189881Y0213387D01*
X0189884Y0213370D01*
X0189890Y0213354D01*
X0189899Y0213339D01*
X0189899Y0213338D02*
X0189919Y0213341D01*
X0189938Y0213347D01*
X0189955Y0213356D01*
X0189972Y0213367D01*
X0189818Y0213945D02*
X0189784Y0213957D01*
X0189748Y0213966D01*
X0189712Y0213971D01*
X0189676Y0213972D01*
X0189819Y0213946D02*
X0189831Y0213927D01*
X0189840Y0213906D01*
X0189847Y0213884D01*
X0189850Y0213861D01*
X0178191Y0213946D02*
X0178180Y0213703D01*
X0178174Y0213460D01*
X0178174Y0213217D01*
X0178191Y0213945D02*
X0178228Y0213953D01*
X0178265Y0213958D01*
X0178303Y0213961D01*
X0178342Y0213962D01*
X0174254Y0214975D02*
X0174275Y0215078D01*
X0174298Y0215180D01*
X0174324Y0215282D01*
X0176073Y0208077D02*
X0176164Y0208082D01*
X0176254Y0208089D01*
X0176344Y0208099D01*
X0175413Y0208494D02*
X0175388Y0208535D01*
X0175366Y0208577D01*
X0175348Y0208621D01*
X0175333Y0208666D01*
X0175321Y0208713D01*
X0175313Y0208760D01*
X0175309Y0208807D01*
X0175344Y0206966D02*
X0175419Y0206953D01*
X0175495Y0206942D01*
X0175571Y0206932D01*
X0176490Y0206931D02*
X0176598Y0206944D01*
X0176706Y0206960D01*
X0176813Y0206980D01*
X0176919Y0207004D01*
X0177024Y0207032D01*
X0176490Y0206932D02*
X0176375Y0206920D01*
X0176260Y0206912D01*
X0176145Y0206908D01*
X0176030Y0206906D01*
X0175915Y0206908D01*
X0175800Y0206913D01*
X0175685Y0206921D01*
X0175571Y0206932D01*
X0176936Y0208187D02*
X0177045Y0208204D01*
X0177154Y0208219D01*
X0143171Y0230751D02*
X0143544Y0231434D01*
X0143932Y0232110D01*
X0148984Y0230751D02*
X0149059Y0230846D01*
X0149131Y0230943D01*
X0149200Y0231042D01*
X0149266Y0231144D01*
X0149329Y0231247D01*
X0149389Y0231352D01*
X0155368Y0235476D02*
X0155298Y0235599D01*
X0155225Y0235720D01*
X0155149Y0235839D01*
X0155070Y0235956D01*
X0156141Y0237695D02*
X0156131Y0237718D01*
X0156123Y0237743D01*
X0156119Y0237769D01*
X0156119Y0237795D01*
X0156123Y0237821D01*
X0156131Y0237846D01*
X0156141Y0237869D01*
X0157161Y0231286D02*
X0157302Y0231285D01*
X0157443Y0231289D01*
X0157584Y0231296D01*
X0157724Y0231307D01*
X0158684Y0220571D02*
X0158930Y0220579D01*
X0159177Y0220592D01*
X0167871Y0221186D02*
X0167895Y0221369D01*
X0167915Y0221552D01*
X0167930Y0221736D01*
X0167941Y0221921D01*
X0167948Y0222105D01*
X0172392Y0223945D02*
X0172354Y0224062D01*
X0172313Y0224178D01*
X0172268Y0224292D01*
X0172221Y0224406D01*
X0172171Y0224518D01*
X0172118Y0224629D01*
X0172061Y0224738D01*
X0172002Y0224846D01*
X0171941Y0224952D01*
X0170312Y0226249D02*
X0170196Y0226291D01*
X0170080Y0226330D01*
X0169961Y0226366D01*
X0169842Y0226398D01*
X0169722Y0226426D01*
X0169602Y0226450D01*
X0169480Y0226471D01*
X0169358Y0226488D01*
X0169236Y0226501D01*
X0169113Y0226510D01*
X0168990Y0226515D01*
X0169043Y0217463D02*
X0168909Y0217434D01*
X0168773Y0217409D01*
X0168637Y0217387D01*
X0168500Y0217370D01*
X0179545Y0213946D02*
X0179556Y0213703D01*
X0179562Y0213460D01*
X0179562Y0213217D01*
X0189864Y0213712D02*
X0189871Y0213545D01*
X0188803Y0213965D02*
X0188771Y0213964D01*
X0188739Y0213960D01*
X0188708Y0213954D01*
X0188677Y0213945D01*
X0189849Y0213861D02*
X0189855Y0213812D01*
X0189860Y0213762D01*
X0189864Y0213712D01*
X0175298Y0214111D02*
X0175303Y0214476D01*
X0178044Y0215535D02*
X0178046Y0215592D01*
X0178052Y0215649D01*
X0178062Y0215705D01*
X0178075Y0215761D01*
X0178093Y0215815D01*
X0178114Y0215868D01*
X0178139Y0215920D01*
X0178167Y0215969D01*
X0178199Y0216017D01*
X0178234Y0216062D01*
X0178272Y0216105D01*
X0178312Y0216145D01*
X0178356Y0216182D01*
X0178402Y0216216D01*
X0178450Y0216247D01*
X0178500Y0216275D01*
X0178552Y0216299D01*
X0178605Y0216319D01*
X0178660Y0216335D01*
X0178716Y0216348D01*
X0178772Y0216357D01*
X0178829Y0216362D01*
X0178886Y0216363D01*
X0178943Y0216360D01*
X0179000Y0216353D01*
X0179056Y0216342D01*
X0179112Y0216328D01*
X0179166Y0216309D01*
X0179218Y0216287D01*
X0179269Y0216261D01*
X0179319Y0216232D01*
X0179366Y0216200D01*
X0179410Y0216164D01*
X0179452Y0216126D01*
X0179492Y0216084D01*
X0179528Y0216040D01*
X0179561Y0215994D01*
X0179591Y0215945D01*
X0179618Y0215894D01*
X0179641Y0215842D01*
X0179660Y0215788D01*
X0179676Y0215733D01*
X0179688Y0215677D01*
X0179696Y0215621D01*
X0179700Y0215564D01*
X0179700Y0215506D01*
X0179696Y0215449D01*
X0179688Y0215393D01*
X0179676Y0215337D01*
X0179660Y0215282D01*
X0179641Y0215228D01*
X0179618Y0215176D01*
X0179591Y0215125D01*
X0179561Y0215076D01*
X0179528Y0215030D01*
X0179492Y0214986D01*
X0179452Y0214944D01*
X0179410Y0214906D01*
X0179366Y0214870D01*
X0179319Y0214838D01*
X0179269Y0214809D01*
X0179218Y0214783D01*
X0179166Y0214761D01*
X0179112Y0214742D01*
X0179056Y0214728D01*
X0179000Y0214717D01*
X0178943Y0214710D01*
X0178886Y0214707D01*
X0178829Y0214708D01*
X0178772Y0214713D01*
X0178716Y0214722D01*
X0178660Y0214735D01*
X0178605Y0214751D01*
X0178552Y0214771D01*
X0178500Y0214795D01*
X0178450Y0214823D01*
X0178402Y0214854D01*
X0178356Y0214888D01*
X0178312Y0214925D01*
X0178272Y0214965D01*
X0178234Y0215008D01*
X0178199Y0215053D01*
X0178167Y0215101D01*
X0178139Y0215150D01*
X0178114Y0215202D01*
X0178093Y0215255D01*
X0178075Y0215309D01*
X0178062Y0215365D01*
X0178052Y0215421D01*
X0178046Y0215478D01*
X0178044Y0215535D01*
X0179394Y0213962D02*
X0179433Y0213961D01*
X0179471Y0213958D01*
X0179508Y0213953D01*
X0179545Y0213945D01*
X0179128Y0220890D02*
X0179285Y0220903D01*
X0179442Y0220914D01*
X0179599Y0220920D01*
X0179050Y0220847D02*
X0179031Y0220824D01*
X0179016Y0220799D01*
X0179004Y0220773D01*
X0178995Y0220745D01*
X0178990Y0220716D01*
X0179050Y0220847D02*
X0179066Y0220863D01*
X0179085Y0220875D01*
X0179106Y0220885D01*
X0179128Y0220890D01*
X0179271Y0219260D02*
X0179192Y0219255D01*
X0179112Y0219252D01*
X0179032Y0219253D01*
X0178953Y0219256D01*
X0178946Y0219285D01*
X0178941Y0219315D01*
X0178938Y0219345D01*
X0178938Y0219375D01*
X0182014Y0219252D02*
X0182035Y0219177D01*
X0182054Y0219101D01*
X0182071Y0219026D01*
X0181444Y0226582D02*
X0181318Y0226584D01*
X0181192Y0226583D01*
X0181066Y0226580D01*
X0179706Y0226458D02*
X0179626Y0226443D01*
X0179545Y0226431D01*
X0179464Y0226422D01*
X0179383Y0226415D01*
X0179302Y0226411D01*
X0181489Y0220959D02*
X0181588Y0220970D01*
X0181686Y0220984D01*
X0180107Y0226532D02*
X0179972Y0226511D01*
X0179839Y0226486D01*
X0179705Y0226458D01*
X0181946Y0222543D02*
X0181975Y0222488D01*
X0182001Y0222431D01*
X0182024Y0222373D01*
X0182045Y0222314D01*
X0149828Y0242326D02*
X0150220Y0242999D01*
X0150625Y0243665D01*
X0151680Y0245518D02*
X0151683Y0245539D01*
X0151689Y0245559D01*
X0151698Y0245577D01*
X0151680Y0245518D02*
X0151680Y0245491D01*
X0151683Y0245464D01*
X0151688Y0245438D01*
X0151696Y0245413D01*
X0151706Y0245388D01*
X0151705Y0245388D02*
X0151724Y0245346D01*
X0151744Y0245305D01*
X0151767Y0245265D01*
X0150442Y0247747D02*
X0150450Y0247752D01*
X0150457Y0247758D01*
X0150462Y0247765D01*
X0150442Y0247746D02*
X0150426Y0247740D01*
X0150408Y0247737D01*
X0150391Y0247736D01*
X0150374Y0247739D01*
X0150357Y0247745D01*
X0150342Y0247754D01*
X0150329Y0247765D01*
X0149150Y0246247D02*
X0149189Y0246180D01*
X0149224Y0246110D01*
X0149256Y0246040D01*
X0149286Y0245967D01*
X0149312Y0245894D01*
X0149336Y0245820D01*
X0150625Y0243665D02*
X0150685Y0243583D01*
X0150743Y0243500D01*
X0150796Y0243414D01*
X0150847Y0243326D01*
X0154509Y0240553D02*
X0154530Y0240544D01*
X0154551Y0240540D01*
X0154573Y0240538D01*
X0154595Y0240540D01*
X0154510Y0240552D02*
X0154499Y0240559D01*
X0154490Y0240567D01*
X0154482Y0240577D01*
X0154595Y0240540D02*
X0154611Y0240543D01*
X0154626Y0240548D01*
X0154640Y0240556D01*
X0154653Y0240565D01*
X0154664Y0240577D01*
X0153523Y0238637D02*
X0153521Y0238618D01*
X0153517Y0238599D01*
X0153511Y0238581D01*
X0153503Y0238564D01*
X0153523Y0238636D02*
X0153522Y0238669D01*
X0153517Y0238702D01*
X0153508Y0238734D01*
X0153497Y0238765D01*
X0153482Y0238795D01*
X0153456Y0238846D01*
X0153429Y0238896D01*
X0153399Y0238946D01*
X0152936Y0231286D02*
X0152795Y0231285D01*
X0152653Y0231289D01*
X0152513Y0231296D01*
X0152372Y0231307D01*
X0157462Y0231806D02*
X0157532Y0231684D01*
X0157599Y0231560D01*
X0157663Y0231434D01*
X0157723Y0231306D01*
X0152639Y0231806D02*
X0152567Y0231684D01*
X0152499Y0231560D01*
X0152434Y0231434D01*
X0152373Y0231306D01*
X0148984Y0230751D02*
X0148872Y0230735D01*
X0148760Y0230722D01*
X0148647Y0230712D01*
X0148535Y0230707D01*
X0148422Y0230704D01*
X0148309Y0230705D01*
X0145516Y0216910D02*
X0145239Y0216923D01*
X0144962Y0216942D01*
X0144685Y0216967D01*
X0144409Y0216998D01*
X0145865Y0218146D02*
X0145879Y0218130D01*
X0145894Y0218115D01*
X0145912Y0218102D01*
X0145911Y0218102D02*
X0145938Y0218087D01*
X0145966Y0218075D01*
X0145996Y0218065D01*
X0146026Y0218059D01*
X0146057Y0218056D01*
X0146087Y0218057D01*
X0146118Y0218060D01*
X0146148Y0218067D01*
X0146177Y0218078D01*
X0146177Y0218077D02*
X0146206Y0218092D01*
X0146232Y0218109D01*
X0146257Y0218129D01*
X0146280Y0218151D01*
X0146301Y0218175D01*
X0145865Y0218147D02*
X0145835Y0218193D01*
X0145807Y0218241D01*
X0145782Y0218291D01*
X0145760Y0218342D01*
X0145741Y0218394D01*
X0146300Y0218176D02*
X0146329Y0218215D01*
X0146356Y0218257D01*
X0146380Y0218300D01*
X0146401Y0218345D01*
X0146420Y0218390D01*
X0145740Y0218394D02*
X0145717Y0218475D01*
X0145697Y0218557D01*
X0145680Y0218639D01*
X0145666Y0218723D01*
X0145656Y0218806D01*
X0143592Y0217156D02*
X0143505Y0217181D01*
X0143420Y0217209D01*
X0143335Y0217240D01*
X0143252Y0217275D01*
X0143170Y0217312D01*
X0143090Y0217352D01*
X0143011Y0217396D01*
X0142934Y0217442D01*
X0146420Y0218390D02*
X0146457Y0218482D01*
X0146491Y0218576D01*
X0146522Y0218670D01*
X0146550Y0218765D01*
X0146574Y0218862D01*
X0146595Y0218959D01*
X0146614Y0219056D01*
X0146629Y0219154D01*
X0174177Y0214606D02*
X0174254Y0214974D01*
X0170833Y0210230D02*
X0170840Y0210210D01*
X0170845Y0210190D01*
X0170848Y0210169D01*
X0170849Y0210148D01*
X0170833Y0210231D02*
X0170792Y0210236D01*
X0170750Y0210238D01*
X0170709Y0210237D01*
X0170668Y0210233D01*
X0170143Y0214035D02*
X0170032Y0214046D01*
X0169921Y0214053D01*
X0169810Y0214057D01*
X0169698Y0214058D01*
X0169587Y0214055D01*
X0169476Y0214050D01*
X0168920Y0206897D02*
X0168789Y0206906D01*
X0168658Y0206917D01*
X0168527Y0206932D01*
X0168397Y0206950D01*
X0168267Y0206971D01*
X0168138Y0206996D01*
X0171034Y0207510D02*
X0171027Y0207593D01*
X0171017Y0207675D01*
X0169476Y0214050D02*
X0169316Y0214035D01*
X0169157Y0214016D01*
X0168999Y0213994D01*
X0171964Y0212947D02*
X0172003Y0212856D01*
X0172038Y0212763D01*
X0172070Y0212669D01*
X0172099Y0212574D01*
X0172124Y0212478D01*
X0172146Y0212382D01*
X0170726Y0212348D02*
X0170701Y0212396D01*
X0170673Y0212443D01*
X0170642Y0212488D01*
X0170608Y0212531D01*
X0170571Y0212571D01*
X0170532Y0212610D01*
X0170491Y0212645D01*
X0170448Y0212678D01*
X0170403Y0212709D01*
X0170355Y0212736D01*
X0170307Y0212760D01*
X0170256Y0212782D01*
X0170205Y0212800D01*
X0170725Y0212349D02*
X0170748Y0212293D01*
X0170767Y0212237D01*
X0170784Y0212180D01*
X0170799Y0212122D01*
X0171698Y0213355D02*
X0171630Y0213421D01*
X0171559Y0213483D01*
X0171486Y0213543D01*
X0171410Y0213601D01*
X0171333Y0213655D01*
X0171253Y0213706D01*
X0171172Y0213754D01*
X0171088Y0213799D01*
X0171004Y0213841D01*
X0170205Y0212800D02*
X0170129Y0212821D01*
X0170052Y0212838D01*
X0169975Y0212852D01*
X0169897Y0212864D01*
X0169819Y0212872D01*
X0169740Y0212878D01*
X0169661Y0212880D01*
X0169582Y0212879D01*
X0169478Y0208114D02*
X0169380Y0208100D01*
X0169281Y0208089D01*
X0169183Y0208081D01*
X0169084Y0208076D01*
X0168985Y0208075D01*
X0168885Y0208077D01*
X0168609Y0211155D02*
X0168712Y0211174D01*
X0168816Y0211190D01*
X0168920Y0211203D01*
X0169753Y0207000D02*
X0169655Y0206976D01*
X0169556Y0206954D01*
X0169456Y0206935D01*
X0169356Y0206919D01*
X0169256Y0206906D01*
X0167702Y0210850D02*
X0167811Y0210900D01*
X0167922Y0210947D01*
X0168034Y0210990D01*
X0168147Y0211030D01*
X0168261Y0211067D01*
X0168377Y0211100D01*
X0168493Y0211129D01*
X0168610Y0211155D01*
X0170884Y0211403D02*
X0170882Y0211507D01*
X0170876Y0211610D01*
X0170867Y0211713D01*
X0170855Y0211816D01*
X0170839Y0211919D01*
X0170821Y0212021D01*
X0170799Y0212122D01*
X0169582Y0212879D02*
X0169485Y0212874D01*
X0169388Y0212866D01*
X0169291Y0212854D01*
X0169195Y0212839D01*
X0169100Y0212821D01*
X0169005Y0212799D01*
X0168912Y0212774D01*
X0168819Y0212745D01*
X0170661Y0207489D02*
X0170580Y0207420D01*
X0170497Y0207353D01*
X0172203Y0207412D02*
X0172203Y0207318D01*
X0172199Y0207223D01*
X0172193Y0207129D01*
X0172184Y0207036D01*
X0168998Y0213994D02*
X0168861Y0213972D01*
X0168725Y0213946D01*
X0168589Y0213916D01*
X0168455Y0213883D01*
X0168321Y0213846D01*
X0168188Y0213806D01*
X0168056Y0213762D01*
X0167635Y0207140D02*
X0167734Y0207105D01*
X0167833Y0207072D01*
X0167934Y0207043D01*
X0168036Y0207018D01*
X0168138Y0206996D01*
X0179545Y0207036D02*
X0179556Y0207279D01*
X0179562Y0207522D01*
X0179562Y0207765D01*
X0187282Y0209974D02*
X0187292Y0210115D01*
X0187299Y0210256D01*
X0187303Y0210396D01*
X0187304Y0210537D01*
X0187302Y0210678D01*
X0187296Y0210819D01*
X0187288Y0210959D01*
X0180974Y0211347D02*
X0180955Y0211208D01*
X0180940Y0211069D01*
X0180927Y0210930D01*
X0180918Y0210791D01*
X0180912Y0210651D01*
X0180910Y0210511D01*
X0180911Y0210371D01*
X0180915Y0210232D01*
X0180923Y0210092D01*
X0180934Y0209953D01*
X0185900Y0209953D02*
X0185913Y0210072D01*
X0185922Y0210191D01*
X0185928Y0210311D01*
X0185932Y0210431D01*
X0185932Y0210551D01*
X0185928Y0210671D01*
X0185922Y0210791D01*
X0185913Y0210910D01*
X0185900Y0211029D01*
X0181038Y0211688D02*
X0181014Y0211575D01*
X0180993Y0211461D01*
X0180974Y0211346D01*
X0145438Y0209569D02*
X0145457Y0209083D01*
X0145482Y0208598D01*
X0145622Y0206931D02*
X0145718Y0206918D01*
X0145815Y0206907D01*
X0145913Y0206900D01*
X0146010Y0206897D01*
X0146108Y0206896D01*
X0146205Y0206899D01*
X0145745Y0208237D02*
X0145688Y0208288D01*
X0145634Y0208342D01*
X0145582Y0208399D01*
X0145533Y0208459D01*
X0193142Y0210799D02*
X0193121Y0211931D01*
X0194267Y0212869D02*
X0194234Y0212936D01*
X0194197Y0213002D01*
X0194158Y0213066D01*
X0194115Y0213128D01*
X0194070Y0213188D01*
X0193677Y0213599D02*
X0193632Y0213637D01*
X0193584Y0213672D01*
X0193585Y0213671D02*
X0193525Y0213711D01*
X0193463Y0213747D01*
X0193400Y0213780D01*
X0193334Y0213809D01*
X0193268Y0213835D01*
X0189871Y0213544D02*
X0189874Y0213474D01*
X0189880Y0213404D01*
X0181101Y0209151D02*
X0181157Y0208977D01*
X0181218Y0208804D01*
X0181281Y0208633D01*
X0181280Y0208632D02*
X0181308Y0208564D01*
X0181339Y0208498D01*
X0181372Y0208432D01*
X0181408Y0208368D01*
X0181447Y0208306D01*
X0181488Y0208245D01*
X0171051Y0207311D02*
X0171034Y0207510D01*
X0170593Y0213969D02*
X0170481Y0213990D01*
X0170369Y0214007D01*
X0170256Y0214023D01*
X0170143Y0214035D01*
X0169858Y0208216D02*
X0169783Y0208190D01*
X0169708Y0208166D01*
X0169632Y0208146D01*
X0169555Y0208129D01*
X0169477Y0208115D01*
X0166767Y0209952D02*
X0166821Y0210035D01*
X0166878Y0210116D01*
X0166938Y0210195D01*
X0167000Y0210271D01*
X0167065Y0210346D01*
X0167133Y0210418D01*
X0167203Y0210487D01*
X0167275Y0210555D01*
X0167350Y0210619D01*
X0167427Y0210681D01*
X0170853Y0209974D02*
X0170851Y0209860D01*
X0170845Y0209746D01*
X0170837Y0209632D01*
X0170826Y0209519D01*
X0170812Y0209406D01*
X0170795Y0209293D01*
X0168052Y0208563D02*
X0168031Y0208627D01*
X0168012Y0208692D01*
X0167996Y0208757D01*
X0167983Y0208824D01*
X0167973Y0208890D01*
X0167965Y0208957D01*
X0166767Y0208008D02*
X0166793Y0207948D01*
X0166823Y0207890D01*
X0166855Y0207834D01*
X0166890Y0207779D01*
X0166927Y0207726D01*
X0166968Y0207675D01*
X0167010Y0207626D01*
X0164017Y0207394D02*
X0164014Y0207305D01*
X0164014Y0207215D01*
X0164018Y0207125D01*
X0164024Y0207035D01*
X0165378Y0207036D02*
X0165387Y0207128D01*
X0165393Y0207219D01*
X0165396Y0207311D01*
X0165396Y0207402D01*
X0161087Y0213355D02*
X0161253Y0213474D01*
X0161421Y0213591D01*
X0161592Y0213703D01*
X0162080Y0212730D02*
X0162038Y0212718D01*
X0161997Y0212703D01*
X0161957Y0212685D01*
X0161918Y0212665D01*
X0161881Y0212642D01*
X0162471Y0214034D02*
X0162553Y0214044D01*
X0162636Y0214050D01*
X0164529Y0213662D02*
X0164595Y0213614D01*
X0164658Y0213563D01*
X0164718Y0213509D01*
X0164776Y0213452D01*
X0164831Y0213392D01*
X0164883Y0213330D01*
X0164932Y0213265D01*
X0164978Y0213199D01*
X0164530Y0213663D02*
X0164462Y0213707D01*
X0164392Y0213749D01*
X0164320Y0213787D01*
X0164247Y0213823D01*
X0164172Y0213855D01*
X0164096Y0213884D01*
X0163325Y0212802D02*
X0163281Y0212815D01*
X0163236Y0212826D01*
X0163191Y0212834D01*
X0165369Y0212080D02*
X0165375Y0212006D01*
X0165378Y0211931D01*
X0137746Y0210261D02*
X0137754Y0209707D01*
X0137774Y0209154D01*
X0136420Y0208945D02*
X0136425Y0208870D01*
X0136434Y0208795D01*
X0136445Y0208721D01*
X0136459Y0208647D01*
X0136476Y0208574D01*
X0136496Y0208502D01*
X0136824Y0207758D02*
X0136850Y0207725D01*
X0136877Y0207692D01*
X0136906Y0207662D01*
X0136823Y0207757D02*
X0136786Y0207809D01*
X0136752Y0207864D01*
X0136720Y0207920D01*
X0136691Y0207977D01*
X0136664Y0208036D01*
X0136641Y0208096D01*
X0137359Y0207286D02*
X0137425Y0207244D01*
X0137493Y0207205D01*
X0137562Y0207169D01*
X0137633Y0207136D01*
X0137705Y0207106D01*
X0140031Y0207070D02*
X0140091Y0207094D01*
X0140149Y0207120D01*
X0140207Y0207148D01*
X0140263Y0207179D01*
X0140517Y0208668D02*
X0140551Y0208706D01*
X0140582Y0208747D01*
X0140610Y0208791D01*
X0140635Y0208836D01*
X0140657Y0208882D01*
X0140676Y0208931D01*
X0140690Y0208980D01*
X0136640Y0208097D02*
X0136601Y0208197D01*
X0136563Y0208298D01*
X0136529Y0208400D01*
X0136496Y0208502D01*
X0140801Y0209392D02*
X0140825Y0209496D01*
X0140846Y0209600D01*
X0140864Y0209705D01*
X0140879Y0209810D01*
X0140891Y0209916D01*
X0140899Y0210022D01*
X0139712Y0208146D02*
X0139645Y0208132D01*
X0139578Y0208121D01*
X0139511Y0208113D01*
X0139711Y0208145D02*
X0139772Y0208161D01*
X0139832Y0208179D01*
X0139890Y0208201D01*
X0139948Y0208226D01*
X0140004Y0208255D01*
X0140058Y0208286D01*
X0140111Y0208320D01*
X0137885Y0208712D02*
X0137859Y0208772D01*
X0137836Y0208833D01*
X0137816Y0208896D01*
X0137800Y0208959D01*
X0137788Y0209023D01*
X0137779Y0209088D01*
X0137774Y0209154D01*
X0137886Y0208712D02*
X0137911Y0208662D01*
X0137940Y0208612D01*
X0137970Y0208565D01*
X0138004Y0208519D01*
X0138040Y0208476D01*
X0138078Y0208434D01*
X0138119Y0208395D01*
X0138161Y0208358D01*
X0138210Y0208322D01*
X0138261Y0208288D01*
X0138313Y0208258D01*
X0138367Y0208230D01*
X0138423Y0208206D01*
X0137359Y0207286D02*
X0137278Y0207341D01*
X0137199Y0207399D01*
X0137122Y0207461D01*
X0137048Y0207525D01*
X0136976Y0207591D01*
X0136906Y0207660D01*
X0138423Y0208206D02*
X0138494Y0208177D01*
X0138567Y0208152D01*
X0138641Y0208130D01*
X0138716Y0208112D01*
X0138792Y0208097D01*
X0138869Y0208086D01*
X0139568Y0206951D02*
X0139662Y0206969D01*
X0139755Y0206989D01*
X0139848Y0207013D01*
X0139940Y0207040D01*
X0140031Y0207070D01*
X0139189Y0208082D02*
X0139109Y0208078D01*
X0139029Y0208077D01*
X0138949Y0208080D01*
X0138869Y0208086D01*
X0140110Y0208321D02*
X0140184Y0208372D01*
X0140255Y0208426D01*
X0140324Y0208482D01*
X0140391Y0208542D01*
X0140455Y0208604D01*
X0140517Y0208668D01*
X0138617Y0206907D02*
X0138513Y0206916D01*
X0138410Y0206929D01*
X0138307Y0206944D01*
X0138205Y0206963D01*
X0138103Y0206985D01*
X0138002Y0207011D01*
X0137902Y0207039D01*
X0137803Y0207071D01*
X0137705Y0207105D01*
X0138617Y0206908D02*
X0138736Y0206900D01*
X0138856Y0206897D01*
X0138975Y0206896D01*
X0139094Y0206900D01*
X0139213Y0206907D01*
X0139332Y0206919D01*
X0139450Y0206934D01*
X0139568Y0206952D01*
X0154198Y0209328D02*
X0154240Y0209660D01*
X0154274Y0209993D01*
X0154301Y0210326D01*
X0154198Y0209327D02*
X0154188Y0209248D01*
X0154174Y0209170D01*
X0154157Y0209092D01*
X0154136Y0209015D01*
X0154112Y0208939D01*
X0154084Y0208864D01*
X0154053Y0208791D01*
X0149709Y0208773D02*
X0149664Y0208851D01*
X0149621Y0208930D01*
X0149581Y0209011D01*
X0149544Y0209092D01*
X0149509Y0209175D01*
X0149478Y0209260D01*
X0149449Y0209345D01*
X0152670Y0209015D02*
X0152712Y0209115D01*
X0152750Y0209216D01*
X0152785Y0209318D01*
X0152816Y0209422D01*
X0152843Y0209527D01*
X0152866Y0209632D01*
X0152886Y0209738D01*
X0152902Y0209845D01*
X0152913Y0209953D01*
X0148115Y0209151D02*
X0148083Y0209255D01*
X0148053Y0209361D01*
X0148027Y0209467D01*
X0148004Y0209574D01*
X0147983Y0209682D01*
X0152913Y0209952D02*
X0152924Y0210087D01*
X0152931Y0210223D01*
X0152935Y0210358D01*
X0152936Y0210494D01*
X0152933Y0210630D01*
X0152927Y0210765D01*
X0152918Y0210900D01*
X0152905Y0211035D01*
X0152889Y0211170D01*
X0152869Y0211304D01*
X0152846Y0211438D01*
X0148502Y0208245D02*
X0148565Y0208155D01*
X0148631Y0208066D01*
X0148699Y0207978D01*
X0148768Y0207893D01*
X0148840Y0207809D01*
X0150760Y0208112D02*
X0150841Y0208096D01*
X0150921Y0208085D01*
X0151003Y0208077D01*
X0151084Y0208073D01*
X0151166Y0208073D01*
X0151247Y0208077D01*
X0151329Y0208085D01*
X0151409Y0208096D01*
X0151490Y0208112D01*
X0152359Y0208550D02*
X0152408Y0208601D01*
X0152454Y0208654D01*
X0152497Y0208710D01*
X0152538Y0208767D01*
X0152576Y0208826D01*
X0152610Y0208887D01*
X0152642Y0208950D01*
X0152671Y0209014D01*
X0150318Y0213990D02*
X0150207Y0213962D01*
X0150097Y0213932D01*
X0149987Y0213898D01*
X0149878Y0213862D01*
X0149770Y0213822D01*
X0144359Y0214976D02*
X0144380Y0215078D01*
X0144403Y0215181D01*
X0144428Y0215283D01*
X0147288Y0213946D02*
X0147296Y0213914D01*
X0147301Y0213882D01*
X0147304Y0213849D01*
X0147305Y0213816D01*
X0147288Y0212800D02*
X0147237Y0212793D01*
X0147186Y0212789D01*
X0147134Y0212788D01*
X0147083Y0212790D01*
X0147083Y0213955D02*
X0147135Y0213957D01*
X0147186Y0213956D01*
X0147237Y0213952D01*
X0147288Y0213945D01*
X0147305Y0212929D02*
X0147304Y0212896D01*
X0147301Y0212863D01*
X0147296Y0212831D01*
X0147288Y0212799D01*
X0147128Y0207034D02*
X0147015Y0207006D01*
X0146900Y0206981D01*
X0146786Y0206960D01*
X0146670Y0206941D01*
X0146554Y0206926D01*
X0146438Y0206914D01*
X0146322Y0206905D01*
X0146205Y0206899D01*
X0146315Y0208120D02*
X0146211Y0208114D01*
X0146107Y0208111D01*
X0146004Y0208112D01*
X0153372Y0207790D02*
X0153458Y0207893D01*
X0153542Y0207998D01*
X0153624Y0208105D01*
X0153702Y0208214D01*
X0153778Y0208325D01*
X0153851Y0208438D01*
X0153922Y0208552D01*
X0153989Y0208668D01*
X0149406Y0213633D02*
X0149230Y0213506D01*
X0149407Y0213633D02*
X0149476Y0213677D01*
X0149547Y0213718D01*
X0149620Y0213756D01*
X0149695Y0213791D01*
X0149771Y0213822D01*
X0151177Y0206897D02*
X0151315Y0206909D01*
X0151453Y0206924D01*
X0151590Y0206944D01*
X0151727Y0206966D01*
X0151863Y0206992D01*
X0151999Y0207022D01*
X0152133Y0207055D01*
X0152267Y0207091D01*
X0152400Y0207131D01*
X0152531Y0207174D01*
X0149449Y0209345D02*
X0149424Y0209426D01*
X0149403Y0209508D01*
X0149385Y0209591D01*
X0149371Y0209675D01*
X0153191Y0207591D02*
X0153252Y0207656D01*
X0153313Y0207722D01*
X0153372Y0207789D01*
X0148893Y0213228D02*
X0148975Y0213301D01*
X0149058Y0213371D01*
X0149143Y0213440D01*
X0149230Y0213506D01*
X0150319Y0213990D02*
X0150391Y0214007D01*
X0150464Y0214021D01*
X0150538Y0214032D01*
X0150612Y0214041D01*
X0150686Y0214047D01*
X0150760Y0214050D01*
X0149129Y0207557D02*
X0149270Y0207468D01*
X0149412Y0207383D01*
X0149557Y0207301D01*
X0151812Y0208212D02*
X0151887Y0208244D01*
X0151960Y0208278D01*
X0152031Y0208316D01*
X0152100Y0208357D01*
X0152168Y0208401D01*
X0152234Y0208448D01*
X0152297Y0208498D01*
X0152359Y0208551D01*
X0150760Y0208112D02*
X0150674Y0208132D01*
X0150588Y0208156D01*
X0150504Y0208184D01*
X0150421Y0208215D01*
X0150340Y0208250D01*
X0150260Y0208289D01*
X0150181Y0208331D01*
X0150105Y0208376D01*
X0150031Y0208425D01*
X0147982Y0209682D02*
X0147968Y0209772D01*
X0147956Y0209862D01*
X0147948Y0209953D01*
X0152601Y0212071D02*
X0152647Y0211985D01*
X0152689Y0211897D01*
X0152728Y0211808D01*
X0152763Y0211718D01*
X0152795Y0211626D01*
X0152823Y0211533D01*
X0152847Y0211438D01*
X0149423Y0211575D02*
X0149402Y0211492D01*
X0149383Y0211407D01*
X0149367Y0211322D01*
X0149354Y0211236D01*
X0149344Y0211150D01*
X0149337Y0211064D01*
X0148607Y0212904D02*
X0148659Y0212973D01*
X0148714Y0213040D01*
X0148771Y0213105D01*
X0148831Y0213168D01*
X0148893Y0213228D01*
X0150101Y0212591D02*
X0150156Y0212630D01*
X0150214Y0212665D01*
X0150273Y0212698D01*
X0150335Y0212726D01*
X0150397Y0212751D01*
X0150461Y0212773D01*
X0152184Y0212557D02*
X0152240Y0212512D01*
X0152294Y0212465D01*
X0152346Y0212415D01*
X0152395Y0212363D01*
X0152442Y0212309D01*
X0152486Y0212252D01*
X0152527Y0212193D01*
X0152566Y0212133D01*
X0152601Y0212071D01*
X0150240Y0207001D02*
X0150122Y0207042D01*
X0150006Y0207087D01*
X0149892Y0207136D01*
X0149778Y0207187D01*
X0149667Y0207242D01*
X0149557Y0207300D01*
X0194539Y0210693D02*
X0194528Y0211243D01*
X0194510Y0211793D01*
X0157046Y0211168D02*
X0157037Y0210691D01*
X0157034Y0210213D01*
X0156690Y0213972D02*
X0156597Y0213978D01*
X0156504Y0213981D01*
X0156410Y0213982D01*
X0154626Y0226603D02*
X0154440Y0226595D01*
X0154255Y0226584D01*
X0154070Y0226569D01*
X0153885Y0226550D01*
X0153191Y0217314D02*
X0153304Y0217302D01*
X0153416Y0217294D01*
X0153529Y0217289D01*
X0153642Y0217288D01*
X0153192Y0217314D02*
X0153181Y0217378D01*
X0153174Y0217443D01*
X0153171Y0217509D01*
X0153170Y0217574D01*
X0160760Y0217660D02*
X0160782Y0217847D01*
X0160800Y0218033D01*
X0160815Y0218220D01*
X0172443Y0220651D02*
X0172478Y0220857D01*
X0172508Y0221063D01*
X0172534Y0221270D01*
X0172555Y0221477D01*
X0172571Y0221685D01*
X0172582Y0221893D01*
X0172588Y0222102D01*
X0172590Y0222310D01*
X0172587Y0222518D01*
X0172579Y0222727D01*
X0172566Y0222935D01*
X0172548Y0223143D01*
X0182280Y0221470D02*
X0182305Y0221362D01*
X0182327Y0221253D01*
X0174302Y0219605D02*
X0174308Y0219461D01*
X0174315Y0219318D01*
X0182219Y0218147D02*
X0182230Y0218058D01*
X0182237Y0217968D01*
X0182241Y0217879D01*
X0182241Y0217789D01*
X0182237Y0217700D01*
X0182230Y0217610D01*
X0182219Y0217521D01*
X0182144Y0217424D02*
X0182130Y0217419D01*
X0182115Y0217417D01*
X0182143Y0217424D02*
X0182162Y0217435D01*
X0182179Y0217448D01*
X0182193Y0217464D01*
X0182205Y0217482D01*
X0182213Y0217501D01*
X0182218Y0217522D01*
X0189244Y0220577D02*
X0189355Y0220423D01*
X0189463Y0220266D01*
X0189567Y0220107D01*
X0189880Y0207019D02*
X0189617Y0207011D01*
X0189354Y0207008D01*
X0189091Y0207011D01*
X0188828Y0207019D01*
X0188829Y0207019D02*
X0188790Y0207020D01*
X0188752Y0207023D01*
X0188715Y0207028D01*
X0188678Y0207036D01*
X0190031Y0207035D02*
X0190039Y0207113D01*
X0190043Y0207191D01*
X0190044Y0207269D01*
X0190042Y0207347D01*
X0190031Y0207036D02*
X0189994Y0207028D01*
X0189957Y0207023D01*
X0189919Y0207020D01*
X0189880Y0207019D01*
X0178191Y0207036D02*
X0178180Y0207279D01*
X0178174Y0207522D01*
X0178174Y0207765D01*
X0187218Y0211453D02*
X0187191Y0211575D01*
X0187160Y0211697D01*
X0187127Y0211817D01*
X0187090Y0211937D01*
X0187052Y0212056D01*
X0187010Y0212174D01*
X0182543Y0207301D02*
X0182398Y0207383D01*
X0182256Y0207468D01*
X0182115Y0207557D01*
X0182052Y0207602D01*
X0181992Y0207650D01*
X0181934Y0207700D01*
X0181879Y0207754D01*
X0181827Y0207810D01*
X0185793Y0209377D02*
X0185822Y0209490D01*
X0185847Y0209605D01*
X0185868Y0209720D01*
X0185885Y0209836D01*
X0185899Y0209952D01*
X0182389Y0209509D02*
X0182368Y0209618D01*
X0182351Y0209729D01*
X0182336Y0209840D01*
X0182325Y0209951D01*
X0187184Y0209328D02*
X0187211Y0209456D01*
X0187235Y0209585D01*
X0187254Y0209715D01*
X0187270Y0209845D01*
X0187283Y0209975D01*
X0182325Y0209951D02*
X0182313Y0210110D01*
X0182306Y0210269D01*
X0182302Y0210428D01*
X0182301Y0210587D01*
X0182305Y0210746D01*
X0182312Y0210905D01*
X0182322Y0211064D01*
X0185807Y0211538D02*
X0185831Y0211438D01*
X0185853Y0211336D01*
X0185871Y0211234D01*
X0185887Y0211132D01*
X0185899Y0211029D01*
X0181826Y0207810D02*
X0181754Y0207894D01*
X0181685Y0207979D01*
X0181617Y0208067D01*
X0181552Y0208155D01*
X0181488Y0208246D01*
X0182635Y0208876D02*
X0182664Y0208825D01*
X0182695Y0208775D01*
X0182729Y0208726D01*
X0182764Y0208679D01*
X0183226Y0207001D02*
X0183317Y0206974D01*
X0183409Y0206951D01*
X0183502Y0206931D01*
X0183595Y0206915D01*
X0183689Y0206903D01*
X0183784Y0206894D01*
X0183879Y0206889D01*
X0183974Y0206888D01*
X0184068Y0206891D01*
X0184163Y0206897D01*
X0185518Y0207174D02*
X0185576Y0207196D01*
X0185633Y0207221D01*
X0185690Y0207248D01*
X0185744Y0207278D01*
X0185798Y0207310D01*
X0182216Y0213506D02*
X0182392Y0213633D01*
X0182462Y0213677D01*
X0182533Y0213718D01*
X0182606Y0213756D01*
X0182681Y0213790D01*
X0182757Y0213821D01*
X0184163Y0206897D02*
X0184301Y0206909D01*
X0184439Y0206924D01*
X0184576Y0206944D01*
X0184713Y0206966D01*
X0184849Y0206992D01*
X0184985Y0207022D01*
X0185119Y0207055D01*
X0185253Y0207091D01*
X0185386Y0207131D01*
X0185517Y0207174D01*
X0183291Y0213989D02*
X0183182Y0213961D01*
X0183075Y0213930D01*
X0182968Y0213896D01*
X0182862Y0213860D01*
X0182757Y0213821D01*
X0183291Y0213989D02*
X0183360Y0214006D01*
X0183429Y0214021D01*
X0183499Y0214032D01*
X0183570Y0214041D01*
X0183640Y0214047D01*
X0183711Y0214050D01*
X0183447Y0212773D02*
X0183383Y0212751D01*
X0183321Y0212726D01*
X0183259Y0212698D01*
X0183200Y0212665D01*
X0183142Y0212630D01*
X0183087Y0212591D01*
X0181879Y0213228D02*
X0181817Y0213168D01*
X0181757Y0213105D01*
X0181700Y0213040D01*
X0181645Y0212973D01*
X0181593Y0212904D01*
X0181316Y0222800D02*
X0181177Y0222804D01*
X0181038Y0222805D01*
X0180900Y0222804D01*
X0179059Y0222903D02*
X0179057Y0223033D01*
X0179058Y0223163D01*
X0179062Y0223293D01*
X0179069Y0223422D01*
X0184554Y0226355D02*
X0184630Y0226383D01*
X0184708Y0226408D01*
X0184786Y0226430D01*
X0184865Y0226448D01*
X0184945Y0226463D01*
X0192356Y0217275D02*
X0192615Y0217401D01*
X0192871Y0217533D01*
X0193123Y0217671D01*
X0194649Y0218771D02*
X0194624Y0218823D01*
X0194595Y0218873D01*
X0194564Y0218920D01*
X0194529Y0218966D01*
X0194649Y0218772D02*
X0194631Y0218746D01*
X0194610Y0218721D01*
X0194588Y0218698D01*
X0194563Y0218678D01*
X0193106Y0221810D02*
X0192988Y0221759D01*
X0193534Y0222120D02*
X0193582Y0222171D01*
X0193627Y0222223D01*
X0193669Y0222278D01*
X0193709Y0222334D01*
X0193747Y0222393D01*
X0193781Y0222453D01*
X0129852Y0220313D02*
X0129881Y0219299D01*
X0129926Y0218286D01*
X0130053Y0217710D02*
X0130074Y0217674D01*
X0130096Y0217640D01*
X0130122Y0217608D01*
X0130149Y0217578D01*
X0130179Y0217550D01*
X0130210Y0217524D01*
X0130243Y0217500D01*
X0130243Y0217501D02*
X0130294Y0217471D01*
X0130346Y0217446D01*
X0130399Y0217423D01*
X0130454Y0217404D01*
X0130510Y0217389D01*
X0130054Y0217710D02*
X0130029Y0217763D01*
X0130007Y0217818D01*
X0129988Y0217874D01*
X0129973Y0217931D01*
X0129961Y0217989D01*
X0160853Y0219347D02*
X0160847Y0219910D01*
X0160830Y0220474D01*
X0167812Y0212374D02*
X0167948Y0212425D01*
X0168083Y0212477D01*
X0170848Y0210149D02*
X0170852Y0210061D01*
X0170853Y0209974D01*
X0170795Y0209293D02*
X0170779Y0209221D01*
X0170758Y0209151D01*
X0170734Y0209082D01*
X0170707Y0209014D01*
X0170676Y0208948D01*
X0170641Y0208883D01*
X0170603Y0208821D01*
X0170562Y0208760D01*
X0170517Y0208702D01*
X0166579Y0208778D02*
X0166572Y0208882D01*
X0166570Y0208986D01*
X0166571Y0209091D01*
X0166577Y0209195D01*
X0166585Y0209299D01*
X0166598Y0209402D01*
X0166615Y0209505D01*
X0166635Y0209608D01*
X0166648Y0209669D01*
X0166664Y0209728D01*
X0166685Y0209786D01*
X0166709Y0209844D01*
X0166736Y0209899D01*
X0166767Y0209952D01*
X0167427Y0210682D02*
X0167480Y0210719D01*
X0167533Y0210755D01*
X0167588Y0210789D01*
X0167645Y0210820D01*
X0167703Y0210850D01*
X0170281Y0208471D02*
X0170343Y0208525D01*
X0170404Y0208582D01*
X0170462Y0208641D01*
X0170517Y0208703D01*
X0168400Y0209875D02*
X0168346Y0209826D01*
X0168295Y0209774D01*
X0168246Y0209720D01*
X0168200Y0209663D01*
X0168157Y0209604D01*
X0168118Y0209543D01*
X0168081Y0209479D01*
X0168399Y0209876D02*
X0168444Y0209907D01*
X0168490Y0209935D01*
X0168539Y0209959D01*
X0168589Y0209980D01*
X0168640Y0209998D01*
X0168693Y0210012D01*
X0168746Y0210022D01*
X0169858Y0208216D02*
X0169923Y0208244D01*
X0169986Y0208275D01*
X0170049Y0208309D01*
X0170109Y0208345D01*
X0170168Y0208384D01*
X0170226Y0208426D01*
X0170281Y0208470D01*
X0170497Y0207353D02*
X0170430Y0207304D01*
X0170361Y0207259D01*
X0170290Y0207216D01*
X0170217Y0207176D01*
X0170143Y0207139D01*
X0170068Y0207105D01*
X0169991Y0207074D01*
X0169913Y0207047D01*
X0169833Y0207022D01*
X0169753Y0207001D01*
X0169256Y0206907D02*
X0169172Y0206899D01*
X0169088Y0206895D01*
X0169004Y0206894D01*
X0168920Y0206898D01*
X0167636Y0207140D02*
X0167578Y0207165D01*
X0167522Y0207194D01*
X0167467Y0207226D01*
X0167414Y0207260D01*
X0167363Y0207298D01*
X0168330Y0208251D02*
X0168289Y0208276D01*
X0168251Y0208304D01*
X0168215Y0208334D01*
X0168181Y0208367D01*
X0168150Y0208403D01*
X0168121Y0208440D01*
X0168095Y0208480D01*
X0168072Y0208521D01*
X0168052Y0208563D01*
X0168769Y0208089D02*
X0168827Y0208082D01*
X0168885Y0208078D01*
X0166767Y0208007D02*
X0166734Y0208089D01*
X0166703Y0208173D01*
X0166676Y0208257D01*
X0166652Y0208342D01*
X0166631Y0208428D01*
X0166613Y0208515D01*
X0166598Y0208602D01*
X0166587Y0208690D01*
X0166579Y0208778D01*
X0167965Y0208958D02*
X0167962Y0209018D01*
X0167963Y0209078D01*
X0167969Y0209138D01*
X0167978Y0209198D01*
X0167991Y0209257D01*
X0168008Y0209315D01*
X0168029Y0209371D01*
X0168053Y0209426D01*
X0168080Y0209480D01*
X0168330Y0208251D02*
X0168388Y0208217D01*
X0168448Y0208187D01*
X0168510Y0208160D01*
X0168573Y0208136D01*
X0168637Y0208116D01*
X0168703Y0208100D01*
X0168769Y0208088D01*
X0167363Y0207298D02*
X0167280Y0207366D01*
X0167201Y0207438D01*
X0167123Y0207513D01*
X0194217Y0219406D02*
X0194530Y0218967D01*
X0194360Y0207018D02*
X0194097Y0207010D01*
X0193834Y0207007D01*
X0193571Y0207010D01*
X0193308Y0207018D01*
X0192358Y0214050D02*
X0192282Y0214058D01*
X0192205Y0214064D01*
X0192670Y0212661D02*
X0192697Y0212646D01*
X0192723Y0212629D01*
X0192748Y0212611D01*
X0192784Y0212580D01*
X0192818Y0212546D01*
X0192849Y0212511D01*
X0192877Y0212473D01*
X0193061Y0212168D02*
X0193080Y0212123D01*
X0193095Y0212076D01*
X0193107Y0212029D01*
X0193116Y0211980D01*
X0193121Y0211932D01*
X0190341Y0212205D02*
X0190304Y0212135D01*
X0190269Y0212065D01*
X0190236Y0211993D01*
X0190206Y0211920D01*
X0190178Y0211847D01*
X0194494Y0212014D02*
X0194504Y0211903D01*
X0194510Y0211793D01*
X0190178Y0211847D02*
X0190148Y0211769D01*
X0190121Y0211690D01*
X0190098Y0211609D01*
X0190078Y0211528D01*
X0190061Y0211446D01*
X0190048Y0211364D01*
X0190038Y0211281D01*
X0192878Y0212473D02*
X0192919Y0212415D01*
X0192958Y0212355D01*
X0192995Y0212294D01*
X0193029Y0212232D01*
X0193062Y0212169D01*
X0192037Y0212859D02*
X0191982Y0212865D01*
X0191927Y0212868D01*
X0191872Y0212869D01*
X0190866Y0213873D02*
X0190791Y0213846D01*
X0190718Y0213816D01*
X0190646Y0213783D01*
X0190575Y0213748D01*
X0190505Y0213710D01*
X0190643Y0212544D02*
X0190592Y0212503D01*
X0190544Y0212459D01*
X0190498Y0212413D01*
X0190454Y0212364D01*
X0190414Y0212313D01*
X0190376Y0212260D01*
X0190341Y0212205D01*
X0190643Y0212543D02*
X0190695Y0212581D01*
X0190749Y0212615D01*
X0190805Y0212647D01*
X0190862Y0212676D01*
X0190920Y0212703D01*
X0194268Y0212869D02*
X0194306Y0212778D01*
X0194341Y0212685D01*
X0194372Y0212592D01*
X0194401Y0212497D01*
X0194426Y0212402D01*
X0194448Y0212306D01*
X0194467Y0212209D01*
X0194482Y0212111D01*
X0194494Y0212013D01*
X0192205Y0214064D02*
X0192104Y0214070D01*
X0192002Y0214073D01*
X0191899Y0214072D01*
X0191797Y0214068D01*
X0191696Y0214060D01*
X0191594Y0214049D01*
X0193677Y0213599D02*
X0193748Y0213536D01*
X0193817Y0213471D01*
X0193884Y0213403D01*
X0193948Y0213334D01*
X0194010Y0213262D01*
X0194070Y0213189D01*
X0192669Y0212660D02*
X0192595Y0212698D01*
X0192519Y0212731D01*
X0192441Y0212762D01*
X0192362Y0212788D01*
X0192282Y0212812D01*
X0192201Y0212831D01*
X0192119Y0212847D01*
X0192036Y0212859D01*
X0190037Y0211280D02*
X0190033Y0211224D01*
X0190030Y0211167D01*
X0189676Y0213972D02*
X0189583Y0213978D01*
X0189490Y0213981D01*
X0189396Y0213982D01*
X0190921Y0212704D02*
X0190996Y0212734D01*
X0191073Y0212760D01*
X0191151Y0212784D01*
X0191230Y0212803D01*
X0192358Y0214050D02*
X0192461Y0214039D01*
X0192564Y0214024D01*
X0192667Y0214006D01*
X0192769Y0213986D01*
X0192871Y0213962D01*
X0192971Y0213935D01*
X0193071Y0213905D01*
X0193170Y0213872D01*
X0193268Y0213836D01*
X0191872Y0217106D02*
X0191841Y0217117D01*
X0191811Y0217132D01*
X0191782Y0217149D01*
X0191755Y0217168D01*
X0191729Y0217189D01*
X0191872Y0217105D02*
X0191908Y0217107D01*
X0191945Y0217112D01*
X0191981Y0217120D01*
X0192016Y0217131D01*
X0192050Y0217145D01*
X0191729Y0217189D02*
X0191655Y0217250D01*
X0191583Y0217313D01*
X0191513Y0217379D01*
X0191975Y0226029D02*
X0191820Y0226071D01*
X0191664Y0226109D01*
X0191507Y0226143D01*
X0191349Y0226174D01*
X0191191Y0226201D01*
X0191032Y0226225D01*
X0190872Y0226244D01*
X0190712Y0226260D01*
X0190552Y0226272D01*
X0174288Y0225604D02*
X0174275Y0225278D01*
X0174268Y0224953D01*
X0189972Y0213368D02*
X0190304Y0213585D01*
X0191230Y0212804D02*
X0191320Y0212822D01*
X0191411Y0212838D01*
X0191503Y0212850D01*
X0191595Y0212860D01*
X0191687Y0212866D01*
X0191779Y0212870D01*
X0191872Y0212870D01*
X0191594Y0214050D02*
X0191470Y0214030D01*
X0191347Y0214006D01*
X0191225Y0213979D01*
X0191104Y0213947D01*
X0190984Y0213912D01*
X0190865Y0213874D01*
X0187011Y0212175D02*
X0186983Y0212249D01*
X0186952Y0212323D01*
X0186919Y0212395D01*
X0186883Y0212465D01*
X0182409Y0211575D02*
X0182388Y0211492D01*
X0182369Y0211407D01*
X0182353Y0211322D01*
X0182340Y0211236D01*
X0182330Y0211150D01*
X0182323Y0211064D01*
X0185434Y0212286D02*
X0185484Y0212219D01*
X0185532Y0212150D01*
X0185577Y0212079D01*
X0185619Y0212006D01*
X0185658Y0211932D01*
X0185694Y0211856D01*
X0185727Y0211778D01*
X0185757Y0211700D01*
X0185784Y0211620D01*
X0185808Y0211539D01*
X0181593Y0212904D02*
X0181543Y0212830D01*
X0181494Y0212755D01*
X0181447Y0212679D01*
X0186629Y0212869D02*
X0186684Y0212791D01*
X0186737Y0212712D01*
X0186788Y0212631D01*
X0186836Y0212549D01*
X0186883Y0212465D01*
X0186628Y0212869D02*
X0186571Y0212947D01*
X0186511Y0213022D01*
X0186448Y0213095D01*
X0186383Y0213166D01*
X0186315Y0213234D01*
X0186244Y0213299D01*
X0186171Y0213362D01*
X0186096Y0213422D01*
X0185081Y0212611D02*
X0185138Y0212572D01*
X0185192Y0212530D01*
X0185245Y0212486D01*
X0185296Y0212439D01*
X0185344Y0212390D01*
X0185390Y0212339D01*
X0185434Y0212286D01*
X0183226Y0207001D02*
X0183108Y0207042D01*
X0182992Y0207087D01*
X0182878Y0207136D01*
X0182764Y0207187D01*
X0182653Y0207242D01*
X0182543Y0207300D01*
X0183127Y0208342D02*
X0183186Y0208304D01*
X0183247Y0208270D01*
X0183309Y0208238D01*
X0183373Y0208210D01*
X0183439Y0208185D01*
X0183505Y0208164D01*
X0183573Y0208147D01*
X0184608Y0208136D02*
X0184674Y0208152D01*
X0184739Y0208172D01*
X0184803Y0208195D01*
X0184866Y0208221D01*
X0184927Y0208250D01*
X0184986Y0208282D01*
X0185044Y0208317D01*
X0185100Y0208355D01*
X0186178Y0207591D02*
X0186246Y0207650D01*
X0186313Y0207711D01*
X0186377Y0207774D01*
X0186440Y0207839D01*
X0186499Y0207907D01*
X0186557Y0207976D01*
X0186611Y0208048D01*
X0186664Y0208122D01*
X0186713Y0208197D01*
X0182636Y0208876D02*
X0182590Y0208962D01*
X0182548Y0209049D01*
X0182509Y0209139D01*
X0182474Y0209229D01*
X0182442Y0209321D01*
X0182414Y0209414D01*
X0182390Y0209508D01*
X0186713Y0208196D02*
X0186772Y0208291D01*
X0186828Y0208388D01*
X0186881Y0208487D01*
X0186931Y0208587D01*
X0186977Y0208689D01*
X0187020Y0208792D01*
X0187060Y0208897D01*
X0187096Y0209003D01*
X0187129Y0209110D01*
X0187158Y0209218D01*
X0187184Y0209327D01*
X0181101Y0209151D02*
X0181069Y0209255D01*
X0181039Y0209361D01*
X0181013Y0209467D01*
X0180990Y0209574D01*
X0180969Y0209682D01*
X0180968Y0209682D02*
X0180954Y0209772D01*
X0180942Y0209862D01*
X0180934Y0209953D01*
X0185101Y0208355D02*
X0185166Y0208408D01*
X0185229Y0208463D01*
X0185290Y0208520D01*
X0185348Y0208581D01*
X0185404Y0208643D01*
X0185456Y0208708D01*
X0185506Y0208776D01*
X0185553Y0208845D01*
X0185597Y0208916D01*
X0185638Y0208989D01*
X0185676Y0209064D01*
X0185710Y0209141D01*
X0185741Y0209219D01*
X0185769Y0209298D01*
X0185793Y0209378D01*
X0182216Y0213506D02*
X0182129Y0213440D01*
X0182044Y0213371D01*
X0181961Y0213301D01*
X0181879Y0213228D01*
X0184511Y0212835D02*
X0184586Y0212819D01*
X0184661Y0212800D01*
X0184734Y0212777D01*
X0184807Y0212751D01*
X0184878Y0212721D01*
X0184947Y0212688D01*
X0185015Y0212652D01*
X0185082Y0212612D01*
X0186095Y0213421D02*
X0186014Y0213483D01*
X0185930Y0213542D01*
X0185844Y0213598D01*
X0185756Y0213651D01*
X0185667Y0213700D01*
X0185576Y0213747D01*
X0185483Y0213791D01*
X0185389Y0213831D01*
X0185294Y0213868D01*
X0185197Y0213902D01*
X0185099Y0213933D01*
X0185001Y0213960D01*
X0184901Y0213983D01*
X0184801Y0214004D01*
X0184510Y0212835D02*
X0184431Y0212850D01*
X0184352Y0212860D01*
X0184272Y0212868D01*
X0184192Y0212871D01*
X0183086Y0212591D02*
X0183018Y0212534D01*
X0182953Y0212474D01*
X0182890Y0212412D01*
X0182830Y0212347D01*
X0182773Y0212279D01*
X0182719Y0212208D01*
X0182668Y0212136D01*
X0182621Y0212061D01*
X0182577Y0211984D01*
X0182536Y0211905D01*
X0182499Y0211825D01*
X0182465Y0211743D01*
X0182435Y0211659D01*
X0182409Y0211575D01*
X0187219Y0211453D02*
X0187239Y0211355D01*
X0187256Y0211257D01*
X0187270Y0211158D01*
X0187281Y0211059D01*
X0187289Y0210959D01*
X0181447Y0212679D02*
X0181393Y0212586D01*
X0181342Y0212491D01*
X0181293Y0212395D01*
X0181247Y0212298D01*
X0181205Y0212199D01*
X0181165Y0212099D01*
X0181129Y0211998D01*
X0181095Y0211896D01*
X0181065Y0211792D01*
X0181038Y0211688D01*
X0183572Y0208147D02*
X0183665Y0208129D01*
X0183759Y0208114D01*
X0183853Y0208102D01*
X0183948Y0208095D01*
X0184042Y0208090D01*
X0184137Y0208089D01*
X0184232Y0208092D01*
X0184326Y0208097D01*
X0184421Y0208107D01*
X0184515Y0208120D01*
X0184608Y0208136D01*
X0183127Y0208342D02*
X0183069Y0208383D01*
X0183012Y0208426D01*
X0182958Y0208472D01*
X0182906Y0208520D01*
X0182856Y0208571D01*
X0182809Y0208624D01*
X0182764Y0208678D01*
X0185798Y0207311D02*
X0185877Y0207362D01*
X0185955Y0207416D01*
X0186031Y0207472D01*
X0186105Y0207531D01*
X0186177Y0207592D01*
X0184801Y0214004D02*
X0184693Y0214020D01*
X0184585Y0214033D01*
X0184476Y0214042D01*
X0184367Y0214049D01*
X0184258Y0214052D01*
X0184193Y0212871D02*
X0184098Y0212872D01*
X0184004Y0212869D01*
X0183910Y0212862D01*
X0183816Y0212851D01*
X0183723Y0212837D01*
X0183630Y0212819D01*
X0183538Y0212798D01*
X0183447Y0212773D01*
X0184730Y0217463D02*
X0184714Y0217484D01*
X0184701Y0217506D01*
X0184691Y0217531D01*
X0184684Y0217556D01*
X0184730Y0217464D02*
X0184750Y0217444D01*
X0184771Y0217426D01*
X0184794Y0217410D01*
X0184818Y0217396D01*
X0184818Y0217397D02*
X0184855Y0217379D01*
X0184892Y0217364D01*
X0184931Y0217351D01*
X0184931Y0217350D02*
X0184990Y0217335D01*
X0185049Y0217324D01*
X0185110Y0217317D01*
X0185170Y0217313D01*
X0178938Y0219375D02*
X0178935Y0219510D01*
X0178936Y0219646D01*
X0189028Y0220578D02*
X0189045Y0220591D01*
X0189064Y0220600D01*
X0189164Y0220616D02*
X0189182Y0220613D01*
X0189200Y0220608D01*
X0189216Y0220600D01*
X0189232Y0220590D01*
X0189245Y0220578D01*
X0189163Y0220615D02*
X0189138Y0220616D01*
X0189113Y0220614D01*
X0189088Y0220608D01*
X0189064Y0220600D01*
X0192049Y0217146D02*
X0192153Y0217186D01*
X0192255Y0217229D01*
X0192356Y0217275D01*
X0188999Y0220236D02*
X0189001Y0220322D01*
X0189006Y0220407D01*
X0189015Y0220493D01*
X0189027Y0220577D01*
X0189033Y0224769D02*
X0189125Y0224777D01*
X0189216Y0224781D01*
X0189308Y0224782D01*
X0189399Y0224780D01*
X0189491Y0224774D01*
X0189582Y0224765D01*
X0188923Y0224744D02*
X0188912Y0224706D01*
X0188904Y0224667D01*
X0188899Y0224628D01*
X0188898Y0224588D01*
X0188922Y0224744D02*
X0188949Y0224755D01*
X0188977Y0224763D01*
X0189005Y0224768D01*
X0189034Y0224770D01*
X0193781Y0222452D02*
X0193827Y0222547D01*
X0193872Y0222644D01*
X0193415Y0225399D02*
X0193340Y0225455D01*
X0193262Y0225507D01*
X0193183Y0225556D01*
X0193102Y0225603D01*
X0193019Y0225645D01*
X0193535Y0222120D02*
X0193468Y0222055D01*
X0193400Y0221992D01*
X0193330Y0221931D01*
X0193020Y0225645D02*
X0192920Y0225695D01*
X0192819Y0225741D01*
X0192716Y0225784D01*
X0192613Y0225825D01*
X0192508Y0225863D01*
X0194022Y0223044D02*
X0193989Y0222942D01*
X0193954Y0222842D01*
X0193914Y0222742D01*
X0193872Y0222644D01*
X0190468Y0218649D02*
X0190559Y0218512D01*
X0190653Y0218377D01*
X0190751Y0218244D01*
X0190851Y0218113D01*
X0190954Y0217985D01*
X0191061Y0217859D01*
X0191170Y0217735D01*
X0191281Y0217614D01*
X0191396Y0217496D01*
X0191513Y0217380D01*
X0189901Y0224699D02*
X0189822Y0224721D01*
X0189743Y0224739D01*
X0189663Y0224753D01*
X0189582Y0224764D01*
X0193753Y0218055D02*
X0193599Y0217954D01*
X0193443Y0217856D01*
X0193284Y0217762D01*
X0193123Y0217671D01*
X0188920Y0222730D02*
X0188905Y0222732D01*
X0188891Y0222738D01*
X0188878Y0222746D01*
X0188867Y0222757D01*
X0188859Y0222770D01*
X0188853Y0222784D01*
X0188851Y0222799D01*
X0190517Y0223667D02*
X0190519Y0223743D01*
X0190518Y0223818D01*
X0190513Y0223893D01*
X0190506Y0223968D01*
X0190495Y0224042D01*
X0190481Y0224116D01*
X0190518Y0223667D02*
X0190513Y0223629D01*
X0190505Y0223592D01*
X0190493Y0223555D01*
X0190478Y0223520D01*
X0190459Y0223486D01*
X0190438Y0223454D01*
X0190414Y0223424D01*
X0194079Y0224012D02*
X0194067Y0224115D01*
X0194051Y0224217D01*
X0194032Y0224319D01*
X0194010Y0224419D01*
X0193984Y0224520D01*
X0193954Y0224619D01*
X0193922Y0224717D01*
X0193886Y0224814D01*
X0188898Y0224587D02*
X0188886Y0224407D01*
X0188878Y0224227D01*
X0190011Y0223041D02*
X0190068Y0223082D01*
X0190122Y0223125D01*
X0190174Y0223171D01*
X0190223Y0223220D01*
X0190361Y0224379D02*
X0190326Y0224424D01*
X0190287Y0224467D01*
X0190247Y0224507D01*
X0190203Y0224544D01*
X0190157Y0224578D01*
X0190110Y0224609D01*
X0190060Y0224637D01*
X0190008Y0224661D01*
X0189955Y0224682D01*
X0189901Y0224700D01*
X0190362Y0224380D02*
X0190388Y0224340D01*
X0190413Y0224298D01*
X0190434Y0224254D01*
X0190453Y0224209D01*
X0190469Y0224164D01*
X0190482Y0224117D01*
X0190012Y0223041D02*
X0189974Y0223017D01*
X0189934Y0222994D01*
X0189893Y0222973D01*
X0189892Y0222973D02*
X0189819Y0222941D01*
X0189744Y0222912D01*
X0189668Y0222886D01*
X0189592Y0222863D01*
X0189514Y0222842D01*
X0193754Y0218055D02*
X0193921Y0218173D01*
X0194085Y0218294D01*
X0194247Y0218419D01*
X0194407Y0218547D01*
X0194563Y0218678D01*
X0184684Y0217556D02*
X0184631Y0217861D01*
X0184584Y0218167D01*
X0184543Y0218473D01*
X0184509Y0218780D01*
X0184481Y0219089D01*
X0189119Y0222763D02*
X0189251Y0222786D01*
X0189383Y0222813D01*
X0189514Y0222843D01*
X0167123Y0207513D02*
X0167010Y0207626D01*
X0168920Y0211203D02*
X0169145Y0211222D01*
X0169369Y0211236D01*
X0164096Y0213884D02*
X0164003Y0213916D01*
X0163908Y0213944D01*
X0163812Y0213969D01*
X0163715Y0213990D01*
X0163618Y0214007D01*
X0163326Y0212803D02*
X0163381Y0212783D01*
X0163434Y0212760D01*
X0163487Y0212733D01*
X0163537Y0212704D01*
X0163586Y0212671D01*
X0163633Y0212636D01*
X0163678Y0212598D01*
X0163720Y0212557D01*
X0163760Y0212514D01*
X0163797Y0212469D01*
X0163832Y0212421D01*
X0163863Y0212372D01*
X0164979Y0213199D02*
X0165027Y0213121D01*
X0165073Y0213041D01*
X0165116Y0212959D01*
X0165156Y0212876D01*
X0165192Y0212792D01*
X0165226Y0212706D01*
X0165256Y0212619D01*
X0165283Y0212531D01*
X0165307Y0212442D01*
X0165328Y0212353D01*
X0165345Y0212262D01*
X0165359Y0212171D01*
X0165369Y0212080D01*
X0161351Y0211932D02*
X0161321Y0211853D01*
X0161294Y0211772D01*
X0161271Y0211691D01*
X0161252Y0211608D01*
X0161237Y0211525D01*
X0161225Y0211441D01*
X0161216Y0211357D01*
X0161212Y0211272D01*
X0161705Y0212497D02*
X0161746Y0212537D01*
X0161789Y0212574D01*
X0161834Y0212610D01*
X0161881Y0212642D01*
X0161592Y0213703D02*
X0161665Y0213749D01*
X0161740Y0213792D01*
X0161816Y0213831D01*
X0161894Y0213868D01*
X0161973Y0213901D01*
X0162053Y0213932D01*
X0162135Y0213959D01*
X0162218Y0213983D01*
X0162301Y0214003D01*
X0162385Y0214020D01*
X0162470Y0214034D01*
X0163863Y0212371D02*
X0163894Y0212316D01*
X0163922Y0212258D01*
X0163947Y0212200D01*
X0163968Y0212140D01*
X0163987Y0212079D01*
X0164001Y0212017D01*
X0164012Y0211954D01*
X0164020Y0211891D01*
X0164024Y0211827D01*
X0161705Y0212497D02*
X0161655Y0212441D01*
X0161608Y0212383D01*
X0161563Y0212324D01*
X0161521Y0212262D01*
X0161481Y0212199D01*
X0161444Y0212134D01*
X0161410Y0212068D01*
X0161379Y0212000D01*
X0161351Y0211931D01*
X0162745Y0212847D02*
X0162834Y0212852D01*
X0162923Y0212853D01*
X0163013Y0212851D01*
X0163102Y0212844D01*
X0163191Y0212835D01*
X0163123Y0214054D02*
X0163222Y0214050D01*
X0163322Y0214043D01*
X0163421Y0214033D01*
X0163520Y0214021D01*
X0163619Y0214006D01*
X0144030Y0209648D02*
X0144035Y0209333D01*
X0144044Y0209017D01*
X0144059Y0208702D01*
X0140913Y0207604D02*
X0140825Y0207546D01*
X0140739Y0207486D01*
X0141050Y0213962D02*
X0141313Y0213970D01*
X0141576Y0213973D01*
X0141839Y0213970D01*
X0142102Y0213962D01*
X0136420Y0213946D02*
X0136411Y0213852D01*
X0136405Y0213759D01*
X0136401Y0213665D01*
X0136401Y0213572D01*
X0140263Y0207178D02*
X0140384Y0207252D01*
X0140504Y0207327D01*
X0140622Y0207405D01*
X0140739Y0207485D01*
X0137623Y0213962D02*
X0137360Y0213970D01*
X0137097Y0213973D01*
X0136834Y0213970D01*
X0136571Y0213962D01*
X0136572Y0213962D02*
X0136533Y0213961D01*
X0136495Y0213958D01*
X0136458Y0213953D01*
X0136421Y0213945D01*
X0137623Y0213962D02*
X0137662Y0213961D01*
X0137700Y0213958D01*
X0137737Y0213953D01*
X0137774Y0213945D01*
X0147306Y0213817D02*
X0147313Y0213639D01*
X0147317Y0213462D01*
X0147317Y0213284D01*
X0147313Y0213107D01*
X0147306Y0212929D01*
X0153856Y0212530D02*
X0153910Y0212428D01*
X0153960Y0212325D01*
X0154008Y0212220D01*
X0154052Y0212114D01*
X0154093Y0212006D01*
X0154130Y0211897D01*
X0154164Y0211787D01*
X0154194Y0211676D01*
X0154221Y0211564D01*
X0154245Y0211451D01*
X0154265Y0211338D01*
X0154281Y0211224D01*
X0154294Y0211109D01*
X0154303Y0210995D01*
X0148607Y0212904D02*
X0148557Y0212830D01*
X0148508Y0212755D01*
X0148461Y0212679D01*
X0151524Y0212835D02*
X0151603Y0212818D01*
X0151680Y0212798D01*
X0151757Y0212774D01*
X0151832Y0212747D01*
X0151906Y0212716D01*
X0151978Y0212681D01*
X0152049Y0212643D01*
X0152118Y0212602D01*
X0152184Y0212557D01*
X0153394Y0213168D02*
X0153318Y0213243D01*
X0153240Y0213315D01*
X0153159Y0213385D01*
X0153076Y0213451D01*
X0152991Y0213514D01*
X0152903Y0213574D01*
X0152813Y0213631D01*
X0152720Y0213684D01*
X0152626Y0213734D01*
X0152531Y0213780D01*
X0152433Y0213823D01*
X0152334Y0213862D01*
X0152234Y0213898D01*
X0152132Y0213930D01*
X0152030Y0213958D01*
X0151926Y0213982D01*
X0151822Y0214002D01*
X0153393Y0213167D02*
X0153459Y0213094D01*
X0153523Y0213019D01*
X0153585Y0212942D01*
X0153644Y0212863D01*
X0153701Y0212782D01*
X0153755Y0212700D01*
X0153806Y0212615D01*
X0153854Y0212529D01*
X0150100Y0212591D02*
X0150032Y0212534D01*
X0149967Y0212474D01*
X0149904Y0212412D01*
X0149844Y0212347D01*
X0149787Y0212279D01*
X0149733Y0212208D01*
X0149682Y0212136D01*
X0149635Y0212061D01*
X0149591Y0211984D01*
X0149550Y0211905D01*
X0149513Y0211825D01*
X0149479Y0211743D01*
X0149449Y0211659D01*
X0149423Y0211575D01*
X0151366Y0212858D02*
X0151446Y0212848D01*
X0151525Y0212834D01*
X0148461Y0212679D02*
X0148407Y0212586D01*
X0148356Y0212491D01*
X0148307Y0212395D01*
X0148261Y0212298D01*
X0148219Y0212199D01*
X0148179Y0212099D01*
X0148143Y0211998D01*
X0148109Y0211896D01*
X0148079Y0211792D01*
X0148052Y0211688D01*
X0151489Y0208112D02*
X0151571Y0208132D01*
X0151652Y0208156D01*
X0151733Y0208183D01*
X0151812Y0208212D01*
X0151822Y0214002D02*
X0151717Y0214018D01*
X0151611Y0214031D01*
X0151505Y0214040D01*
X0151399Y0214047D01*
X0151293Y0214050D01*
X0151366Y0212858D02*
X0151275Y0212866D01*
X0151183Y0212870D01*
X0151092Y0212871D01*
X0151000Y0212868D01*
X0150909Y0212861D01*
X0150818Y0212850D01*
X0150728Y0212836D01*
X0150638Y0212819D01*
X0150549Y0212798D01*
X0150461Y0212773D01*
X0155842Y0207019D02*
X0156105Y0207011D01*
X0156368Y0207008D01*
X0156631Y0207011D01*
X0156894Y0207019D01*
X0158504Y0214050D02*
X0158640Y0214052D01*
X0158777Y0214050D01*
X0158914Y0214045D01*
X0159050Y0214037D01*
X0159186Y0214025D01*
X0159322Y0214009D01*
X0159457Y0213990D01*
X0159592Y0213968D01*
X0160248Y0213733D02*
X0160328Y0213679D01*
X0160406Y0213622D01*
X0160483Y0213563D01*
X0158700Y0212870D02*
X0158606Y0212868D01*
X0158513Y0212863D01*
X0158419Y0212855D01*
X0158326Y0212844D01*
X0158234Y0212830D01*
X0158142Y0212813D01*
X0159591Y0213968D02*
X0159680Y0213951D01*
X0159769Y0213932D01*
X0159857Y0213911D01*
X0157598Y0213763D02*
X0157483Y0213692D01*
X0157369Y0213619D01*
X0162635Y0214049D02*
X0162757Y0214054D01*
X0162879Y0214057D01*
X0163000Y0214057D01*
X0163122Y0214054D01*
X0162744Y0212847D02*
X0162633Y0212835D01*
X0162521Y0212820D01*
X0162410Y0212802D01*
X0162299Y0212781D01*
X0162189Y0212757D01*
X0162080Y0212731D01*
X0159852Y0207392D02*
X0159849Y0207303D01*
X0159849Y0207214D01*
X0159852Y0207124D01*
X0159858Y0207036D01*
X0156113Y0226577D02*
X0155741Y0226595D01*
X0155369Y0226606D01*
X0129814Y0225130D02*
X0129809Y0224525D01*
X0129817Y0223919D01*
X0146866Y0222891D02*
X0146875Y0222512D01*
X0146875Y0222132D01*
X0146866Y0221753D01*
X0146848Y0221374D01*
X0149129Y0226307D02*
X0149018Y0226360D01*
X0148906Y0226410D01*
X0148793Y0226458D01*
X0148679Y0226504D01*
X0148564Y0226546D01*
X0147947Y0217002D02*
X0147791Y0216976D01*
X0147635Y0216954D01*
X0147477Y0216935D01*
X0147320Y0216921D01*
X0147162Y0216910D01*
X0147004Y0216903D01*
X0149128Y0217349D02*
X0149221Y0217389D01*
X0149313Y0217433D01*
X0149403Y0217480D01*
X0149491Y0217530D01*
X0149577Y0217584D01*
X0149661Y0217642D01*
X0149743Y0217702D01*
X0149823Y0217765D01*
X0141698Y0224709D02*
X0141795Y0224852D01*
X0141896Y0224993D01*
X0141999Y0225131D01*
X0142106Y0225268D01*
X0142216Y0225401D01*
X0142328Y0225532D01*
X0142444Y0225661D01*
X0142563Y0225787D01*
X0141697Y0224709D02*
X0141647Y0224632D01*
X0141599Y0224553D01*
X0141554Y0224473D01*
X0141511Y0224392D01*
X0141471Y0224309D01*
X0143593Y0217157D02*
X0143727Y0217121D01*
X0143862Y0217089D01*
X0143997Y0217060D01*
X0144134Y0217035D01*
X0144271Y0217015D01*
X0144409Y0216998D01*
X0142392Y0217834D02*
X0142313Y0217901D01*
X0142236Y0217970D01*
X0142161Y0218042D01*
X0142089Y0218116D01*
X0142020Y0218193D01*
X0141953Y0218272D01*
X0141889Y0218353D01*
X0141889Y0218354D02*
X0141819Y0218452D01*
X0141751Y0218551D01*
X0141685Y0218653D01*
X0141623Y0218756D01*
X0141563Y0218860D01*
X0141506Y0218966D01*
X0141451Y0219074D01*
X0141400Y0219183D01*
X0141351Y0219293D01*
X0151260Y0219912D02*
X0151305Y0220058D01*
X0151346Y0220205D01*
X0151384Y0220353D01*
X0151419Y0220502D01*
X0151449Y0220651D01*
X0151477Y0220801D01*
X0151501Y0220952D01*
X0151521Y0221104D01*
X0150877Y0219011D02*
X0150819Y0218907D01*
X0150759Y0218805D01*
X0150695Y0218706D01*
X0150628Y0218608D01*
X0150558Y0218513D01*
X0150485Y0218420D01*
X0150408Y0218329D01*
X0150329Y0218241D01*
X0142809Y0226029D02*
X0142725Y0225950D01*
X0142643Y0225869D01*
X0142562Y0225787D01*
X0151376Y0223437D02*
X0151407Y0223302D01*
X0151435Y0223167D01*
X0151460Y0223031D01*
X0151482Y0222895D01*
X0151501Y0222758D01*
X0151517Y0222621D01*
X0151530Y0222483D01*
X0151108Y0224154D02*
X0151057Y0224263D01*
X0151004Y0224370D01*
X0150947Y0224476D01*
X0150888Y0224581D01*
X0150825Y0224683D01*
X0150760Y0224784D01*
X0150691Y0224883D01*
X0148563Y0226546D02*
X0148454Y0226583D01*
X0148344Y0226617D01*
X0148234Y0226648D01*
X0148122Y0226676D01*
X0148010Y0226701D01*
X0147897Y0226723D01*
X0147784Y0226742D01*
X0147670Y0226758D01*
X0149128Y0217348D02*
X0148985Y0217292D01*
X0148840Y0217240D01*
X0148694Y0217191D01*
X0148547Y0217146D01*
X0148398Y0217104D01*
X0148249Y0217066D01*
X0148099Y0217032D01*
X0147948Y0217001D01*
X0140935Y0222557D02*
X0140958Y0222698D01*
X0140984Y0222839D01*
X0141014Y0222979D01*
X0141047Y0223119D01*
X0141083Y0223257D01*
X0141123Y0223395D01*
X0141166Y0223532D01*
X0141212Y0223668D01*
X0142568Y0217698D02*
X0142657Y0217631D01*
X0142748Y0217566D01*
X0142840Y0217503D01*
X0142934Y0217443D01*
X0143310Y0226374D02*
X0143431Y0226436D01*
X0143553Y0226495D01*
X0143677Y0226551D01*
X0143802Y0226604D01*
X0143929Y0226654D01*
X0144057Y0226700D01*
X0150329Y0218241D02*
X0150233Y0218141D01*
X0150134Y0218043D01*
X0150032Y0217948D01*
X0149929Y0217855D01*
X0149823Y0217765D01*
X0141351Y0219293D02*
X0141292Y0219433D01*
X0141237Y0219574D01*
X0141186Y0219717D01*
X0141138Y0219860D01*
X0141094Y0220005D01*
X0141053Y0220152D01*
X0141017Y0220299D01*
X0140984Y0220447D01*
X0140955Y0220596D01*
X0140930Y0220745D01*
X0140909Y0220895D01*
X0140892Y0221046D01*
X0140879Y0221197D01*
X0140869Y0221348D01*
X0140864Y0221500D01*
X0140862Y0221651D01*
X0140864Y0221803D01*
X0140870Y0221954D01*
X0140881Y0222105D01*
X0140895Y0222256D01*
X0140912Y0222407D01*
X0140934Y0222557D01*
X0150876Y0219011D02*
X0150941Y0219135D01*
X0151003Y0219261D01*
X0151061Y0219388D01*
X0151116Y0219517D01*
X0151167Y0219647D01*
X0151215Y0219779D01*
X0151260Y0219912D01*
X0151375Y0223437D02*
X0151339Y0223560D01*
X0151300Y0223681D01*
X0151257Y0223801D01*
X0151210Y0223921D01*
X0151161Y0224038D01*
X0151107Y0224154D01*
X0150691Y0224883D02*
X0150612Y0224988D01*
X0150531Y0225090D01*
X0150447Y0225190D01*
X0150360Y0225287D01*
X0150271Y0225383D01*
X0150179Y0225476D01*
X0150085Y0225566D01*
X0149989Y0225654D01*
X0149890Y0225739D01*
X0141471Y0224310D02*
X0141413Y0224184D01*
X0141358Y0224057D01*
X0141307Y0223928D01*
X0141258Y0223799D01*
X0141212Y0223668D01*
X0130795Y0217313D02*
X0130652Y0217349D01*
X0130509Y0217388D01*
X0129960Y0217988D02*
X0129948Y0218062D01*
X0129939Y0218136D01*
X0129932Y0218211D01*
X0129927Y0218285D01*
X0130587Y0226480D02*
X0130755Y0226507D01*
X0130925Y0226531D01*
X0131094Y0226550D01*
X0131265Y0226565D01*
X0130795Y0217313D02*
X0130907Y0217283D01*
X0131019Y0217256D01*
X0131133Y0217233D01*
X0131247Y0217213D01*
X0131362Y0217196D01*
X0131478Y0217184D01*
X0131593Y0217174D01*
X0134372Y0220751D02*
X0134483Y0220759D01*
X0134594Y0220765D01*
X0134705Y0220768D01*
X0134817Y0220768D01*
X0134928Y0220764D01*
X0135039Y0220758D01*
X0129910Y0213274D02*
X0129950Y0213141D01*
X0129994Y0213009D01*
X0129886Y0213407D02*
X0129904Y0213425D01*
X0129924Y0213441D01*
X0129946Y0213455D01*
X0129968Y0213467D01*
X0129886Y0213407D02*
X0129887Y0213373D01*
X0129892Y0213339D01*
X0129899Y0213305D01*
X0129910Y0213273D01*
X0142271Y0213217D02*
X0142271Y0213460D01*
X0142265Y0213703D01*
X0142254Y0213946D01*
X0139510Y0208112D02*
X0139404Y0208100D01*
X0139297Y0208090D01*
X0139189Y0208082D01*
X0134120Y0206996D02*
X0134032Y0206997D01*
X0133945Y0207000D01*
X0133858Y0207006D01*
X0132713Y0226610D02*
X0132351Y0226610D01*
X0131989Y0226602D01*
X0131627Y0226587D01*
X0131265Y0226565D01*
X0130670Y0212472D02*
X0130395Y0212368D01*
X0131715Y0206904D02*
X0131810Y0206910D01*
X0131906Y0206918D01*
X0132001Y0206928D01*
X0132096Y0206940D01*
X0142254Y0207036D02*
X0142265Y0207279D01*
X0142271Y0207522D01*
X0142271Y0207765D01*
X0164049Y0210720D02*
X0164042Y0211273D01*
X0164025Y0211827D01*
X0174996Y0226515D02*
X0175427Y0226517D01*
X0175857Y0226511D01*
X0179232Y0222765D02*
X0179441Y0222761D01*
X0179649Y0222760D01*
X0179857Y0222764D01*
X0180066Y0222772D01*
X0180545Y0220929D02*
X0180860Y0220932D01*
X0181175Y0220942D01*
X0181490Y0220959D01*
X0181065Y0226580D02*
X0180686Y0226565D01*
X0185170Y0217314D02*
X0185598Y0217305D01*
X0186026Y0217305D01*
X0188802Y0213966D02*
X0189000Y0213976D01*
X0189198Y0213982D01*
X0189396Y0213983D01*
X0173933Y0209623D02*
X0173939Y0209145D01*
X0173955Y0208668D01*
X0178342Y0213962D02*
X0178605Y0213970D01*
X0178868Y0213973D01*
X0179131Y0213970D01*
X0179394Y0213962D01*
X0183712Y0214049D02*
X0183894Y0214053D01*
X0184076Y0214054D01*
X0184259Y0214051D01*
X0180900Y0222803D02*
X0180483Y0222790D01*
X0180066Y0222771D01*
X0180309Y0226549D02*
X0180687Y0226564D01*
X0175517Y0231260D02*
X0175232Y0231258D01*
X0174947Y0231262D01*
X0174663Y0231271D01*
X0174378Y0231286D01*
X0174094Y0231306D01*
X0159892Y0231306D02*
X0159827Y0231385D01*
X0159765Y0231465D01*
X0159706Y0231548D01*
X0159650Y0231632D01*
X0159597Y0231719D01*
X0159546Y0231807D01*
X0154767Y0235476D02*
X0154838Y0235599D01*
X0154912Y0235720D01*
X0154989Y0235838D01*
X0155070Y0235955D01*
X0159892Y0231307D02*
X0160147Y0231287D01*
X0160402Y0231272D01*
X0160657Y0231263D01*
X0160912Y0231259D01*
X0161168Y0231261D01*
X0162428Y0226465D02*
X0162450Y0226473D01*
X0162473Y0226478D01*
X0162496Y0226481D01*
X0162428Y0226463D02*
X0162398Y0226449D01*
X0162371Y0226431D01*
X0162345Y0226410D01*
X0162322Y0226386D01*
X0162302Y0226359D01*
X0162285Y0226331D01*
X0162271Y0226301D01*
X0162261Y0226269D01*
X0162254Y0226237D01*
X0153418Y0225480D02*
X0153394Y0225313D01*
X0153373Y0225145D01*
X0153355Y0224977D01*
X0153341Y0224808D01*
X0153330Y0224640D01*
X0143767Y0230724D02*
X0143618Y0230725D01*
X0143468Y0230730D01*
X0143319Y0230739D01*
X0143171Y0230751D01*
X0140343Y0230334D02*
X0140238Y0230318D01*
X0140132Y0230305D01*
X0140026Y0230296D01*
X0139920Y0230290D01*
X0139814Y0230287D01*
X0139707Y0230288D01*
X0143701Y0213838D02*
X0143455Y0213754D01*
X0150760Y0214049D02*
X0150938Y0214053D01*
X0151115Y0214053D01*
X0151293Y0214050D01*
X0147246Y0208220D02*
X0147121Y0208207D01*
X0146995Y0208192D01*
X0137781Y0213587D02*
X0137784Y0213676D01*
X0137784Y0213766D01*
X0137781Y0213856D01*
X0137775Y0213946D01*
X0135905Y0220656D02*
X0135733Y0220684D01*
X0135560Y0220708D01*
X0135386Y0220728D01*
X0135213Y0220745D01*
X0135038Y0220758D01*
X0133923Y0213676D02*
X0133984Y0213638D01*
X0134042Y0213597D01*
X0134099Y0213554D01*
X0134153Y0213507D01*
X0134205Y0213459D01*
X0134255Y0213408D01*
X0134302Y0213354D01*
X0134346Y0213299D01*
X0134388Y0213241D01*
X0134761Y0212319D02*
X0134771Y0212249D01*
X0134780Y0212178D01*
X0134785Y0212107D01*
X0134788Y0212036D01*
X0133080Y0212633D02*
X0133039Y0212668D01*
X0132997Y0212700D01*
X0132952Y0212729D01*
X0132906Y0212755D01*
X0132858Y0212779D01*
X0132809Y0212799D01*
X0134388Y0213241D02*
X0134438Y0213165D01*
X0134485Y0213087D01*
X0134528Y0213007D01*
X0134569Y0212925D01*
X0134606Y0212842D01*
X0134640Y0212757D01*
X0134671Y0212672D01*
X0134698Y0212585D01*
X0134722Y0212497D01*
X0134743Y0212408D01*
X0134760Y0212319D01*
X0133428Y0212042D02*
X0133413Y0212103D01*
X0133394Y0212164D01*
X0133371Y0212223D01*
X0133345Y0212281D01*
X0133316Y0212338D01*
X0133284Y0212393D01*
X0133249Y0212445D01*
X0133211Y0212496D01*
X0133170Y0212545D01*
X0133126Y0212591D01*
X0133080Y0212634D01*
X0132809Y0212800D02*
X0132742Y0212822D01*
X0132675Y0212840D01*
X0132607Y0212856D01*
X0132538Y0212868D01*
X0132469Y0212877D01*
X0132400Y0212882D01*
X0132081Y0208117D02*
X0131983Y0208102D01*
X0131885Y0208090D01*
X0131786Y0208082D01*
X0131687Y0208078D01*
X0131589Y0208076D01*
X0131490Y0208078D01*
X0129929Y0210618D02*
X0130009Y0210672D01*
X0130090Y0210724D01*
X0130173Y0210773D01*
X0130257Y0210819D01*
X0130343Y0210863D01*
X0130430Y0210904D01*
X0130519Y0210942D01*
X0130609Y0210977D01*
X0133453Y0210151D02*
X0133457Y0210066D01*
X0133458Y0209982D01*
X0133437Y0210230D02*
X0133395Y0210237D01*
X0133353Y0210240D01*
X0133310Y0210241D01*
X0133268Y0210239D01*
X0131975Y0212866D02*
X0131881Y0212854D01*
X0131787Y0212838D01*
X0131693Y0212819D01*
X0131600Y0212797D01*
X0131508Y0212772D01*
X0131417Y0212744D01*
X0131975Y0212866D02*
X0132060Y0212875D01*
X0132145Y0212881D01*
X0132230Y0212885D01*
X0132315Y0212885D01*
X0132400Y0212882D01*
X0132462Y0208216D02*
X0132387Y0208191D01*
X0132312Y0208168D01*
X0132236Y0208148D01*
X0132159Y0208131D01*
X0132081Y0208116D01*
X0132462Y0207036D02*
X0132390Y0207011D01*
X0132318Y0206989D01*
X0132244Y0206970D01*
X0132170Y0206954D01*
X0132096Y0206941D01*
X0133637Y0207484D02*
X0133630Y0207562D01*
X0133621Y0207639D01*
X0129198Y0208599D02*
X0129188Y0208713D01*
X0129181Y0208827D01*
X0129177Y0208941D01*
X0129177Y0209055D01*
X0129181Y0209169D01*
X0129188Y0209283D01*
X0129198Y0209397D01*
X0129198Y0208598D02*
X0129209Y0208516D01*
X0129223Y0208435D01*
X0129241Y0208355D01*
X0129263Y0208275D01*
X0129289Y0208196D01*
X0129318Y0208119D01*
X0129350Y0208043D01*
X0129386Y0207969D01*
X0129426Y0207896D01*
X0129468Y0207826D01*
X0129514Y0207757D01*
X0129563Y0207690D01*
X0129615Y0207626D01*
X0130048Y0207251D02*
X0130116Y0207207D01*
X0130186Y0207166D01*
X0130257Y0207129D01*
X0130331Y0207095D01*
X0130406Y0207065D01*
X0130482Y0207038D01*
X0130559Y0207014D01*
X0130637Y0206994D01*
X0130816Y0208328D02*
X0130789Y0208351D01*
X0130765Y0208376D01*
X0130743Y0208403D01*
X0130723Y0208432D01*
X0130706Y0208462D01*
X0130691Y0208494D01*
X0130816Y0208328D02*
X0130854Y0208300D01*
X0130893Y0208274D01*
X0130934Y0208251D01*
X0131259Y0208114D02*
X0131316Y0208099D01*
X0131373Y0208088D01*
X0131431Y0208081D01*
X0131489Y0208077D01*
X0132462Y0207036D02*
X0132532Y0207066D01*
X0132600Y0207099D01*
X0132667Y0207133D01*
X0132734Y0207170D01*
X0129969Y0213467D02*
X0130092Y0213529D01*
X0130218Y0213588D01*
X0130344Y0213644D01*
X0130473Y0213696D01*
X0130602Y0213745D01*
X0130733Y0213791D01*
X0130865Y0213833D01*
X0130998Y0213872D01*
X0131132Y0213907D01*
X0131267Y0213938D01*
X0131402Y0213966D01*
X0131539Y0213991D01*
X0131676Y0214012D01*
X0131813Y0214029D01*
X0133087Y0208668D02*
X0133036Y0208609D01*
X0132981Y0208554D01*
X0132924Y0208501D01*
X0132865Y0208450D01*
X0132803Y0208403D01*
X0132738Y0208359D01*
X0132672Y0208318D01*
X0132604Y0208281D01*
X0132534Y0208247D01*
X0132462Y0208216D01*
X0130690Y0208494D02*
X0130667Y0208568D01*
X0130647Y0208642D01*
X0130630Y0208718D01*
X0130617Y0208794D01*
X0131038Y0209877D02*
X0131080Y0209909D01*
X0131124Y0209937D01*
X0131170Y0209963D01*
X0131217Y0209986D01*
X0131266Y0210005D01*
X0131316Y0210021D01*
X0130933Y0208251D02*
X0130996Y0208218D01*
X0131060Y0208188D01*
X0131125Y0208160D01*
X0131192Y0208136D01*
X0131259Y0208115D01*
X0130049Y0207251D02*
X0129971Y0207307D01*
X0129895Y0207365D01*
X0129821Y0207427D01*
X0129750Y0207491D01*
X0129681Y0207557D01*
X0129615Y0207627D01*
X0133087Y0208667D02*
X0133131Y0208726D01*
X0133172Y0208787D01*
X0133211Y0208849D01*
X0133247Y0208914D01*
X0133280Y0208980D01*
X0133310Y0209047D01*
X0133337Y0209115D01*
X0133361Y0209185D01*
X0133382Y0209255D01*
X0133399Y0209327D01*
X0132045Y0214050D02*
X0131929Y0214041D01*
X0131813Y0214029D01*
X0140802Y0209392D02*
X0140749Y0209186D01*
X0140692Y0208980D01*
X0133122Y0213980D02*
X0132988Y0214002D01*
X0132854Y0214020D01*
X0132720Y0214034D01*
X0132585Y0214045D01*
X0132450Y0214052D01*
X0132315Y0214055D01*
X0132180Y0214054D01*
X0132045Y0214050D01*
X0131811Y0211225D02*
X0131687Y0211214D01*
X0131563Y0211201D01*
X0131439Y0211186D01*
X0131316Y0211168D01*
X0131316Y0210021D02*
X0131435Y0210049D01*
X0131556Y0210073D01*
X0131676Y0210095D01*
X0131797Y0210113D01*
X0134608Y0226517D02*
X0135156Y0226459D01*
X0135702Y0226388D01*
X0136247Y0226306D01*
X0133677Y0217139D02*
X0133364Y0217129D01*
X0133052Y0217124D01*
X0132739Y0217126D01*
X0132426Y0217134D01*
X0146866Y0222891D02*
X0146843Y0223371D01*
X0146810Y0223850D01*
X0146767Y0224328D01*
X0156993Y0213372D02*
X0157369Y0213619D01*
X0168746Y0210021D02*
X0168985Y0210058D01*
X0169224Y0210090D01*
X0168083Y0212478D02*
X0168327Y0212571D01*
X0168572Y0212661D01*
X0168819Y0212746D01*
X0170932Y0207718D02*
X0170795Y0207604D01*
X0170661Y0207489D01*
X0179600Y0220920D02*
X0180072Y0220930D01*
X0180545Y0220929D01*
X0188677Y0213946D02*
X0188666Y0213703D01*
X0188660Y0213460D01*
X0188660Y0213217D01*
X0161212Y0211272D02*
X0161203Y0210782D01*
X0161200Y0210292D01*
X0147083Y0213956D02*
X0146623Y0213951D01*
X0131417Y0212744D02*
X0131166Y0212658D01*
X0130917Y0212567D01*
X0130669Y0212473D01*
X0190037Y0208109D02*
X0190041Y0207347D01*
X0188678Y0207036D02*
X0188667Y0207279D01*
X0188661Y0207522D01*
X0188661Y0207765D01*
X0132829Y0230420D02*
X0132298Y0229496D01*
X0131781Y0228564D01*
X0135167Y0223475D02*
X0135424Y0223578D01*
X0135678Y0223688D01*
X0135929Y0223804D01*
X0136177Y0223925D01*
X0135464Y0230307D02*
X0135324Y0230308D01*
X0135185Y0230313D01*
X0135046Y0230322D01*
X0134907Y0230334D01*
X0133308Y0211293D02*
X0132907Y0211278D01*
X0133268Y0210238D02*
X0132973Y0210227D01*
X0132678Y0210209D01*
X0132384Y0210184D01*
X0132090Y0210152D01*
X0131798Y0210113D01*
X0141016Y0207577D02*
X0141033Y0207270D01*
X0133746Y0226585D02*
X0133230Y0226602D01*
X0132713Y0226611D01*
X0149151Y0246247D02*
X0148915Y0246692D01*
X0148672Y0247132D01*
X0146668Y0250565D02*
X0146650Y0250572D01*
X0146630Y0250577D01*
X0146611Y0250578D01*
X0146591Y0250576D01*
X0146668Y0250565D02*
X0146678Y0250559D01*
X0146686Y0250551D01*
X0146693Y0250542D01*
X0146591Y0250576D02*
X0146574Y0250573D01*
X0146557Y0250566D01*
X0146542Y0250555D01*
X0146530Y0250543D01*
X0146671Y0254108D02*
X0146652Y0254116D01*
X0146632Y0254121D01*
X0146611Y0254122D01*
X0146590Y0254120D01*
X0146671Y0254108D02*
X0146681Y0254102D01*
X0146690Y0254094D01*
X0146698Y0254085D01*
X0146590Y0254120D02*
X0146571Y0254117D01*
X0146554Y0254109D01*
X0146538Y0254098D01*
X0146525Y0254085D01*
X0157496Y0259917D02*
X0157579Y0259792D01*
X0157658Y0259665D01*
X0157734Y0259536D01*
X0157807Y0259405D01*
X0157554Y0255496D02*
X0157564Y0255490D01*
X0157573Y0255483D01*
X0157580Y0255474D01*
X0157475Y0255508D02*
X0157457Y0255505D01*
X0157440Y0255497D01*
X0157425Y0255487D01*
X0157412Y0255474D01*
X0157476Y0255507D02*
X0157496Y0255509D01*
X0157516Y0255508D01*
X0157536Y0255503D01*
X0157554Y0255496D01*
X0161661Y0252801D02*
X0161680Y0252799D01*
X0161700Y0252800D01*
X0161719Y0252805D01*
X0161737Y0252812D01*
X0161747Y0252818D01*
X0161755Y0252826D01*
X0161762Y0252835D01*
X0161661Y0252801D02*
X0161643Y0252804D01*
X0161627Y0252811D01*
X0161612Y0252821D01*
X0161600Y0252834D01*
X0160383Y0250611D02*
X0160391Y0250589D01*
X0160395Y0250565D01*
X0160396Y0250542D01*
X0160393Y0250518D01*
X0160387Y0250495D01*
X0160378Y0250474D01*
X0160384Y0250611D02*
X0160370Y0250647D01*
X0160353Y0250683D01*
X0160353Y0250684D02*
X0160315Y0250753D01*
X0160274Y0250821D01*
X0162013Y0247791D02*
X0162023Y0247784D01*
X0162033Y0247776D01*
X0162041Y0247765D01*
X0161926Y0247802D02*
X0161906Y0247798D01*
X0161888Y0247790D01*
X0161871Y0247779D01*
X0161857Y0247765D01*
X0161926Y0247803D02*
X0161948Y0247805D01*
X0161970Y0247804D01*
X0161992Y0247799D01*
X0162012Y0247790D01*
X0163225Y0250022D02*
X0163293Y0250176D01*
X0163365Y0250328D01*
X0163440Y0250478D01*
X0163518Y0250627D01*
X0163600Y0250774D01*
X0163685Y0250919D01*
X0170279Y0231279D02*
X0170677Y0231281D01*
X0171076Y0231290D01*
X0171474Y0231306D01*
X0181744Y0224478D02*
X0182030Y0224490D01*
X0182316Y0224505D01*
X0166837Y0225057D02*
X0166789Y0224367D01*
X0166754Y0223676D01*
X0156974Y0259041D02*
X0157142Y0259337D01*
X0157317Y0259629D01*
X0157497Y0259918D01*
X0169670Y0261272D02*
X0169682Y0261285D01*
X0169698Y0261295D01*
X0169715Y0261303D01*
X0169733Y0261306D01*
X0169812Y0261295D02*
X0169822Y0261289D01*
X0169831Y0261281D01*
X0169838Y0261272D01*
X0169812Y0261295D02*
X0169794Y0261303D01*
X0169774Y0261308D01*
X0169753Y0261309D01*
X0169733Y0261307D01*
X0178441Y0226420D02*
X0178871Y0226412D01*
X0179302Y0226410D01*
X0136397Y0210102D02*
X0136420Y0208945D01*
X0144282Y0214609D02*
X0144358Y0214976D01*
X0145516Y0216909D02*
X0146012Y0216896D01*
X0146508Y0216893D01*
X0147004Y0216902D01*
X0136524Y0220349D02*
X0136081Y0220134D01*
X0135633Y0219929D01*
X0135181Y0219733D01*
X0146697Y0219708D02*
X0146757Y0220262D01*
X0146808Y0220818D01*
X0146848Y0221375D01*
X0132427Y0217134D02*
X0132010Y0217152D01*
X0131594Y0217175D01*
X0140917Y0210928D02*
X0140912Y0210475D01*
X0140899Y0210022D01*
X0143457Y0212795D02*
X0143952Y0212810D01*
X0145617Y0212810D02*
X0146077Y0212805D01*
X0132907Y0211279D02*
X0132359Y0211257D01*
X0131811Y0211225D01*
X0130802Y0209654D02*
X0130691Y0209536D01*
X0175303Y0214476D02*
X0175318Y0215273D01*
X0176519Y0213951D02*
X0176979Y0213956D01*
X0173847Y0212810D02*
X0173352Y0212795D01*
X0175514Y0212810D02*
X0175974Y0212805D01*
X0180876Y0219344D02*
X0181619Y0219375D01*
X0162222Y0225009D02*
X0162234Y0225623D01*
X0162253Y0226237D01*
X0169163Y0265657D02*
X0169354Y0265993D01*
X0169551Y0266325D01*
X0169754Y0266654D01*
X0175419Y0217312D02*
X0176765Y0217314D01*
X0190164Y0219132D02*
X0190314Y0218889D01*
X0190468Y0218648D01*
X0193356Y0220608D02*
X0193167Y0220886D01*
X0192983Y0221167D01*
X0174094Y0231307D02*
X0173679Y0231954D01*
X0173278Y0232610D01*
X0172890Y0233274D01*
X0185755Y0231279D02*
X0186428Y0231285D01*
X0187100Y0231306D01*
X0159546Y0231807D02*
X0158842Y0232985D01*
X0186026Y0217304D02*
X0186883Y0217315D01*
X0187740Y0217342D01*
X0188596Y0217384D01*
X0170668Y0210233D02*
X0170186Y0210195D01*
X0169705Y0210148D01*
X0169225Y0210091D01*
X0175858Y0226511D02*
X0176719Y0226484D01*
X0164338Y0248002D02*
X0163953Y0248668D01*
X0163582Y0249341D01*
X0163226Y0250022D01*
X0177579Y0226449D02*
X0178441Y0226420D01*
X0184397Y0220637D02*
X0184431Y0219863D01*
X0184480Y0219089D01*
X0145397Y0212483D02*
X0145404Y0211025D01*
X0145438Y0209568D01*
X0140343Y0230334D02*
X0140607Y0230735D01*
X0140863Y0231140D01*
X0141111Y0231550D01*
X0141351Y0231965D01*
X0135167Y0223475D02*
X0134822Y0223344D01*
X0134476Y0223217D01*
X0158000Y0224100D02*
X0157991Y0224652D01*
X0157976Y0225204D01*
X0148419Y0244135D02*
X0148660Y0244550D01*
X0148894Y0244969D01*
X0149119Y0245393D01*
X0149337Y0245820D01*
X0135180Y0219733D02*
X0134267Y0219362D01*
X0172214Y0208340D02*
X0172203Y0207412D01*
X0156858Y0226530D02*
X0156113Y0226577D01*
X0134726Y0217201D02*
X0133677Y0217141D01*
X0165406Y0208305D02*
X0165396Y0207402D01*
X0180185Y0224415D02*
X0181744Y0224479D01*
X0153330Y0224640D02*
X0153225Y0222876D01*
X0153163Y0221109D01*
X0153145Y0219342D01*
X0153170Y0217575D01*
X0185871Y0233484D02*
X0186492Y0232399D01*
X0187100Y0231307D01*
X0184371Y0226203D02*
X0184335Y0225245D01*
X0188879Y0224228D02*
X0188858Y0223514D01*
X0188851Y0222799D01*
X0144050Y0211734D02*
X0144034Y0210691D01*
X0144030Y0209648D01*
X0133502Y0207665D02*
X0133025Y0207350D01*
X0194545Y0208269D02*
X0194539Y0210693D01*
X0190031Y0211167D02*
X0190023Y0210212D01*
X0184342Y0222369D02*
X0184323Y0223327D01*
X0184321Y0224286D01*
X0184337Y0225244D01*
X0139708Y0230288D02*
X0138355Y0230274D01*
X0146697Y0219707D02*
X0146629Y0219154D01*
X0159886Y0210694D02*
X0159883Y0209445D01*
X0162496Y0226481D02*
X0163794Y0226521D01*
X0165093Y0226540D01*
X0148309Y0230705D02*
X0146863Y0230691D01*
X0153642Y0217289D02*
X0154756Y0217264D01*
X0189477Y0226336D02*
X0190552Y0226271D01*
X0158007Y0222995D02*
X0158017Y0221890D01*
X0150329Y0247765D02*
X0149594Y0249024D01*
X0162601Y0217314D02*
X0164476Y0217288D01*
X0166351Y0217299D01*
X0168226Y0217349D01*
X0169369Y0211236D02*
X0170359Y0211275D01*
X0154482Y0240577D02*
X0153644Y0241970D01*
X0152829Y0243376D01*
X0175975Y0212805D02*
X0176979Y0212790D01*
X0162216Y0223656D02*
X0162222Y0225009D01*
X0150246Y0232785D02*
X0149390Y0231351D01*
X0164048Y0210720D02*
X0164045Y0209462D01*
X0138245Y0221524D02*
X0138000Y0221632D01*
X0157049Y0208109D02*
X0157055Y0207347D01*
X0161222Y0207354D02*
X0161216Y0208136D01*
X0145408Y0214476D02*
X0145423Y0215273D01*
X0173961Y0212488D02*
X0173950Y0211726D01*
X0166681Y0219524D02*
X0166693Y0221601D01*
X0166754Y0223676D01*
X0175514Y0213936D02*
X0176518Y0213951D01*
X0137766Y0212703D02*
X0137746Y0210262D01*
X0140917Y0210928D02*
X0140912Y0211957D01*
X0134816Y0208332D02*
X0134806Y0207410D01*
X0159219Y0252695D02*
X0158411Y0254090D01*
X0157581Y0255474D01*
X0147083Y0212789D02*
X0146078Y0212804D01*
X0148673Y0247132D02*
X0148023Y0248274D01*
X0146622Y0213951D02*
X0145618Y0213936D01*
X0185170Y0226480D02*
X0187324Y0226429D01*
X0189476Y0226336D01*
X0161599Y0252834D02*
X0160637Y0254469D01*
X0157601Y0226480D02*
X0156858Y0226529D01*
X0188920Y0222730D02*
X0189118Y0222763D01*
X0136402Y0213571D02*
X0136388Y0211837D01*
X0136397Y0210102D01*
X0193142Y0210799D02*
X0193146Y0209514D01*
X0129853Y0220313D02*
X0129828Y0222341D01*
X0148159Y0251562D02*
X0147437Y0252828D01*
X0146698Y0254085D01*
X0138356Y0230274D02*
X0136910Y0230281D01*
X0135464Y0230307D01*
X0172185Y0212070D02*
X0172213Y0210205D01*
X0172214Y0208340D01*
X0175309Y0208806D02*
X0175284Y0210652D01*
X0175292Y0212498D01*
X0193356Y0220609D02*
X0194216Y0219406D01*
X0173950Y0211726D02*
X0173932Y0209622D01*
X0167691Y0226532D02*
X0165093Y0226540D01*
X0146863Y0230691D02*
X0143766Y0230724D01*
X0144064Y0212491D02*
X0144050Y0211735D01*
X0129828Y0222342D02*
X0129817Y0223919D01*
X0165378Y0211932D02*
X0165405Y0208305D01*
X0174302Y0219605D02*
X0174255Y0222278D01*
X0174267Y0224952D01*
X0154767Y0235476D02*
X0153691Y0233648D01*
X0152638Y0231807D01*
X0152936Y0231285D02*
X0155048Y0231272D01*
X0157160Y0231285D01*
X0159233Y0217244D02*
X0156994Y0217240D01*
X0154756Y0217263D01*
X0157463Y0231808D02*
X0156427Y0233649D01*
X0155368Y0235477D01*
X0159177Y0220592D02*
X0159670Y0220624D01*
X0176766Y0217315D02*
X0178549Y0217341D01*
X0163685Y0250918D02*
X0164863Y0253003D01*
X0164045Y0231247D02*
X0161168Y0231261D01*
X0175517Y0231261D02*
X0178747Y0231247D01*
X0178549Y0217341D02*
X0182114Y0217418D01*
X0162300Y0218931D02*
X0162241Y0221293D01*
X0162217Y0223655D01*
X0164045Y0231247D02*
X0170279Y0231280D01*
X0185477Y0228636D02*
X0191717Y0228668D01*
X0184342Y0222369D02*
X0184399Y0220637D01*
X0185756Y0231280D02*
X0178747Y0231247D01*
X0188023Y0228553D02*
X0131782Y0228563D01*
X0137780Y0213586D02*
X0137766Y0212703D01*
X0158006Y0222995D02*
X0157999Y0224100D01*
X0134788Y0212036D02*
X0134815Y0208331D01*
X0153399Y0238946D02*
X0152137Y0241144D01*
X0150846Y0243326D01*
X0148022Y0248274D02*
X0146693Y0250543D01*
X0153503Y0238564D02*
X0151896Y0235662D01*
X0150246Y0232786D01*
X0158138Y0246490D02*
X0160379Y0250474D01*
X0160275Y0250821D02*
X0159219Y0252695D01*
X0172059Y0262707D02*
X0169753Y0266653D01*
X0157034Y0210213D02*
X0157050Y0208109D01*
X0179562Y0207765D02*
X0179562Y0213217D01*
X0161200Y0210292D02*
X0161216Y0208135D01*
X0159852Y0207392D02*
X0159882Y0209444D01*
X0142270Y0207765D02*
X0142270Y0213217D01*
X0164044Y0209462D02*
X0164017Y0207395D01*
X0155832Y0242542D02*
X0158138Y0246489D01*
X0152102Y0250577D02*
X0150462Y0247765D01*
X0161762Y0252835D02*
X0163626Y0256032D01*
X0148419Y0244135D02*
X0146226Y0240305D01*
X0143591Y0235769D02*
X0141352Y0231966D01*
X0154664Y0240578D02*
X0155831Y0242543D01*
X0146225Y0240305D02*
X0143591Y0235768D01*
X0140891Y0213649D02*
X0140913Y0211957D01*
X0163626Y0256031D02*
X0167697Y0263109D01*
X0151767Y0245265D02*
X0152828Y0243376D01*
X0152102Y0250577D02*
X0155683Y0256801D01*
X0189869Y0219622D02*
X0190164Y0219132D01*
X0151698Y0245577D02*
X0155091Y0251535D01*
X0149594Y0249024D02*
X0148159Y0251562D01*
X0189000Y0220237D02*
X0188944Y0218541D01*
X0159544Y0243822D02*
X0161857Y0247765D01*
X0155674Y0213217D02*
X0155674Y0207765D01*
X0167691Y0226532D02*
X0168990Y0226515D01*
X0190023Y0210212D02*
X0190038Y0208109D01*
X0178174Y0207765D02*
X0178174Y0213217D01*
X0188660Y0213217D02*
X0188660Y0207765D01*
X0193144Y0207402D02*
X0193147Y0209514D01*
X0160637Y0254469D02*
X0159561Y0256338D01*
X0156985Y0236218D02*
X0158843Y0232985D01*
X0170186Y0237879D02*
X0172891Y0233274D01*
X0166997Y0243372D02*
X0164338Y0248002D01*
X0166996Y0243371D02*
X0170186Y0237878D01*
X0155091Y0251535D02*
X0157413Y0255473D01*
X0176719Y0226484D02*
X0177580Y0226449D01*
X0138097Y0222335D02*
X0137902Y0222259D01*
X0156984Y0236219D02*
X0156142Y0237696D01*
X0155683Y0256801D02*
X0156974Y0259041D01*
X0159544Y0243823D02*
X0156142Y0237870D01*
X0167697Y0263109D02*
X0169163Y0265656D01*
X0169669Y0261273D02*
X0164863Y0253004D01*
X0149827Y0242326D02*
X0143931Y0232111D01*
X0143815Y0245868D02*
X0146529Y0250543D01*
X0162040Y0247765D02*
X0169083Y0235546D01*
X0179271Y0219259D02*
X0180876Y0219344D01*
X0159561Y0256338D02*
X0157807Y0259406D01*
X0146524Y0254084D02*
X0143085Y0248177D01*
X0172048Y0262735D02*
X0191718Y0228668D01*
X0143815Y0245868D02*
X0135730Y0231808D01*
X0132830Y0230420D02*
X0143086Y0248178D01*
X0169804Y0261303D02*
X0185871Y0233483D01*
M02*
