G75*
%MOIN*%
%OFA0B0*%
%FSLAX25Y25*%
%IPPOS*%
%LPD*%
%AMOC8*
5,1,8,0,0,1.08239X$1,22.5*
%
%ADD10R,0.03937X0.04331*%
%ADD11C,0.05500*%
%ADD12R,0.06600X0.06600*%
%ADD13C,0.06600*%
%ADD14R,0.05100X0.05100*%
%ADD15C,0.05100*%
%ADD16R,0.04331X0.03937*%
%ADD17C,0.07650*%
%ADD18C,0.05900*%
%ADD19OC8,0.06000*%
%ADD20C,0.00800*%
%ADD21C,0.01600*%
D10*
X0230452Y0273303D03*
X0237145Y0273303D03*
X0241299Y0086650D03*
X0241299Y0079957D03*
D11*
X0204468Y0284303D03*
X0194468Y0284303D03*
X0184468Y0284303D03*
X0133602Y0284303D03*
X0123602Y0284303D03*
X0113602Y0284303D03*
D12*
X0250491Y0271256D03*
D13*
X0088799Y0063303D03*
X0088799Y0073303D03*
X0098799Y0073303D03*
X0098799Y0063303D03*
X0108799Y0063303D03*
X0108799Y0073303D03*
X0118799Y0073303D03*
X0118799Y0063303D03*
X0128799Y0063303D03*
X0128799Y0073303D03*
X0138799Y0073303D03*
X0138799Y0063303D03*
X0148799Y0063303D03*
X0148799Y0073303D03*
X0158799Y0073303D03*
X0158799Y0063303D03*
X0168799Y0063303D03*
X0168799Y0073303D03*
X0178799Y0073303D03*
X0178799Y0063303D03*
X0188799Y0063303D03*
X0188799Y0073303D03*
X0198799Y0073303D03*
X0198799Y0063303D03*
X0208799Y0063303D03*
X0208799Y0073303D03*
X0218799Y0073303D03*
X0218799Y0063303D03*
X0218799Y0083303D03*
X0218799Y0093303D03*
X0218799Y0103303D03*
X0218799Y0113303D03*
X0218799Y0123303D03*
X0218799Y0133303D03*
X0208799Y0133303D03*
X0208799Y0123303D03*
X0208799Y0113303D03*
X0208799Y0103303D03*
X0208799Y0093303D03*
X0208799Y0083303D03*
X0198799Y0083303D03*
X0198799Y0093303D03*
X0198799Y0103303D03*
X0198799Y0113303D03*
X0198799Y0123303D03*
X0198799Y0133303D03*
X0198799Y0143303D03*
X0208799Y0143303D03*
X0198799Y0153303D03*
X0188799Y0153303D03*
X0188799Y0143303D03*
X0188799Y0133303D03*
X0188799Y0123303D03*
X0188799Y0113303D03*
X0188799Y0103303D03*
X0188799Y0093303D03*
X0188799Y0083303D03*
X0178799Y0083303D03*
X0178799Y0093303D03*
X0178799Y0103303D03*
X0178799Y0113303D03*
X0178799Y0123303D03*
X0178799Y0133303D03*
X0178799Y0143303D03*
X0178799Y0153303D03*
X0168799Y0153303D03*
X0168799Y0143303D03*
X0168799Y0133303D03*
X0168799Y0123303D03*
X0168799Y0113303D03*
X0168799Y0103303D03*
X0168799Y0093303D03*
X0168799Y0083303D03*
X0158799Y0083303D03*
X0158799Y0093303D03*
X0158799Y0103303D03*
X0158799Y0113303D03*
X0158799Y0123303D03*
X0158799Y0133303D03*
X0158799Y0143303D03*
X0158799Y0153303D03*
X0148799Y0153303D03*
X0148799Y0143303D03*
X0148799Y0133303D03*
X0148799Y0123303D03*
X0148799Y0113303D03*
X0148799Y0103303D03*
X0148799Y0093303D03*
X0148799Y0083303D03*
X0138799Y0083303D03*
X0138799Y0093303D03*
X0138799Y0103303D03*
X0138799Y0113303D03*
X0138799Y0123303D03*
X0138799Y0133303D03*
X0138799Y0143303D03*
X0138799Y0153303D03*
X0128799Y0153303D03*
X0128799Y0143303D03*
X0128799Y0133303D03*
X0128799Y0123303D03*
X0128799Y0113303D03*
X0128799Y0103303D03*
X0128799Y0093303D03*
X0128799Y0083303D03*
X0118799Y0083303D03*
X0118799Y0093303D03*
X0118799Y0103303D03*
X0118799Y0113303D03*
X0118799Y0123303D03*
X0118799Y0133303D03*
X0118799Y0143303D03*
X0118799Y0153303D03*
X0108799Y0153303D03*
X0108799Y0143303D03*
X0108799Y0133303D03*
X0108799Y0123303D03*
X0108799Y0113303D03*
X0108799Y0103303D03*
X0108799Y0093303D03*
X0108799Y0083303D03*
X0098799Y0083303D03*
X0098799Y0093303D03*
X0098799Y0103303D03*
X0098799Y0113303D03*
X0098799Y0123303D03*
X0098799Y0133303D03*
X0098799Y0143303D03*
X0098799Y0153303D03*
X0088799Y0153303D03*
X0088799Y0143303D03*
X0088799Y0133303D03*
X0088799Y0123303D03*
X0088799Y0113303D03*
X0088799Y0103303D03*
X0088799Y0093303D03*
X0088799Y0083303D03*
X0250491Y0081256D03*
X0250491Y0091256D03*
X0250491Y0101256D03*
X0250491Y0111256D03*
X0250491Y0121256D03*
X0250491Y0131256D03*
X0250491Y0141256D03*
X0250491Y0151256D03*
X0250491Y0161256D03*
X0250491Y0171256D03*
X0250491Y0181256D03*
X0250491Y0191256D03*
X0250491Y0201256D03*
X0250491Y0211256D03*
X0250491Y0221256D03*
X0250491Y0231256D03*
X0250491Y0241256D03*
X0250491Y0251256D03*
X0250491Y0261256D03*
X0260491Y0261256D03*
X0260491Y0251256D03*
X0260491Y0241256D03*
X0260491Y0231256D03*
X0260491Y0221256D03*
X0260491Y0211256D03*
X0260491Y0201256D03*
X0260491Y0191256D03*
X0260491Y0181256D03*
X0260491Y0171256D03*
X0260491Y0161256D03*
X0260491Y0151256D03*
X0260491Y0141256D03*
X0260491Y0131256D03*
X0260491Y0121256D03*
X0260491Y0111256D03*
X0260491Y0101256D03*
X0260491Y0091256D03*
X0260491Y0081256D03*
X0260491Y0271256D03*
D14*
X0220399Y0255710D03*
X0097599Y0169096D03*
D15*
X0097599Y0176970D03*
X0097599Y0184844D03*
X0097599Y0192718D03*
X0097599Y0200592D03*
X0097599Y0208466D03*
X0097599Y0216340D03*
X0097599Y0224214D03*
X0097599Y0232088D03*
X0097599Y0239962D03*
X0097599Y0247836D03*
X0097599Y0255710D03*
X0220399Y0247836D03*
X0220399Y0239962D03*
X0220399Y0232088D03*
X0220399Y0224214D03*
X0220399Y0216340D03*
X0220399Y0208466D03*
X0220399Y0200592D03*
X0220399Y0192718D03*
X0220399Y0184844D03*
X0220399Y0176970D03*
X0220399Y0169096D03*
D16*
X0241299Y0101650D03*
X0241299Y0094957D03*
D17*
X0241748Y0284303D03*
X0212148Y0284303D03*
D18*
X0218098Y0294103D03*
X0235798Y0294103D03*
D19*
X0078799Y0173303D03*
X0068799Y0173303D03*
X0058799Y0173303D03*
D20*
X0220399Y0184844D02*
X0238799Y0203244D01*
X0238799Y0218303D01*
X0246299Y0225803D01*
X0255039Y0225803D01*
X0260491Y0231256D01*
X0255539Y0236303D02*
X0246799Y0236303D01*
X0233799Y0223303D01*
X0233799Y0206118D01*
X0220399Y0192718D01*
X0241299Y0182063D02*
X0241299Y0101650D01*
X0241299Y0094957D02*
X0241299Y0090803D01*
X0250039Y0090803D01*
X0250491Y0091256D01*
X0255539Y0096303D01*
X0263799Y0096303D01*
X0266799Y0099303D01*
X0266799Y0272303D01*
X0261799Y0277303D01*
X0243799Y0277303D01*
X0239799Y0273303D01*
X0237145Y0273303D01*
X0230452Y0273303D02*
X0230452Y0284957D01*
X0235798Y0290303D01*
X0235798Y0294103D01*
X0260491Y0241256D02*
X0255539Y0236303D01*
X0250491Y0191256D02*
X0241299Y0182063D01*
X0241299Y0090803D02*
X0241299Y0086650D01*
X0241299Y0079957D02*
X0249192Y0079957D01*
X0250491Y0081256D01*
D21*
X0208799Y0143303D02*
X0198799Y0143303D01*
X0188799Y0143303D01*
X0178799Y0143303D01*
X0168799Y0143303D01*
X0158799Y0143303D01*
X0148799Y0143303D01*
X0138799Y0143303D01*
X0128799Y0143303D01*
X0118799Y0143303D01*
X0108799Y0143303D01*
X0098799Y0143303D01*
X0088799Y0143303D01*
X0058799Y0173303D01*
X0068799Y0173303D02*
X0088799Y0153303D01*
X0098799Y0153303D01*
X0108799Y0153303D01*
X0118799Y0153303D01*
X0128799Y0153303D01*
X0138799Y0153303D01*
X0148799Y0153303D01*
X0158799Y0153303D01*
X0168799Y0153303D01*
X0178799Y0153303D01*
X0188799Y0153303D01*
X0198799Y0153303D01*
M02*
