G75*
%MOIN*%
%OFA0B0*%
%FSLAX25Y25*%
%IPPOS*%
%LPD*%
%AMOC8*
5,1,8,0,0,1.08239X$1,22.5*
%
%ADD10C,0.00600*%
%ADD11C,0.00500*%
%ADD12C,0.00400*%
D10*
X0095193Y0262103D02*
X0096661Y0262103D01*
X0097395Y0262837D01*
X0095927Y0264305D02*
X0095193Y0264305D01*
X0094459Y0263571D01*
X0094459Y0262837D01*
X0095193Y0262103D01*
X0095193Y0264305D02*
X0094459Y0265039D01*
X0094459Y0265773D01*
X0095193Y0266507D01*
X0096661Y0266507D01*
X0097395Y0265773D01*
X0099063Y0266507D02*
X0100531Y0266507D01*
X0099797Y0266507D02*
X0099797Y0262837D01*
X0100531Y0262103D01*
X0101265Y0262103D01*
X0101999Y0262837D01*
X0120762Y0272603D02*
X0123698Y0272603D01*
X0122230Y0272603D02*
X0122230Y0277007D01*
X0123698Y0275539D01*
X0125366Y0276273D02*
X0126100Y0277007D01*
X0128302Y0277007D01*
X0128302Y0272603D01*
X0126100Y0272603D01*
X0125366Y0273337D01*
X0125366Y0276273D01*
X0191628Y0276273D02*
X0192362Y0277007D01*
X0193830Y0277007D01*
X0194564Y0276273D01*
X0196232Y0276273D02*
X0196966Y0277007D01*
X0199168Y0277007D01*
X0199168Y0272603D01*
X0196966Y0272603D01*
X0196232Y0273337D01*
X0196232Y0276273D01*
X0194564Y0272603D02*
X0191628Y0272603D01*
X0194564Y0272603D02*
X0191628Y0275539D01*
X0191628Y0276273D01*
X0213608Y0271103D02*
X0216544Y0271103D01*
X0215076Y0271103D02*
X0215076Y0275507D01*
X0216544Y0274039D01*
X0218212Y0274773D02*
X0218946Y0275507D01*
X0220414Y0275507D01*
X0221148Y0274773D01*
X0221148Y0274039D01*
X0220414Y0273305D01*
X0218946Y0273305D01*
X0218212Y0272571D01*
X0218212Y0271837D01*
X0218946Y0271103D01*
X0220414Y0271103D01*
X0221148Y0271837D01*
X0222163Y0267107D02*
X0223631Y0267107D01*
X0222897Y0267107D02*
X0222897Y0263437D01*
X0223631Y0262703D01*
X0224365Y0262703D01*
X0225099Y0263437D01*
X0220495Y0262703D02*
X0217559Y0265639D01*
X0217559Y0266373D01*
X0218293Y0267107D01*
X0219761Y0267107D01*
X0220495Y0266373D01*
X0220495Y0262703D02*
X0217559Y0262703D01*
X0239551Y0181950D02*
X0239551Y0179014D01*
X0239551Y0180482D02*
X0243955Y0180482D01*
X0242487Y0179014D01*
X0243955Y0177346D02*
X0243955Y0175878D01*
X0243955Y0176612D02*
X0240285Y0176612D01*
X0239551Y0175878D01*
X0239551Y0175144D01*
X0240285Y0174410D01*
X0235999Y0100507D02*
X0233797Y0100507D01*
X0233063Y0099773D01*
X0233063Y0098305D01*
X0233797Y0097571D01*
X0235999Y0097571D01*
X0235999Y0096103D02*
X0235999Y0100507D01*
X0234531Y0097571D02*
X0233063Y0096103D01*
X0231395Y0096837D02*
X0230661Y0096103D01*
X0229193Y0096103D01*
X0228459Y0096837D01*
X0228459Y0098305D01*
X0229193Y0099039D01*
X0229927Y0099039D01*
X0231395Y0098305D01*
X0231395Y0100507D01*
X0228459Y0100507D01*
X0229927Y0085507D02*
X0229927Y0081103D01*
X0231395Y0081103D02*
X0228459Y0081103D01*
X0231395Y0084039D02*
X0229927Y0085507D01*
X0233063Y0084773D02*
X0233797Y0085507D01*
X0235265Y0085507D01*
X0235999Y0084773D01*
X0235999Y0081837D01*
X0235265Y0081103D01*
X0233797Y0081103D01*
X0233063Y0081837D01*
D11*
X0102335Y0163909D02*
X0092335Y0163909D01*
X0092599Y0163903D02*
X0092599Y0260903D01*
X0102599Y0260903D01*
X0102599Y0163903D01*
X0092599Y0163903D01*
X0092385Y0164409D02*
X0225685Y0164409D01*
X0225685Y0277709D01*
X0229942Y0269557D02*
X0229942Y0268806D01*
X0232945Y0265804D01*
X0232945Y0265053D01*
X0234546Y0265053D02*
X0236047Y0266554D01*
X0235297Y0266554D02*
X0237549Y0266554D01*
X0237549Y0265053D02*
X0237549Y0269557D01*
X0235297Y0269557D01*
X0234546Y0268806D01*
X0234546Y0267305D01*
X0235297Y0266554D01*
X0232945Y0269557D02*
X0229942Y0269557D01*
X0225735Y0260909D02*
X0215735Y0260909D01*
X0215735Y0163909D01*
X0225735Y0163909D01*
X0225399Y0163903D02*
X0215399Y0163903D01*
X0215399Y0260903D01*
X0225399Y0260903D01*
X0225399Y0163903D01*
X0245491Y0075256D02*
X0265491Y0075256D01*
X0265491Y0277256D01*
X0245491Y0277256D01*
X0245491Y0075256D01*
X0102335Y0163909D02*
X0102335Y0260909D01*
X0092335Y0260909D01*
X0092385Y0277709D02*
X0092385Y0164409D01*
X0092385Y0277709D02*
X0092391Y0278192D01*
X0092408Y0278675D01*
X0092438Y0279158D01*
X0092478Y0279639D01*
X0092531Y0280120D01*
X0092595Y0280599D01*
X0092670Y0281076D01*
X0092758Y0281552D01*
X0092856Y0282025D01*
X0092966Y0282495D01*
X0093087Y0282963D01*
X0093220Y0283428D01*
X0093364Y0283889D01*
X0093519Y0284347D01*
X0093685Y0284801D01*
X0093862Y0285251D01*
X0094049Y0285696D01*
X0094248Y0286137D01*
X0094456Y0286573D01*
X0094676Y0287003D01*
X0094906Y0287429D01*
X0095146Y0287848D01*
X0095396Y0288262D01*
X0095656Y0288669D01*
X0095925Y0289070D01*
X0096205Y0289465D01*
X0096493Y0289852D01*
X0096792Y0290233D01*
X0097099Y0290606D01*
X0097415Y0290971D01*
X0097740Y0291329D01*
X0098073Y0291679D01*
X0098415Y0292021D01*
X0098765Y0292354D01*
X0099123Y0292679D01*
X0099488Y0292995D01*
X0099861Y0293302D01*
X0100242Y0293601D01*
X0100629Y0293889D01*
X0101024Y0294169D01*
X0101425Y0294438D01*
X0101832Y0294698D01*
X0102246Y0294948D01*
X0102665Y0295188D01*
X0103091Y0295418D01*
X0103521Y0295638D01*
X0103957Y0295846D01*
X0104398Y0296045D01*
X0104843Y0296232D01*
X0105293Y0296409D01*
X0105747Y0296575D01*
X0106205Y0296730D01*
X0106666Y0296874D01*
X0107131Y0297007D01*
X0107599Y0297128D01*
X0108069Y0297238D01*
X0108542Y0297336D01*
X0109018Y0297424D01*
X0109495Y0297499D01*
X0109974Y0297563D01*
X0110455Y0297616D01*
X0110936Y0297656D01*
X0111419Y0297686D01*
X0111902Y0297703D01*
X0112385Y0297709D01*
X0205685Y0297709D01*
X0209468Y0304303D02*
X0209468Y0279303D01*
X0179468Y0279303D01*
X0179468Y0304303D01*
X0209468Y0304303D01*
X0211948Y0304303D02*
X0220048Y0304303D01*
X0220648Y0321103D01*
X0233248Y0321103D01*
X0233848Y0304303D01*
X0241948Y0304303D01*
X0241948Y0289303D01*
X0241948Y0279303D02*
X0241948Y0276803D01*
X0211948Y0276803D01*
X0211948Y0279303D01*
X0201685Y0279959D02*
X0201687Y0280117D01*
X0201693Y0280274D01*
X0201703Y0280432D01*
X0201717Y0280589D01*
X0201735Y0280745D01*
X0201756Y0280902D01*
X0201782Y0281057D01*
X0201812Y0281212D01*
X0201845Y0281366D01*
X0201883Y0281519D01*
X0201924Y0281672D01*
X0201969Y0281823D01*
X0202018Y0281973D01*
X0202071Y0282121D01*
X0202127Y0282269D01*
X0202188Y0282414D01*
X0202251Y0282559D01*
X0202319Y0282701D01*
X0202390Y0282842D01*
X0202464Y0282981D01*
X0202542Y0283118D01*
X0202624Y0283253D01*
X0202708Y0283386D01*
X0202797Y0283517D01*
X0202888Y0283645D01*
X0202983Y0283772D01*
X0203080Y0283895D01*
X0203181Y0284017D01*
X0203285Y0284135D01*
X0203392Y0284251D01*
X0203502Y0284364D01*
X0203614Y0284475D01*
X0203730Y0284582D01*
X0203848Y0284687D01*
X0203968Y0284789D01*
X0204091Y0284887D01*
X0204217Y0284983D01*
X0204345Y0285075D01*
X0204475Y0285164D01*
X0204607Y0285250D01*
X0204742Y0285332D01*
X0204879Y0285411D01*
X0205017Y0285486D01*
X0205157Y0285558D01*
X0205300Y0285626D01*
X0205443Y0285691D01*
X0205589Y0285752D01*
X0205736Y0285809D01*
X0205884Y0285863D01*
X0206034Y0285913D01*
X0206184Y0285959D01*
X0206336Y0286001D01*
X0206489Y0286040D01*
X0206643Y0286074D01*
X0206798Y0286105D01*
X0206953Y0286131D01*
X0207109Y0286154D01*
X0207266Y0286173D01*
X0207423Y0286188D01*
X0207580Y0286199D01*
X0207738Y0286206D01*
X0207896Y0286209D01*
X0208053Y0286208D01*
X0208211Y0286203D01*
X0208368Y0286194D01*
X0208526Y0286181D01*
X0208682Y0286164D01*
X0208839Y0286143D01*
X0208994Y0286119D01*
X0209149Y0286090D01*
X0209304Y0286057D01*
X0209457Y0286021D01*
X0209610Y0285980D01*
X0209761Y0285936D01*
X0209911Y0285888D01*
X0210060Y0285837D01*
X0210208Y0285781D01*
X0210354Y0285722D01*
X0210499Y0285659D01*
X0210642Y0285592D01*
X0210783Y0285522D01*
X0210922Y0285449D01*
X0211060Y0285372D01*
X0211196Y0285291D01*
X0211329Y0285207D01*
X0211460Y0285120D01*
X0211589Y0285029D01*
X0211716Y0284935D01*
X0211841Y0284838D01*
X0211962Y0284738D01*
X0212082Y0284635D01*
X0212198Y0284529D01*
X0212312Y0284420D01*
X0212424Y0284308D01*
X0212532Y0284194D01*
X0212637Y0284076D01*
X0212740Y0283956D01*
X0212839Y0283834D01*
X0212935Y0283709D01*
X0213028Y0283581D01*
X0213118Y0283452D01*
X0213204Y0283320D01*
X0213288Y0283186D01*
X0213367Y0283050D01*
X0213444Y0282912D01*
X0213516Y0282772D01*
X0213585Y0282630D01*
X0213651Y0282487D01*
X0213713Y0282342D01*
X0213771Y0282195D01*
X0213826Y0282047D01*
X0213877Y0281898D01*
X0213924Y0281747D01*
X0213967Y0281596D01*
X0214006Y0281443D01*
X0214042Y0281289D01*
X0214073Y0281135D01*
X0214101Y0280980D01*
X0214125Y0280824D01*
X0214145Y0280667D01*
X0214161Y0280510D01*
X0214173Y0280353D01*
X0214181Y0280196D01*
X0214185Y0280038D01*
X0214185Y0279880D01*
X0214181Y0279722D01*
X0214173Y0279565D01*
X0214161Y0279408D01*
X0214145Y0279251D01*
X0214125Y0279094D01*
X0214101Y0278938D01*
X0214073Y0278783D01*
X0214042Y0278629D01*
X0214006Y0278475D01*
X0213967Y0278322D01*
X0213924Y0278171D01*
X0213877Y0278020D01*
X0213826Y0277871D01*
X0213771Y0277723D01*
X0213713Y0277576D01*
X0213651Y0277431D01*
X0213585Y0277288D01*
X0213516Y0277146D01*
X0213444Y0277006D01*
X0213367Y0276868D01*
X0213288Y0276732D01*
X0213204Y0276598D01*
X0213118Y0276466D01*
X0213028Y0276337D01*
X0212935Y0276209D01*
X0212839Y0276084D01*
X0212740Y0275962D01*
X0212637Y0275842D01*
X0212532Y0275724D01*
X0212424Y0275610D01*
X0212312Y0275498D01*
X0212198Y0275389D01*
X0212082Y0275283D01*
X0211962Y0275180D01*
X0211841Y0275080D01*
X0211716Y0274983D01*
X0211589Y0274889D01*
X0211460Y0274798D01*
X0211329Y0274711D01*
X0211196Y0274627D01*
X0211060Y0274546D01*
X0210922Y0274469D01*
X0210783Y0274396D01*
X0210642Y0274326D01*
X0210499Y0274259D01*
X0210354Y0274196D01*
X0210208Y0274137D01*
X0210060Y0274081D01*
X0209911Y0274030D01*
X0209761Y0273982D01*
X0209610Y0273938D01*
X0209457Y0273897D01*
X0209304Y0273861D01*
X0209149Y0273828D01*
X0208994Y0273799D01*
X0208839Y0273775D01*
X0208682Y0273754D01*
X0208526Y0273737D01*
X0208368Y0273724D01*
X0208211Y0273715D01*
X0208053Y0273710D01*
X0207896Y0273709D01*
X0207738Y0273712D01*
X0207580Y0273719D01*
X0207423Y0273730D01*
X0207266Y0273745D01*
X0207109Y0273764D01*
X0206953Y0273787D01*
X0206798Y0273813D01*
X0206643Y0273844D01*
X0206489Y0273878D01*
X0206336Y0273917D01*
X0206184Y0273959D01*
X0206034Y0274005D01*
X0205884Y0274055D01*
X0205736Y0274109D01*
X0205589Y0274166D01*
X0205443Y0274227D01*
X0205300Y0274292D01*
X0205157Y0274360D01*
X0205017Y0274432D01*
X0204879Y0274507D01*
X0204742Y0274586D01*
X0204607Y0274668D01*
X0204475Y0274754D01*
X0204345Y0274843D01*
X0204217Y0274935D01*
X0204091Y0275031D01*
X0203968Y0275129D01*
X0203848Y0275231D01*
X0203730Y0275336D01*
X0203614Y0275443D01*
X0203502Y0275554D01*
X0203392Y0275667D01*
X0203285Y0275783D01*
X0203181Y0275901D01*
X0203080Y0276023D01*
X0202983Y0276146D01*
X0202888Y0276273D01*
X0202797Y0276401D01*
X0202708Y0276532D01*
X0202624Y0276665D01*
X0202542Y0276800D01*
X0202464Y0276937D01*
X0202390Y0277076D01*
X0202319Y0277217D01*
X0202251Y0277359D01*
X0202188Y0277504D01*
X0202127Y0277649D01*
X0202071Y0277797D01*
X0202018Y0277945D01*
X0201969Y0278095D01*
X0201924Y0278246D01*
X0201883Y0278399D01*
X0201845Y0278552D01*
X0201812Y0278706D01*
X0201782Y0278861D01*
X0201756Y0279016D01*
X0201735Y0279173D01*
X0201717Y0279329D01*
X0201703Y0279486D01*
X0201693Y0279644D01*
X0201687Y0279801D01*
X0201685Y0279959D01*
X0205685Y0297709D02*
X0206168Y0297703D01*
X0206651Y0297686D01*
X0207134Y0297656D01*
X0207615Y0297616D01*
X0208096Y0297563D01*
X0208575Y0297499D01*
X0209052Y0297424D01*
X0209528Y0297336D01*
X0210001Y0297238D01*
X0210471Y0297128D01*
X0210939Y0297007D01*
X0211404Y0296874D01*
X0211865Y0296730D01*
X0212323Y0296575D01*
X0212777Y0296409D01*
X0213227Y0296232D01*
X0213672Y0296045D01*
X0214113Y0295846D01*
X0214549Y0295638D01*
X0214979Y0295418D01*
X0215405Y0295188D01*
X0215824Y0294948D01*
X0216238Y0294698D01*
X0216645Y0294438D01*
X0217046Y0294169D01*
X0217441Y0293889D01*
X0217828Y0293601D01*
X0218209Y0293302D01*
X0218582Y0292995D01*
X0218947Y0292679D01*
X0219305Y0292354D01*
X0219655Y0292021D01*
X0219997Y0291679D01*
X0220330Y0291329D01*
X0220655Y0290971D01*
X0220971Y0290606D01*
X0221278Y0290233D01*
X0221577Y0289852D01*
X0221865Y0289465D01*
X0222145Y0289070D01*
X0222414Y0288669D01*
X0222674Y0288262D01*
X0222924Y0287848D01*
X0223164Y0287429D01*
X0223394Y0287003D01*
X0223614Y0286573D01*
X0223822Y0286137D01*
X0224021Y0285696D01*
X0224208Y0285251D01*
X0224385Y0284801D01*
X0224551Y0284347D01*
X0224706Y0283889D01*
X0224850Y0283428D01*
X0224983Y0282963D01*
X0225104Y0282495D01*
X0225214Y0282025D01*
X0225312Y0281552D01*
X0225400Y0281076D01*
X0225475Y0280599D01*
X0225539Y0280120D01*
X0225592Y0279639D01*
X0225632Y0279158D01*
X0225662Y0278675D01*
X0225679Y0278192D01*
X0225685Y0277709D01*
X0211948Y0289303D02*
X0211948Y0304303D01*
X0220048Y0304303D02*
X0233848Y0304303D01*
X0199468Y0304303D02*
X0199466Y0304443D01*
X0199460Y0304583D01*
X0199450Y0304723D01*
X0199437Y0304863D01*
X0199419Y0305002D01*
X0199397Y0305141D01*
X0199372Y0305278D01*
X0199343Y0305416D01*
X0199310Y0305552D01*
X0199273Y0305687D01*
X0199232Y0305821D01*
X0199187Y0305954D01*
X0199139Y0306086D01*
X0199087Y0306216D01*
X0199032Y0306345D01*
X0198973Y0306472D01*
X0198910Y0306598D01*
X0198844Y0306722D01*
X0198775Y0306843D01*
X0198702Y0306963D01*
X0198625Y0307081D01*
X0198546Y0307196D01*
X0198463Y0307310D01*
X0198377Y0307420D01*
X0198288Y0307529D01*
X0198196Y0307635D01*
X0198101Y0307738D01*
X0198004Y0307839D01*
X0197903Y0307936D01*
X0197800Y0308031D01*
X0197694Y0308123D01*
X0197585Y0308212D01*
X0197475Y0308298D01*
X0197361Y0308381D01*
X0197246Y0308460D01*
X0197128Y0308537D01*
X0197008Y0308610D01*
X0196887Y0308679D01*
X0196763Y0308745D01*
X0196637Y0308808D01*
X0196510Y0308867D01*
X0196381Y0308922D01*
X0196251Y0308974D01*
X0196119Y0309022D01*
X0195986Y0309067D01*
X0195852Y0309108D01*
X0195717Y0309145D01*
X0195581Y0309178D01*
X0195443Y0309207D01*
X0195306Y0309232D01*
X0195167Y0309254D01*
X0195028Y0309272D01*
X0194888Y0309285D01*
X0194748Y0309295D01*
X0194608Y0309301D01*
X0194468Y0309303D01*
X0194328Y0309301D01*
X0194188Y0309295D01*
X0194048Y0309285D01*
X0193908Y0309272D01*
X0193769Y0309254D01*
X0193630Y0309232D01*
X0193493Y0309207D01*
X0193355Y0309178D01*
X0193219Y0309145D01*
X0193084Y0309108D01*
X0192950Y0309067D01*
X0192817Y0309022D01*
X0192685Y0308974D01*
X0192555Y0308922D01*
X0192426Y0308867D01*
X0192299Y0308808D01*
X0192173Y0308745D01*
X0192049Y0308679D01*
X0191928Y0308610D01*
X0191808Y0308537D01*
X0191690Y0308460D01*
X0191575Y0308381D01*
X0191461Y0308298D01*
X0191351Y0308212D01*
X0191242Y0308123D01*
X0191136Y0308031D01*
X0191033Y0307936D01*
X0190932Y0307839D01*
X0190835Y0307738D01*
X0190740Y0307635D01*
X0190648Y0307529D01*
X0190559Y0307420D01*
X0190473Y0307310D01*
X0190390Y0307196D01*
X0190311Y0307081D01*
X0190234Y0306963D01*
X0190161Y0306843D01*
X0190092Y0306722D01*
X0190026Y0306598D01*
X0189963Y0306472D01*
X0189904Y0306345D01*
X0189849Y0306216D01*
X0189797Y0306086D01*
X0189749Y0305954D01*
X0189704Y0305821D01*
X0189663Y0305687D01*
X0189626Y0305552D01*
X0189593Y0305416D01*
X0189564Y0305278D01*
X0189539Y0305141D01*
X0189517Y0305002D01*
X0189499Y0304863D01*
X0189486Y0304723D01*
X0189476Y0304583D01*
X0189470Y0304443D01*
X0189468Y0304303D01*
X0177785Y0304209D02*
X0171285Y0304209D01*
X0171285Y0347709D01*
X0146785Y0347709D01*
X0146785Y0304209D01*
X0171285Y0304209D01*
X0177785Y0304209D02*
X0177785Y0279209D01*
X0140285Y0279209D01*
X0140285Y0304209D01*
X0146785Y0304209D01*
X0138602Y0304303D02*
X0138602Y0279303D01*
X0108602Y0279303D01*
X0108602Y0304303D01*
X0138602Y0304303D01*
X0128602Y0304303D02*
X0128600Y0304443D01*
X0128594Y0304583D01*
X0128584Y0304723D01*
X0128571Y0304863D01*
X0128553Y0305002D01*
X0128531Y0305141D01*
X0128506Y0305278D01*
X0128477Y0305416D01*
X0128444Y0305552D01*
X0128407Y0305687D01*
X0128366Y0305821D01*
X0128321Y0305954D01*
X0128273Y0306086D01*
X0128221Y0306216D01*
X0128166Y0306345D01*
X0128107Y0306472D01*
X0128044Y0306598D01*
X0127978Y0306722D01*
X0127909Y0306843D01*
X0127836Y0306963D01*
X0127759Y0307081D01*
X0127680Y0307196D01*
X0127597Y0307310D01*
X0127511Y0307420D01*
X0127422Y0307529D01*
X0127330Y0307635D01*
X0127235Y0307738D01*
X0127138Y0307839D01*
X0127037Y0307936D01*
X0126934Y0308031D01*
X0126828Y0308123D01*
X0126719Y0308212D01*
X0126609Y0308298D01*
X0126495Y0308381D01*
X0126380Y0308460D01*
X0126262Y0308537D01*
X0126142Y0308610D01*
X0126021Y0308679D01*
X0125897Y0308745D01*
X0125771Y0308808D01*
X0125644Y0308867D01*
X0125515Y0308922D01*
X0125385Y0308974D01*
X0125253Y0309022D01*
X0125120Y0309067D01*
X0124986Y0309108D01*
X0124851Y0309145D01*
X0124715Y0309178D01*
X0124577Y0309207D01*
X0124440Y0309232D01*
X0124301Y0309254D01*
X0124162Y0309272D01*
X0124022Y0309285D01*
X0123882Y0309295D01*
X0123742Y0309301D01*
X0123602Y0309303D01*
X0123462Y0309301D01*
X0123322Y0309295D01*
X0123182Y0309285D01*
X0123042Y0309272D01*
X0122903Y0309254D01*
X0122764Y0309232D01*
X0122627Y0309207D01*
X0122489Y0309178D01*
X0122353Y0309145D01*
X0122218Y0309108D01*
X0122084Y0309067D01*
X0121951Y0309022D01*
X0121819Y0308974D01*
X0121689Y0308922D01*
X0121560Y0308867D01*
X0121433Y0308808D01*
X0121307Y0308745D01*
X0121183Y0308679D01*
X0121062Y0308610D01*
X0120942Y0308537D01*
X0120824Y0308460D01*
X0120709Y0308381D01*
X0120595Y0308298D01*
X0120485Y0308212D01*
X0120376Y0308123D01*
X0120270Y0308031D01*
X0120167Y0307936D01*
X0120066Y0307839D01*
X0119969Y0307738D01*
X0119874Y0307635D01*
X0119782Y0307529D01*
X0119693Y0307420D01*
X0119607Y0307310D01*
X0119524Y0307196D01*
X0119445Y0307081D01*
X0119368Y0306963D01*
X0119295Y0306843D01*
X0119226Y0306722D01*
X0119160Y0306598D01*
X0119097Y0306472D01*
X0119038Y0306345D01*
X0118983Y0306216D01*
X0118931Y0306086D01*
X0118883Y0305954D01*
X0118838Y0305821D01*
X0118797Y0305687D01*
X0118760Y0305552D01*
X0118727Y0305416D01*
X0118698Y0305278D01*
X0118673Y0305141D01*
X0118651Y0305002D01*
X0118633Y0304863D01*
X0118620Y0304723D01*
X0118610Y0304583D01*
X0118604Y0304443D01*
X0118602Y0304303D01*
X0103885Y0279959D02*
X0103887Y0280117D01*
X0103893Y0280274D01*
X0103903Y0280432D01*
X0103917Y0280589D01*
X0103935Y0280745D01*
X0103956Y0280902D01*
X0103982Y0281057D01*
X0104012Y0281212D01*
X0104045Y0281366D01*
X0104083Y0281519D01*
X0104124Y0281672D01*
X0104169Y0281823D01*
X0104218Y0281973D01*
X0104271Y0282121D01*
X0104327Y0282269D01*
X0104388Y0282414D01*
X0104451Y0282559D01*
X0104519Y0282701D01*
X0104590Y0282842D01*
X0104664Y0282981D01*
X0104742Y0283118D01*
X0104824Y0283253D01*
X0104908Y0283386D01*
X0104997Y0283517D01*
X0105088Y0283645D01*
X0105183Y0283772D01*
X0105280Y0283895D01*
X0105381Y0284017D01*
X0105485Y0284135D01*
X0105592Y0284251D01*
X0105702Y0284364D01*
X0105814Y0284475D01*
X0105930Y0284582D01*
X0106048Y0284687D01*
X0106168Y0284789D01*
X0106291Y0284887D01*
X0106417Y0284983D01*
X0106545Y0285075D01*
X0106675Y0285164D01*
X0106807Y0285250D01*
X0106942Y0285332D01*
X0107079Y0285411D01*
X0107217Y0285486D01*
X0107357Y0285558D01*
X0107500Y0285626D01*
X0107643Y0285691D01*
X0107789Y0285752D01*
X0107936Y0285809D01*
X0108084Y0285863D01*
X0108234Y0285913D01*
X0108384Y0285959D01*
X0108536Y0286001D01*
X0108689Y0286040D01*
X0108843Y0286074D01*
X0108998Y0286105D01*
X0109153Y0286131D01*
X0109309Y0286154D01*
X0109466Y0286173D01*
X0109623Y0286188D01*
X0109780Y0286199D01*
X0109938Y0286206D01*
X0110096Y0286209D01*
X0110253Y0286208D01*
X0110411Y0286203D01*
X0110568Y0286194D01*
X0110726Y0286181D01*
X0110882Y0286164D01*
X0111039Y0286143D01*
X0111194Y0286119D01*
X0111349Y0286090D01*
X0111504Y0286057D01*
X0111657Y0286021D01*
X0111810Y0285980D01*
X0111961Y0285936D01*
X0112111Y0285888D01*
X0112260Y0285837D01*
X0112408Y0285781D01*
X0112554Y0285722D01*
X0112699Y0285659D01*
X0112842Y0285592D01*
X0112983Y0285522D01*
X0113122Y0285449D01*
X0113260Y0285372D01*
X0113396Y0285291D01*
X0113529Y0285207D01*
X0113660Y0285120D01*
X0113789Y0285029D01*
X0113916Y0284935D01*
X0114041Y0284838D01*
X0114162Y0284738D01*
X0114282Y0284635D01*
X0114398Y0284529D01*
X0114512Y0284420D01*
X0114624Y0284308D01*
X0114732Y0284194D01*
X0114837Y0284076D01*
X0114940Y0283956D01*
X0115039Y0283834D01*
X0115135Y0283709D01*
X0115228Y0283581D01*
X0115318Y0283452D01*
X0115404Y0283320D01*
X0115488Y0283186D01*
X0115567Y0283050D01*
X0115644Y0282912D01*
X0115716Y0282772D01*
X0115785Y0282630D01*
X0115851Y0282487D01*
X0115913Y0282342D01*
X0115971Y0282195D01*
X0116026Y0282047D01*
X0116077Y0281898D01*
X0116124Y0281747D01*
X0116167Y0281596D01*
X0116206Y0281443D01*
X0116242Y0281289D01*
X0116273Y0281135D01*
X0116301Y0280980D01*
X0116325Y0280824D01*
X0116345Y0280667D01*
X0116361Y0280510D01*
X0116373Y0280353D01*
X0116381Y0280196D01*
X0116385Y0280038D01*
X0116385Y0279880D01*
X0116381Y0279722D01*
X0116373Y0279565D01*
X0116361Y0279408D01*
X0116345Y0279251D01*
X0116325Y0279094D01*
X0116301Y0278938D01*
X0116273Y0278783D01*
X0116242Y0278629D01*
X0116206Y0278475D01*
X0116167Y0278322D01*
X0116124Y0278171D01*
X0116077Y0278020D01*
X0116026Y0277871D01*
X0115971Y0277723D01*
X0115913Y0277576D01*
X0115851Y0277431D01*
X0115785Y0277288D01*
X0115716Y0277146D01*
X0115644Y0277006D01*
X0115567Y0276868D01*
X0115488Y0276732D01*
X0115404Y0276598D01*
X0115318Y0276466D01*
X0115228Y0276337D01*
X0115135Y0276209D01*
X0115039Y0276084D01*
X0114940Y0275962D01*
X0114837Y0275842D01*
X0114732Y0275724D01*
X0114624Y0275610D01*
X0114512Y0275498D01*
X0114398Y0275389D01*
X0114282Y0275283D01*
X0114162Y0275180D01*
X0114041Y0275080D01*
X0113916Y0274983D01*
X0113789Y0274889D01*
X0113660Y0274798D01*
X0113529Y0274711D01*
X0113396Y0274627D01*
X0113260Y0274546D01*
X0113122Y0274469D01*
X0112983Y0274396D01*
X0112842Y0274326D01*
X0112699Y0274259D01*
X0112554Y0274196D01*
X0112408Y0274137D01*
X0112260Y0274081D01*
X0112111Y0274030D01*
X0111961Y0273982D01*
X0111810Y0273938D01*
X0111657Y0273897D01*
X0111504Y0273861D01*
X0111349Y0273828D01*
X0111194Y0273799D01*
X0111039Y0273775D01*
X0110882Y0273754D01*
X0110726Y0273737D01*
X0110568Y0273724D01*
X0110411Y0273715D01*
X0110253Y0273710D01*
X0110096Y0273709D01*
X0109938Y0273712D01*
X0109780Y0273719D01*
X0109623Y0273730D01*
X0109466Y0273745D01*
X0109309Y0273764D01*
X0109153Y0273787D01*
X0108998Y0273813D01*
X0108843Y0273844D01*
X0108689Y0273878D01*
X0108536Y0273917D01*
X0108384Y0273959D01*
X0108234Y0274005D01*
X0108084Y0274055D01*
X0107936Y0274109D01*
X0107789Y0274166D01*
X0107643Y0274227D01*
X0107500Y0274292D01*
X0107357Y0274360D01*
X0107217Y0274432D01*
X0107079Y0274507D01*
X0106942Y0274586D01*
X0106807Y0274668D01*
X0106675Y0274754D01*
X0106545Y0274843D01*
X0106417Y0274935D01*
X0106291Y0275031D01*
X0106168Y0275129D01*
X0106048Y0275231D01*
X0105930Y0275336D01*
X0105814Y0275443D01*
X0105702Y0275554D01*
X0105592Y0275667D01*
X0105485Y0275783D01*
X0105381Y0275901D01*
X0105280Y0276023D01*
X0105183Y0276146D01*
X0105088Y0276273D01*
X0104997Y0276401D01*
X0104908Y0276532D01*
X0104824Y0276665D01*
X0104742Y0276800D01*
X0104664Y0276937D01*
X0104590Y0277076D01*
X0104519Y0277217D01*
X0104451Y0277359D01*
X0104388Y0277504D01*
X0104327Y0277649D01*
X0104271Y0277797D01*
X0104218Y0277945D01*
X0104169Y0278095D01*
X0104124Y0278246D01*
X0104083Y0278399D01*
X0104045Y0278552D01*
X0104012Y0278706D01*
X0103982Y0278861D01*
X0103956Y0279016D01*
X0103935Y0279173D01*
X0103917Y0279329D01*
X0103903Y0279486D01*
X0103893Y0279644D01*
X0103887Y0279801D01*
X0103885Y0279959D01*
D12*
X0087990Y0258546D02*
X0087990Y0253942D01*
X0089525Y0253942D02*
X0086455Y0253942D01*
X0084921Y0253942D02*
X0081851Y0257011D01*
X0081851Y0257778D01*
X0082619Y0258546D01*
X0084153Y0258546D01*
X0084921Y0257778D01*
X0087990Y0258546D02*
X0089525Y0257011D01*
X0084921Y0253942D02*
X0081851Y0253942D01*
X0083386Y0250672D02*
X0083386Y0246068D01*
X0084921Y0246068D02*
X0081851Y0246068D01*
X0082619Y0242798D02*
X0081851Y0242030D01*
X0084921Y0238961D01*
X0084153Y0238194D01*
X0082619Y0238194D01*
X0081851Y0238961D01*
X0081851Y0242030D01*
X0082619Y0242798D02*
X0084153Y0242798D01*
X0084921Y0242030D01*
X0084921Y0238961D01*
X0086455Y0238194D02*
X0089525Y0238194D01*
X0087990Y0238194D02*
X0087990Y0242798D01*
X0089525Y0241263D01*
X0089525Y0246068D02*
X0086455Y0246068D01*
X0087990Y0246068D02*
X0087990Y0250672D01*
X0089525Y0249137D01*
X0084921Y0249137D02*
X0083386Y0250672D01*
X0087223Y0234924D02*
X0086455Y0234156D01*
X0086455Y0231087D01*
X0087223Y0230320D01*
X0088757Y0230320D01*
X0089525Y0231087D01*
X0088757Y0232622D02*
X0086455Y0232622D01*
X0088757Y0232622D02*
X0089525Y0233389D01*
X0089525Y0234156D01*
X0088757Y0234924D01*
X0087223Y0234924D01*
X0087223Y0227050D02*
X0086455Y0226282D01*
X0086455Y0225515D01*
X0087223Y0224748D01*
X0088757Y0224748D01*
X0089525Y0225515D01*
X0089525Y0226282D01*
X0088757Y0227050D01*
X0087223Y0227050D01*
X0087223Y0224748D02*
X0086455Y0223980D01*
X0086455Y0223213D01*
X0087223Y0222446D01*
X0088757Y0222446D01*
X0089525Y0223213D01*
X0089525Y0223980D01*
X0088757Y0224748D01*
X0089525Y0219176D02*
X0086455Y0219176D01*
X0086455Y0218408D01*
X0089525Y0215339D01*
X0089525Y0214572D01*
X0087990Y0210534D02*
X0086455Y0211302D01*
X0087990Y0210534D02*
X0089525Y0209000D01*
X0087223Y0209000D01*
X0086455Y0208232D01*
X0086455Y0207465D01*
X0087223Y0206698D01*
X0088757Y0206698D01*
X0089525Y0207465D01*
X0089525Y0209000D01*
X0089525Y0203428D02*
X0086455Y0203428D01*
X0087223Y0201893D02*
X0086455Y0201126D01*
X0086455Y0199591D01*
X0087223Y0198824D01*
X0088757Y0198824D01*
X0089525Y0199591D01*
X0089525Y0201126D02*
X0087990Y0201893D01*
X0087223Y0201893D01*
X0089525Y0201126D02*
X0089525Y0203428D01*
X0087223Y0195554D02*
X0089525Y0193252D01*
X0086455Y0193252D01*
X0087223Y0190950D02*
X0087223Y0195554D01*
X0087223Y0187680D02*
X0086455Y0186912D01*
X0086455Y0186145D01*
X0087223Y0185378D01*
X0086455Y0184610D01*
X0086455Y0183843D01*
X0087223Y0183076D01*
X0088757Y0183076D01*
X0089525Y0183843D01*
X0087990Y0185378D02*
X0087223Y0185378D01*
X0087223Y0187680D02*
X0088757Y0187680D01*
X0089525Y0186912D01*
X0088757Y0179805D02*
X0089525Y0179038D01*
X0088757Y0179805D02*
X0087223Y0179805D01*
X0086455Y0179038D01*
X0086455Y0178271D01*
X0089525Y0175202D01*
X0086455Y0175202D01*
X0087990Y0171931D02*
X0087990Y0167328D01*
X0089525Y0167328D02*
X0086455Y0167328D01*
X0089525Y0170397D02*
X0087990Y0171931D01*
X0229607Y0170101D02*
X0230375Y0170868D01*
X0231909Y0170868D01*
X0232677Y0170101D01*
X0229607Y0170101D02*
X0229607Y0169334D01*
X0232677Y0166265D01*
X0229607Y0166265D01*
X0234211Y0166265D02*
X0237280Y0166265D01*
X0235746Y0166265D02*
X0235746Y0170868D01*
X0237280Y0169334D01*
X0237280Y0174139D02*
X0234211Y0174139D01*
X0232677Y0174139D02*
X0229607Y0174139D01*
X0231142Y0174139D02*
X0231142Y0178743D01*
X0232677Y0177208D01*
X0235746Y0178743D02*
X0235746Y0174139D01*
X0237280Y0177208D02*
X0235746Y0178743D01*
X0235746Y0182013D02*
X0235746Y0186617D01*
X0237280Y0185082D01*
X0237280Y0182013D02*
X0234211Y0182013D01*
X0232677Y0182780D02*
X0232677Y0185849D01*
X0231909Y0186617D01*
X0230375Y0186617D01*
X0229607Y0185849D01*
X0232677Y0182780D01*
X0231909Y0182013D01*
X0230375Y0182013D01*
X0229607Y0182780D01*
X0229607Y0185849D01*
X0230375Y0189887D02*
X0229607Y0190654D01*
X0229607Y0193723D01*
X0230375Y0194491D01*
X0231909Y0194491D01*
X0232676Y0193723D01*
X0232676Y0192956D01*
X0231909Y0192189D01*
X0229607Y0192189D01*
X0230375Y0189887D02*
X0231909Y0189887D01*
X0232676Y0190654D01*
X0231909Y0197761D02*
X0232676Y0198528D01*
X0232676Y0199295D01*
X0231909Y0200063D01*
X0230375Y0200063D01*
X0229607Y0199295D01*
X0229607Y0198528D01*
X0230375Y0197761D01*
X0231909Y0197761D01*
X0231909Y0200063D02*
X0232676Y0200830D01*
X0232676Y0201597D01*
X0231909Y0202365D01*
X0230375Y0202365D01*
X0229607Y0201597D01*
X0229607Y0200830D01*
X0230375Y0200063D01*
X0232676Y0205635D02*
X0232676Y0206402D01*
X0229607Y0209471D01*
X0229607Y0210239D01*
X0232676Y0210239D01*
X0231909Y0213509D02*
X0230375Y0213509D01*
X0229607Y0214276D01*
X0229607Y0215043D01*
X0230375Y0215811D01*
X0232676Y0215811D01*
X0232676Y0214276D01*
X0231909Y0213509D01*
X0232676Y0215811D02*
X0231142Y0217345D01*
X0229607Y0218113D01*
X0230375Y0221383D02*
X0229607Y0222150D01*
X0229607Y0223685D01*
X0230375Y0224452D01*
X0231142Y0224452D01*
X0232676Y0223685D01*
X0232676Y0225987D01*
X0229607Y0225987D01*
X0230375Y0229257D02*
X0230375Y0233861D01*
X0232676Y0231559D01*
X0229607Y0231559D01*
X0230375Y0237131D02*
X0229607Y0237898D01*
X0229607Y0238665D01*
X0230375Y0239433D01*
X0231142Y0239433D01*
X0230375Y0239433D02*
X0229607Y0240200D01*
X0229607Y0240967D01*
X0230375Y0241735D01*
X0231909Y0241735D01*
X0232676Y0240967D01*
X0232676Y0237898D02*
X0231909Y0237131D01*
X0230375Y0237131D01*
X0229607Y0245005D02*
X0232676Y0245005D01*
X0229607Y0248074D01*
X0229607Y0248841D01*
X0230375Y0249609D01*
X0231909Y0249609D01*
X0232676Y0248841D01*
X0232676Y0252879D02*
X0229607Y0252879D01*
X0231142Y0252879D02*
X0231142Y0257483D01*
X0232676Y0255948D01*
X0239722Y0268956D02*
X0242791Y0268956D01*
X0241257Y0268956D02*
X0241257Y0273560D01*
X0242791Y0272025D01*
X0269326Y0272025D02*
X0269326Y0272793D01*
X0270093Y0273560D01*
X0271628Y0273560D01*
X0272395Y0272793D01*
X0269326Y0272025D02*
X0272395Y0268956D01*
X0269326Y0268956D01*
X0232676Y0222150D02*
X0231909Y0221383D01*
X0230375Y0221383D01*
X0235886Y0083560D02*
X0237420Y0083560D01*
X0238188Y0082793D01*
X0238188Y0082025D01*
X0237420Y0081258D01*
X0235118Y0081258D01*
X0235118Y0079723D02*
X0235118Y0082793D01*
X0235886Y0083560D01*
X0239722Y0082793D02*
X0239722Y0082025D01*
X0240490Y0081258D01*
X0239722Y0080491D01*
X0239722Y0079723D01*
X0240490Y0078956D01*
X0242024Y0078956D01*
X0242791Y0079723D01*
X0241257Y0081258D02*
X0240490Y0081258D01*
X0239722Y0082793D02*
X0240490Y0083560D01*
X0242024Y0083560D01*
X0242791Y0082793D01*
X0238188Y0079723D02*
X0237420Y0078956D01*
X0235886Y0078956D01*
X0235118Y0079723D01*
X0269326Y0079723D02*
X0270093Y0078956D01*
X0271628Y0078956D01*
X0272395Y0079723D01*
X0269326Y0082793D01*
X0269326Y0079723D01*
X0272395Y0079723D02*
X0272395Y0082793D01*
X0271628Y0083560D01*
X0270093Y0083560D01*
X0269326Y0082793D01*
X0273930Y0081258D02*
X0276999Y0081258D01*
X0274697Y0083560D01*
X0274697Y0078956D01*
M02*
